<svg id="svg" version="1.1" xmlns="http://www.w3.org/2000/svg" xmlns:xlink="http://www.w3.org/1999/xlink" width="400" height="400" viewBox="0, 0, 400,400"><g id="svgg"><path id="path0" d="M244.000 132.400 C 244.000 163.860,243.926 189.600,243.836 189.600 C 243.574 189.600,240.856 186.872,213.800 159.450 C 163.795 108.770,159.657 104.679,156.600 102.884 C 152.252 100.331,148.605 99.874,144.899 101.418 C 143.647 101.939,130.196 115.148,128.045 117.967 L 127.000 119.338 126.883 190.369 C 126.819 229.436,126.872 261.985,127.001 262.700 C 127.234 263.989,127.256 264.000,129.539 264.000 L 131.841 264.000 136.720 259.064 L 141.600 254.129 141.600 189.292 L 141.600 124.456 145.572 120.428 C 147.757 118.213,149.718 116.400,149.929 116.400 C 150.141 116.400,152.718 118.854,155.657 121.854 C 158.596 124.853,171.980 138.377,185.400 151.906 C 234.662 201.569,258.634 225.600,258.913 225.600 C 259.071 225.600,259.200 213.360,259.200 198.400 L 259.200 171.200 266.176 171.200 C 274.396 171.200,273.694 170.649,273.754 177.149 L 273.800 182.200 281.000 182.200 L 288.200 182.200 288.200 171.200 L 288.200 160.200 273.800 160.000 L 259.400 159.800 259.298 124.777 L 259.196 89.754 251.856 82.477 C 247.819 78.475,244.400 75.200,244.258 75.200 C 244.116 75.200,244.000 100.940,244.000 132.400 M285.800 79.859 C 284.700 80.869,281.595 83.838,278.900 86.457 L 274.000 91.218 274.005 106.709 L 274.011 122.200 277.662 125.900 C 279.671 127.935,281.433 129.600,281.579 129.600 C 281.822 129.600,286.762 124.303,287.887 122.836 C 288.437 122.118,288.647 77.991,288.100 78.011 C 287.935 78.018,286.900 78.849,285.800 79.859 M196.400 83.161 L 196.400 87.936 197.500 88.169 C 199.266 88.541,215.214 88.146,215.641 87.719 C 215.858 87.502,215.978 85.417,215.914 82.966 L 215.800 78.600 206.100 78.493 L 196.400 78.386 196.400 83.161 M128.163 85.771 C 125.104 87.914,125.886 93.158,129.490 94.663 C 134.559 96.781,138.462 89.424,134.092 85.986 C 132.882 85.034,129.395 84.908,128.163 85.771 M154.000 200.167 C 154.000 239.114,154.143 263.184,154.376 263.267 C 154.583 263.340,157.717 266.325,161.340 269.900 C 164.963 273.475,168.034 276.400,168.164 276.400 C 168.294 276.400,168.400 253.540,168.400 225.600 C 168.400 197.660,168.535 174.803,168.700 174.806 C 168.865 174.809,186.992 192.692,208.982 214.546 C 251.365 256.667,249.603 255.058,256.110 257.579 C 266.378 261.557,270.614 260.201,281.474 249.459 L 288.408 242.600 288.404 229.663 C 288.399 214.867,288.867 216.789,284.071 211.848 L 281.400 209.095 277.724 212.986 L 274.049 216.876 273.924 227.226 L 273.800 237.576 271.400 240.033 C 267.286 244.244,263.413 245.147,259.381 242.835 C 257.440 241.721,202.363 186.552,167.599 150.900 C 160.252 143.365,154.187 137.200,154.120 137.200 C 154.054 137.200,154.000 165.535,154.000 200.167 M94.800 176.588 L 94.800 194.023 100.100 193.912 L 105.400 193.800 105.400 176.600 L 105.400 159.400 100.100 159.276 L 94.800 159.153 94.800 176.588 M315.693 171.494 L 312.386 171.633 312.493 181.116 L 312.600 190.600 317.700 190.712 L 322.800 190.824 322.880 185.712 C 322.950 181.215,322.799 171.884,322.653 171.751 C 322.412 171.530,318.380 171.381,315.693 171.494 M283.642 266.226 C 280.592 268.793,281.558 273.950,285.240 274.754 C 289.580 275.703,292.807 271.921,290.873 268.152 C 289.356 265.198,285.945 264.289,283.642 266.226 M196.400 270.207 L 196.400 274.814 206.100 274.707 L 215.800 274.600 215.914 270.743 C 216.076 265.272,216.736 265.600,205.571 265.600 L 196.400 265.600 196.400 270.207 M135.200 287.953 C 119.147 293.133,122.323 317.200,139.059 317.200 C 142.412 317.200,145.008 316.434,147.312 314.765 C 150.213 312.663,150.222 312.497,147.574 309.807 L 145.233 307.429 144.317 308.276 C 138.280 313.854,130.127 307.652,132.591 299.356 C 134.063 294.400,140.178 292.741,144.053 296.248 C 144.838 296.958,144.881 296.922,147.651 293.308 L 149.255 291.217 147.327 289.994 C 143.254 287.410,139.067 286.705,135.200 287.953 M175.300 287.799 C 167.686 289.919,163.337 297.098,164.697 305.303 C 167.341 321.263,189.487 321.263,192.381 305.304 C 194.261 294.938,184.732 285.172,175.300 287.799 M223.100 287.830 C 222.935 287.997,222.800 294.673,222.800 302.667 L 222.800 317.200 226.700 317.193 C 236.052 317.176,239.700 316.235,243.233 312.930 C 250.869 305.788,248.291 292.589,238.514 288.762 C 236.127 287.828,223.836 287.084,223.100 287.830 M271.200 302.400 L 271.200 317.200 280.367 317.200 C 291.637 317.200,290.800 317.492,290.800 313.557 L 290.800 310.400 284.600 310.400 L 278.400 310.400 278.400 308.000 L 278.400 305.600 283.200 305.600 L 288.000 305.600 287.997 304.500 C 287.995 303.895,287.877 302.436,287.736 301.259 L 287.479 299.118 282.939 299.262 L 278.400 299.406 278.400 296.903 L 278.400 294.400 284.600 294.400 L 290.800 294.400 290.800 291.000 L 290.800 287.600 281.000 287.600 L 271.200 287.600 271.200 302.400 M181.074 295.177 C 186.529 297.654,186.500 306.937,181.029 309.586 C 177.736 311.180,174.425 309.948,172.749 306.506 C 169.470 299.769,174.903 292.376,181.074 295.177 M234.997 294.841 C 243.631 297.015,241.191 310.375,232.156 310.396 L 230.511 310.400 230.259 308.300 C 229.923 305.503,229.929 295.004,230.267 294.667 C 230.673 294.261,233.039 294.348,234.997 294.841 " stroke="none" fill="#f9f9fa" fill-rule="evenodd"></path><path id="path1" d="M184.200 0.250 C 177.637 0.747,169.066 1.730,167.000 2.224 C 165.680 2.540,162.980 3.051,161.000 3.362 C 156.676 4.039,156.258 4.129,156.000 4.445 C 155.890 4.580,154.090 5.000,152.000 5.379 C 149.910 5.758,147.660 6.309,147.000 6.604 C 146.340 6.898,144.453 7.435,142.808 7.795 C 141.162 8.156,139.722 8.586,139.608 8.750 C 139.493 8.915,138.140 9.379,136.600 9.783 C 135.060 10.186,133.170 10.818,132.400 11.187 C 131.630 11.555,130.190 12.106,129.200 12.412 C 128.210 12.717,127.310 13.072,127.200 13.200 C 127.090 13.328,126.190 13.685,125.200 13.992 C 124.210 14.299,122.103 15.146,120.518 15.875 C 118.934 16.604,117.359 17.200,117.018 17.200 C 116.678 17.200,116.400 17.358,116.400 17.551 C 116.400 17.744,115.320 18.306,114.000 18.800 C 112.680 19.294,111.600 19.838,111.600 20.009 C 111.600 20.180,110.700 20.643,109.600 21.039 C 108.500 21.434,107.600 21.878,107.600 22.025 C 107.600 22.171,106.790 22.601,105.800 22.979 C 104.810 23.357,104.000 23.842,104.000 24.057 C 104.000 24.271,103.832 24.344,103.628 24.217 C 103.423 24.091,103.145 24.165,103.011 24.383 C 102.876 24.600,102.099 25.089,101.283 25.468 C 100.467 25.848,99.704 26.296,99.586 26.464 C 99.468 26.632,98.721 27.041,97.926 27.373 C 97.130 27.706,96.237 28.208,95.940 28.490 C 95.643 28.771,94.725 29.357,93.900 29.792 C 93.075 30.226,92.400 30.701,92.400 30.847 C 92.400 30.993,91.590 31.493,90.600 31.958 C 89.610 32.423,88.798 32.938,88.795 33.102 C 88.793 33.266,88.073 33.744,87.195 34.164 C 86.318 34.585,85.600 35.076,85.600 35.256 C 85.600 35.436,84.902 35.940,84.049 36.375 C 83.196 36.810,82.392 37.444,82.262 37.783 C 82.132 38.122,81.760 38.400,81.435 38.400 C 81.111 38.400,80.610 38.727,80.323 39.126 C 80.035 39.526,79.530 39.983,79.200 40.142 C 78.038 40.702,76.976 41.408,76.104 42.200 C 75.620 42.640,74.669 43.450,73.991 44.000 C 73.313 44.550,72.324 45.390,71.794 45.867 C 71.264 46.344,70.493 46.974,70.082 47.267 C 66.235 50.009,50.009 66.235,47.267 70.082 C 46.974 70.493,46.344 71.264,45.867 71.794 C 45.390 72.324,44.550 73.313,44.000 73.991 C 43.450 74.669,42.640 75.620,42.200 76.104 C 41.408 76.976,40.702 78.038,40.142 79.200 C 39.983 79.530,39.526 80.035,39.126 80.323 C 38.727 80.610,38.400 81.111,38.400 81.435 C 38.400 81.760,38.122 82.132,37.783 82.262 C 37.444 82.392,36.810 83.196,36.375 84.049 C 35.940 84.902,35.436 85.600,35.256 85.600 C 35.076 85.600,34.585 86.318,34.164 87.195 C 33.744 88.073,33.266 88.793,33.102 88.795 C 32.938 88.798,32.423 89.610,31.958 90.600 C 31.493 91.590,30.993 92.400,30.847 92.400 C 30.701 92.400,30.226 93.075,29.792 93.900 C 29.357 94.725,28.771 95.643,28.490 95.940 C 28.208 96.237,27.706 97.130,27.373 97.926 C 27.041 98.721,26.617 99.468,26.432 99.586 C 26.086 99.806,25.244 101.338,23.348 105.200 C 22.754 106.410,22.146 107.490,21.997 107.600 C 21.849 107.710,21.404 108.655,21.009 109.700 C 20.614 110.745,20.158 111.600,19.994 111.600 C 19.831 111.600,19.294 112.680,18.800 114.000 C 18.306 115.320,17.744 116.400,17.551 116.400 C 17.358 116.400,17.200 116.678,17.200 117.018 C 17.200 117.359,16.598 118.934,15.863 120.518 C 15.128 122.103,14.278 124.255,13.976 125.300 C 13.673 126.345,13.308 127.200,13.165 127.200 C 13.021 127.200,12.672 128.055,12.389 129.100 C 12.106 130.145,11.569 131.630,11.195 132.400 C 10.822 133.170,10.186 135.060,9.783 136.600 C 9.379 138.140,8.915 139.493,8.750 139.608 C 8.586 139.722,8.156 141.162,7.795 142.808 C 7.435 144.453,6.897 146.340,6.600 147.000 C 6.303 147.660,5.739 149.910,5.347 152.000 C 4.954 154.090,4.511 155.890,4.361 156.000 C 4.212 156.110,3.788 158.180,3.419 160.600 C 3.049 163.020,2.498 165.990,2.194 167.200 C -0.595 178.294,-0.595 221.706,2.194 232.800 C 2.498 234.010,3.049 236.980,3.419 239.400 C 3.788 241.820,4.212 243.890,4.361 244.000 C 4.511 244.110,4.954 245.910,5.347 248.000 C 5.739 250.090,6.303 252.340,6.600 253.000 C 6.897 253.660,7.435 255.547,7.795 257.192 C 8.156 258.838,8.586 260.278,8.750 260.392 C 8.915 260.507,9.379 261.860,9.783 263.400 C 10.186 264.940,10.822 266.830,11.195 267.600 C 11.569 268.370,12.106 269.855,12.389 270.900 C 12.672 271.945,13.021 272.800,13.165 272.800 C 13.308 272.800,13.673 273.655,13.976 274.700 C 14.278 275.745,15.128 277.897,15.863 279.482 C 16.598 281.066,17.200 282.641,17.200 282.982 C 17.200 283.322,17.358 283.600,17.551 283.600 C 17.744 283.600,18.306 284.680,18.800 286.000 C 19.294 287.320,19.831 288.400,19.994 288.400 C 20.158 288.400,20.614 289.255,21.009 290.300 C 21.404 291.345,21.849 292.290,21.997 292.400 C 22.146 292.510,22.754 293.590,23.348 294.800 C 25.244 298.662,26.086 300.194,26.432 300.414 C 26.617 300.532,27.041 301.279,27.373 302.074 C 27.706 302.870,28.208 303.767,28.489 304.067 C 28.770 304.368,29.346 305.241,29.770 306.007 C 30.193 306.773,30.664 307.490,30.816 307.600 C 30.968 307.710,31.480 308.565,31.954 309.500 C 32.428 310.435,32.948 311.202,33.108 311.205 C 33.269 311.207,33.744 311.927,34.164 312.805 C 34.585 313.682,35.076 314.400,35.256 314.400 C 35.436 314.400,35.940 315.098,36.375 315.951 C 36.810 316.804,37.444 317.608,37.783 317.738 C 38.122 317.868,38.400 318.240,38.400 318.565 C 38.400 318.889,38.727 319.390,39.126 319.677 C 39.526 319.965,39.983 320.470,40.142 320.800 C 40.702 321.962,41.408 323.024,42.200 323.896 C 42.640 324.380,43.450 325.331,44.000 326.009 C 44.550 326.687,45.390 327.676,45.867 328.206 C 46.344 328.736,46.974 329.507,47.267 329.918 C 50.009 333.765,66.235 349.991,70.082 352.733 C 70.493 353.026,71.264 353.656,71.794 354.133 C 72.324 354.610,73.313 355.450,73.991 356.000 C 74.669 356.550,75.620 357.360,76.104 357.800 C 76.976 358.592,78.038 359.298,79.200 359.858 C 79.530 360.017,80.035 360.474,80.323 360.874 C 80.610 361.273,81.111 361.600,81.435 361.600 C 81.760 361.600,82.132 361.878,82.262 362.217 C 82.392 362.556,83.196 363.190,84.049 363.625 C 84.902 364.060,85.600 364.564,85.600 364.744 C 85.600 364.924,86.318 365.415,87.195 365.836 C 88.073 366.256,88.793 366.731,88.795 366.892 C 88.798 367.052,89.565 367.572,90.500 368.046 C 91.435 368.520,92.290 369.032,92.400 369.184 C 92.510 369.336,93.227 369.807,93.993 370.230 C 94.759 370.654,95.632 371.230,95.933 371.511 C 96.233 371.792,97.130 372.294,97.926 372.627 C 98.721 372.959,99.468 373.383,99.586 373.568 C 99.806 373.914,101.338 374.756,105.200 376.652 C 106.410 377.246,107.490 377.854,107.600 378.003 C 107.710 378.151,108.655 378.596,109.700 378.991 C 110.745 379.386,111.600 379.842,111.600 380.006 C 111.600 380.169,112.680 380.706,114.000 381.200 C 115.320 381.694,116.400 382.256,116.400 382.449 C 116.400 382.642,116.678 382.800,117.018 382.800 C 117.359 382.800,118.934 383.402,120.518 384.137 C 122.103 384.872,124.255 385.722,125.300 386.024 C 126.345 386.327,127.200 386.692,127.200 386.835 C 127.200 386.979,128.055 387.328,129.100 387.611 C 130.145 387.894,131.630 388.431,132.400 388.805 C 133.170 389.178,135.060 389.814,136.600 390.217 C 138.140 390.621,139.493 391.085,139.608 391.250 C 139.722 391.414,141.162 391.844,142.808 392.205 C 144.453 392.565,146.340 393.103,147.000 393.400 C 147.660 393.697,149.910 394.261,152.000 394.653 C 154.090 395.046,155.890 395.489,156.000 395.639 C 156.110 395.788,158.180 396.212,160.600 396.581 C 163.020 396.951,165.990 397.502,167.200 397.806 C 178.294 400.595,221.706 400.595,232.800 397.806 C 234.010 397.502,236.980 396.951,239.400 396.581 C 241.820 396.212,243.890 395.788,244.000 395.639 C 244.110 395.489,245.910 395.046,248.000 394.653 C 250.090 394.261,252.340 393.697,253.000 393.400 C 253.660 393.103,255.547 392.565,257.192 392.205 C 258.838 391.844,260.278 391.414,260.392 391.250 C 260.507 391.085,261.860 390.621,263.400 390.217 C 264.940 389.814,266.830 389.178,267.600 388.805 C 268.370 388.431,269.855 387.894,270.900 387.611 C 271.945 387.328,272.800 386.979,272.800 386.835 C 272.800 386.692,273.655 386.327,274.700 386.024 C 275.745 385.722,277.897 384.872,279.482 384.137 C 281.066 383.402,282.641 382.800,282.982 382.800 C 283.322 382.800,283.600 382.642,283.600 382.449 C 283.600 382.256,284.680 381.694,286.000 381.200 C 287.320 380.706,288.400 380.169,288.400 380.006 C 288.400 379.842,289.255 379.386,290.300 378.991 C 291.345 378.596,292.290 378.151,292.400 378.003 C 292.510 377.854,293.590 377.246,294.800 376.652 C 298.662 374.756,300.194 373.914,300.414 373.568 C 300.532 373.383,301.279 372.959,302.074 372.627 C 302.870 372.294,303.767 371.792,304.067 371.511 C 304.368 371.230,305.241 370.654,306.007 370.230 C 306.773 369.807,307.490 369.336,307.600 369.184 C 307.710 369.032,308.565 368.520,309.500 368.046 C 310.435 367.572,311.202 367.052,311.205 366.892 C 311.207 366.731,311.927 366.256,312.805 365.836 C 313.682 365.415,314.400 364.924,314.400 364.744 C 314.400 364.564,315.098 364.060,315.951 363.625 C 316.804 363.190,317.608 362.556,317.738 362.217 C 317.868 361.878,318.240 361.600,318.565 361.600 C 318.889 361.600,319.390 361.273,319.677 360.874 C 319.965 360.474,320.470 360.017,320.800 359.858 C 321.962 359.298,323.024 358.592,323.896 357.800 C 324.380 357.360,325.331 356.550,326.009 356.000 C 326.687 355.450,327.676 354.610,328.206 354.133 C 328.736 353.656,329.507 353.026,329.918 352.733 C 333.765 349.991,349.991 333.765,352.733 329.918 C 353.026 329.507,353.656 328.736,354.133 328.206 C 354.610 327.676,355.450 326.687,356.000 326.009 C 356.550 325.331,357.360 324.380,357.800 323.896 C 358.592 323.024,359.298 321.962,359.858 320.800 C 360.017 320.470,360.474 319.965,360.874 319.677 C 361.273 319.390,361.600 318.889,361.600 318.565 C 361.600 318.240,361.878 317.868,362.217 317.738 C 362.556 317.608,363.190 316.804,363.625 315.951 C 364.060 315.098,364.564 314.400,364.744 314.400 C 364.924 314.400,365.415 313.682,365.836 312.805 C 366.256 311.927,366.731 311.207,366.892 311.205 C 367.052 311.202,367.572 310.435,368.046 309.500 C 368.520 308.565,369.032 307.710,369.184 307.600 C 369.336 307.490,369.807 306.773,370.230 306.007 C 370.654 305.241,371.230 304.368,371.511 304.067 C 371.792 303.767,372.294 302.870,372.627 302.074 C 372.959 301.279,373.383 300.532,373.568 300.414 C 373.914 300.194,374.756 298.662,376.652 294.800 C 377.246 293.590,377.854 292.510,378.003 292.400 C 378.151 292.290,378.596 291.345,378.991 290.300 C 379.386 289.255,379.842 288.400,380.006 288.400 C 380.169 288.400,380.706 287.320,381.200 286.000 C 381.694 284.680,382.256 283.600,382.449 283.600 C 382.642 283.600,382.800 283.322,382.800 282.982 C 382.800 282.641,383.402 281.066,384.137 279.482 C 384.872 277.897,385.722 275.745,386.024 274.700 C 386.327 273.655,386.692 272.800,386.835 272.800 C 386.979 272.800,387.328 271.945,387.611 270.900 C 387.894 269.855,388.431 268.370,388.805 267.600 C 389.178 266.830,389.814 264.940,390.217 263.400 C 390.621 261.860,391.085 260.507,391.250 260.392 C 391.414 260.278,391.844 258.838,392.205 257.192 C 392.565 255.547,393.103 253.660,393.400 253.000 C 393.697 252.340,394.261 250.090,394.653 248.000 C 395.046 245.910,395.489 244.110,395.639 244.000 C 395.788 243.890,396.212 241.820,396.581 239.400 C 396.951 236.980,397.502 234.010,397.806 232.800 C 399.240 227.097,399.800 217.882,399.800 200.000 C 399.800 182.118,399.240 172.903,397.806 167.200 C 397.502 165.990,396.951 163.020,396.581 160.600 C 396.212 158.180,395.788 156.110,395.639 156.000 C 395.489 155.890,395.046 154.090,394.653 152.000 C 394.261 149.910,393.697 147.660,393.400 147.000 C 393.103 146.340,392.565 144.453,392.205 142.808 C 391.844 141.162,391.414 139.722,391.250 139.608 C 391.085 139.493,390.621 138.140,390.217 136.600 C 389.814 135.060,389.178 133.170,388.805 132.400 C 388.431 131.630,387.894 130.145,387.611 129.100 C 387.328 128.055,386.979 127.200,386.835 127.200 C 386.692 127.200,386.327 126.345,386.024 125.300 C 385.722 124.255,384.872 122.103,384.137 120.518 C 383.402 118.934,382.800 117.359,382.800 117.018 C 382.800 116.678,382.642 116.400,382.449 116.400 C 382.256 116.400,381.694 115.320,381.200 114.000 C 380.706 112.680,380.169 111.600,380.006 111.600 C 379.842 111.600,379.386 110.745,378.991 109.700 C 378.596 108.655,378.151 107.710,378.003 107.600 C 377.854 107.490,377.246 106.410,376.652 105.200 C 374.756 101.338,373.914 99.806,373.568 99.586 C 373.383 99.468,372.959 98.721,372.627 97.926 C 372.294 97.130,371.792 96.237,371.510 95.940 C 371.229 95.643,370.643 94.725,370.208 93.900 C 369.774 93.075,369.299 92.400,369.153 92.400 C 369.007 92.400,368.507 91.590,368.042 90.600 C 367.577 89.610,367.062 88.798,366.898 88.795 C 366.734 88.793,366.256 88.073,365.836 87.195 C 365.415 86.318,364.924 85.600,364.744 85.600 C 364.564 85.600,364.060 84.902,363.625 84.049 C 363.190 83.196,362.556 82.392,362.217 82.262 C 361.878 82.132,361.600 81.760,361.600 81.435 C 361.600 81.111,361.273 80.610,360.874 80.323 C 360.474 80.035,360.017 79.530,359.858 79.200 C 359.298 78.038,358.592 76.976,357.800 76.104 C 357.360 75.620,356.550 74.669,356.000 73.991 C 355.450 73.313,354.610 72.324,354.133 71.794 C 353.656 71.264,353.026 70.493,352.733 70.082 C 350.304 66.674,335.021 51.200,334.084 51.200 C 333.744 51.200,333.574 51.093,333.704 50.962 C 333.920 50.746,331.969 48.923,328.478 46.077 C 325.405 43.572,324.675 42.959,323.867 42.200 C 323.030 41.414,321.987 40.715,320.800 40.142 C 320.470 39.983,319.965 39.526,319.677 39.126 C 319.390 38.727,318.889 38.400,318.565 38.400 C 318.240 38.400,317.868 38.122,317.738 37.783 C 317.608 37.444,316.804 36.810,315.951 36.375 C 315.098 35.940,314.400 35.436,314.400 35.256 C 314.400 35.076,313.682 34.585,312.805 34.164 C 311.927 33.744,311.207 33.281,311.205 33.136 C 311.202 32.990,310.390 32.479,309.400 32.000 C 308.410 31.521,307.600 31.006,307.600 30.855 C 307.600 30.705,306.925 30.226,306.100 29.792 C 305.275 29.357,304.357 28.771,304.060 28.490 C 303.763 28.208,302.870 27.706,302.074 27.373 C 301.279 27.041,300.532 26.632,300.414 26.464 C 300.296 26.296,299.533 25.848,298.717 25.468 C 297.901 25.089,297.124 24.600,296.989 24.383 C 296.855 24.165,296.577 24.091,296.372 24.217 C 296.168 24.344,296.000 24.271,296.000 24.057 C 296.000 23.842,295.190 23.357,294.200 22.979 C 293.210 22.601,292.400 22.171,292.400 22.025 C 292.400 21.878,291.500 21.434,290.400 21.039 C 289.300 20.643,288.400 20.180,288.400 20.009 C 288.400 19.838,287.320 19.294,286.000 18.800 C 284.680 18.306,283.600 17.744,283.600 17.551 C 283.600 17.358,283.271 17.200,282.868 17.200 C 282.465 17.200,281.264 16.759,280.198 16.219 C 279.133 15.680,278.112 15.331,277.931 15.443 C 277.749 15.555,277.600 15.473,277.600 15.261 C 277.600 15.048,276.565 14.554,275.300 14.162 C 274.035 13.770,272.910 13.323,272.800 13.169 C 272.690 13.014,271.678 12.614,270.551 12.280 C 269.424 11.947,267.984 11.413,267.351 11.094 C 266.718 10.776,264.940 10.186,263.400 9.782 C 261.860 9.379,260.507 8.915,260.392 8.750 C 260.278 8.586,258.838 8.156,257.192 7.795 C 255.547 7.435,253.660 6.898,253.000 6.604 C 252.340 6.309,250.090 5.758,248.000 5.379 C 245.910 5.000,244.110 4.580,244.000 4.445 C 243.743 4.130,243.330 4.040,239.000 3.359 C 237.020 3.047,234.230 2.523,232.800 2.194 C 226.055 0.643,195.280 -0.588,184.200 0.250 M252.042 81.873 L 259.596 89.345 259.698 124.373 L 259.800 159.400 274.300 159.505 L 288.800 159.610 288.800 171.214 L 288.800 182.817 281.100 182.709 L 273.400 182.600 273.288 177.300 L 273.177 172.000 266.388 172.000 L 259.600 172.000 259.600 198.976 C 259.600 215.617,259.454 226.043,259.219 226.188 C 258.883 226.396,207.447 175.077,173.836 141.000 C 167.109 134.180,159.075 126.035,155.983 122.900 C 152.890 119.765,150.187 117.200,149.976 117.200 C 149.474 117.200,143.282 123.117,142.671 124.181 C 142.317 124.796,142.150 141.183,142.000 189.898 L 141.800 254.796 136.898 259.698 L 131.996 264.600 129.298 264.600 L 126.600 264.600 126.600 191.777 L 126.600 118.953 127.735 117.577 C 129.921 114.927,142.506 102.435,144.111 101.323 C 146.195 99.879,151.998 99.669,154.400 100.950 C 159.604 103.727,157.690 101.884,204.183 148.901 C 216.933 161.795,227.536 172.240,227.745 172.111 C 227.953 171.982,228.017 172.049,227.887 172.260 C 227.756 172.471,231.239 176.294,235.625 180.756 L 243.600 188.868 243.600 131.634 C 243.600 89.977,243.721 74.400,244.044 74.400 C 244.288 74.400,247.887 77.763,252.042 81.873 M288.830 77.710 C 288.813 77.870,288.798 88.035,288.795 100.300 L 288.790 122.600 285.140 126.617 L 281.490 130.635 278.376 127.417 C 276.664 125.648,274.844 123.664,274.331 123.010 L 273.400 121.820 273.436 106.610 C 273.473 91.115,273.514 89.986,274.024 90.122 C 274.184 90.165,276.991 87.590,280.262 84.400 C 287.067 77.765,288.979 76.272,288.830 77.710 M216.400 83.200 L 216.400 88.400 206.600 88.400 C 201.210 88.400,196.665 88.401,196.500 88.401 C 196.335 88.402,196.150 86.062,196.088 83.201 L 195.977 78.000 206.188 78.000 L 216.400 78.000 216.400 83.200 M133.326 84.850 C 137.760 87.135,137.539 93.288,132.960 95.037 C 129.218 96.466,125.933 93.997,125.933 89.757 C 125.933 85.729,129.910 83.090,133.326 84.850 M164.200 146.633 C 200.085 183.647,258.056 241.686,260.220 242.767 C 263.963 244.636,267.401 243.600,271.294 239.429 L 273.188 237.400 273.194 227.328 L 273.200 217.256 276.700 213.365 C 281.663 207.848,281.019 207.923,285.230 212.380 L 288.800 216.159 288.800 229.551 L 288.800 242.942 281.900 249.800 C 270.117 261.509,265.416 262.556,252.200 256.411 C 248.572 254.724,247.480 253.672,194.899 201.232 C 180.764 187.134,169.109 175.600,168.999 175.600 C 168.890 175.600,168.800 198.370,168.800 226.200 C 168.800 268.899,168.714 276.800,168.249 276.800 C 167.946 276.800,164.431 273.605,160.438 269.700 L 153.177 262.600 153.188 199.286 C 153.199 139.111,153.235 135.991,153.900 136.352 C 154.285 136.561,158.920 141.187,164.200 146.633 M105.800 176.600 L 105.800 194.200 100.100 194.311 C 94.402 194.422,94.400 194.422,94.403 193.511 C 94.405 193.010,94.360 185.085,94.303 175.900 C 94.236 165.050,94.340 159.139,94.600 159.026 C 94.820 158.930,97.430 158.885,100.400 158.926 L 105.800 159.000 105.800 176.600 M323.400 181.000 L 323.400 191.000 317.700 191.111 L 312.000 191.222 312.000 181.000 L 312.000 170.778 317.700 170.889 L 323.400 171.000 323.400 181.000 M288.631 265.353 C 290.598 266.269,290.888 266.638,291.766 269.343 C 293.207 273.775,286.029 277.600,282.835 274.103 C 280.125 271.135,281.073 266.566,284.736 264.938 C 286.221 264.278,286.351 264.292,288.631 265.353 M215.737 265.549 C 216.283 266.001,216.400 266.899,216.400 270.656 L 216.400 275.214 206.300 275.107 L 196.200 275.000 196.088 270.125 L 195.976 265.250 197.488 265.125 C 202.243 264.732,215.112 265.031,215.737 265.549 M144.002 287.756 C 148.872 289.434,150.176 291.001,148.449 293.099 C 144.628 297.742,144.660 297.714,143.967 296.859 C 141.434 293.731,135.531 294.555,133.481 298.323 C 129.531 305.580,136.880 312.960,143.439 308.322 L 145.477 306.880 147.939 309.462 C 150.816 312.479,150.767 312.293,149.100 313.884 C 139.471 323.080,124.600 316.230,124.600 302.600 C 124.600 291.172,133.702 284.207,144.002 287.756 M183.273 287.858 C 190.483 290.121,194.879 299.439,192.400 307.201 C 187.042 323.973,164.200 320.246,164.200 302.600 C 164.200 291.265,172.842 284.585,183.273 287.858 M236.000 287.626 C 250.353 289.944,252.732 309.851,239.400 316.076 C 236.625 317.371,236.537 317.384,229.500 317.536 L 222.400 317.689 222.400 302.711 C 222.400 294.473,222.520 287.613,222.667 287.467 C 223.090 287.043,233.135 287.163,236.000 287.626 M291.200 291.000 L 291.200 294.800 285.000 294.800 C 281.590 294.800,278.777 294.935,278.748 295.100 C 278.720 295.265,278.646 296.160,278.584 297.088 L 278.472 298.776 283.336 298.888 L 288.200 299.000 288.316 302.500 L 288.431 306.000 283.616 306.000 L 278.800 306.000 278.800 307.990 L 278.800 309.980 285.100 310.090 L 291.400 310.200 291.414 313.400 C 291.422 315.160,291.357 316.825,291.271 317.100 C 291.151 317.483,288.733 317.600,280.957 317.600 L 270.800 317.600 270.800 302.667 C 270.800 294.453,270.920 287.613,271.067 287.467 C 271.213 287.320,275.803 287.200,281.267 287.200 L 291.200 287.200 291.200 291.000 M175.514 295.799 C 172.545 297.473,171.359 302.493,173.099 306.024 C 176.921 313.781,186.742 308.411,184.369 299.862 C 183.315 296.066,178.753 293.973,175.514 295.799 M230.800 302.400 L 230.800 309.600 232.940 309.600 C 237.978 309.600,241.128 304.801,239.435 299.705 C 238.403 296.598,236.338 295.200,232.781 295.200 L 230.800 295.200 230.800 302.400 " stroke="none" fill="#000000" fill-rule="evenodd"></path><path id="path2" d="M210.500 78.294 C 211.545 78.376,213.255 78.376,214.300 78.294 C 215.345 78.212,214.490 78.144,212.400 78.144 C 210.310 78.144,209.455 78.212,210.500 78.294 M216.153 83.400 C 216.153 86.040,216.218 87.068,216.297 85.684 C 216.375 84.301,216.374 82.141,216.295 80.884 C 216.216 79.628,216.152 80.760,216.153 83.400 M284.975 80.100 L 283.800 81.400 285.100 80.225 C 285.815 79.579,286.400 78.994,286.400 78.925 C 286.400 78.616,286.070 78.888,284.975 80.100 M259.385 109.200 C 259.385 119.870,259.437 124.235,259.500 118.900 C 259.563 113.565,259.563 104.835,259.500 99.500 C 259.437 94.165,259.385 98.530,259.385 109.200 M176.200 121.200 C 178.612 123.620,180.676 125.600,180.786 125.600 C 180.896 125.600,179.012 123.620,176.600 121.200 C 174.188 118.780,172.124 116.800,172.014 116.800 C 171.904 116.800,173.788 118.780,176.200 121.200 M126.596 192.000 C 126.596 231.270,126.643 247.335,126.700 227.700 C 126.757 208.065,126.757 175.935,126.700 156.300 C 126.643 136.665,126.596 152.730,126.596 192.000 M144.175 122.100 L 143.000 123.400 144.300 122.225 C 145.512 121.130,145.784 120.800,145.475 120.800 C 145.406 120.800,144.821 121.385,144.175 122.100 M283.375 128.100 L 282.200 129.400 283.500 128.225 C 284.215 127.579,284.800 126.994,284.800 126.925 C 284.800 126.616,284.470 126.888,283.375 128.100 M179.800 146.800 C 180.659 147.680,181.452 148.400,181.562 148.400 C 181.672 148.400,181.059 147.680,180.200 146.800 C 179.341 145.920,178.548 145.200,178.438 145.200 C 178.328 145.200,178.941 145.920,179.800 146.800 M214.800 160.200 C 217.543 162.950,219.878 165.200,219.988 165.200 C 220.098 165.200,217.943 162.950,215.200 160.200 C 212.457 157.450,210.122 155.200,210.012 155.200 C 209.902 155.200,212.057 157.450,214.800 160.200 M288.528 162.400 C 288.528 163.830,288.601 164.415,288.689 163.700 C 288.778 162.985,288.778 161.815,288.689 161.100 C 288.601 160.385,288.528 160.970,288.528 162.400 M94.583 177.000 C 94.583 186.240,94.636 189.963,94.700 185.273 C 94.764 180.583,94.764 173.023,94.699 168.473 C 94.635 163.923,94.583 167.760,94.583 177.000 M105.773 171.200 C 105.773 176.590,105.830 178.795,105.899 176.100 C 105.968 173.405,105.968 168.995,105.899 166.300 C 105.830 163.605,105.773 165.810,105.773 171.200 M184.000 167.400 C 186.743 170.150,189.078 172.400,189.188 172.400 C 189.298 172.400,187.143 170.150,184.400 167.400 C 181.657 164.650,179.322 162.400,179.212 162.400 C 179.102 162.400,181.257 164.650,184.000 167.400 M315.500 171.095 C 316.655 171.176,318.545 171.176,319.700 171.095 C 320.855 171.014,319.910 170.948,317.600 170.948 C 315.290 170.948,314.345 171.014,315.500 171.095 M168.494 187.700 L 168.588 200.600 168.700 187.880 C 168.782 178.482,168.930 175.233,169.267 175.442 C 169.548 175.615,169.614 175.546,169.438 175.262 C 168.545 173.817,168.406 175.647,168.494 187.700 M240.383 186.100 C 241.364 187.145,242.219 188.000,242.283 188.000 C 242.584 188.000,242.266 187.641,240.500 185.983 L 238.600 184.200 240.383 186.100 M319.300 191.076 C 319.685 191.176,320.315 191.176,320.700 191.076 C 321.085 190.975,320.770 190.893,320.000 190.893 C 319.230 190.893,318.915 190.975,319.300 191.076 M188.000 194.200 C 188.746 194.970,189.447 195.600,189.557 195.600 C 189.667 195.600,189.146 194.970,188.400 194.200 C 187.654 193.430,186.953 192.800,186.843 192.800 C 186.733 192.800,187.254 193.430,188.000 194.200 M95.700 194.287 C 96.305 194.378,97.295 194.378,97.900 194.287 C 98.505 194.195,98.010 194.120,96.800 194.120 C 95.590 194.120,95.095 194.195,95.700 194.287 M213.583 197.300 C 215.241 199.066,215.600 199.384,215.600 199.083 C 215.600 199.019,214.745 198.164,213.700 197.183 L 211.800 195.400 213.583 197.300 M194.800 200.925 C 194.800 200.994,195.385 201.579,196.100 202.225 L 197.400 203.400 196.225 202.100 C 195.130 200.888,194.800 200.616,194.800 200.925 M168.586 221.200 C 168.586 232.310,168.637 236.855,168.700 231.300 C 168.762 225.745,168.762 216.655,168.700 211.100 C 168.637 205.545,168.586 210.090,168.586 221.200 M240.800 208.200 C 241.546 208.970,242.247 209.600,242.357 209.600 C 242.467 209.600,241.946 208.970,241.200 208.200 C 240.454 207.430,239.753 206.800,239.643 206.800 C 239.533 206.800,240.054 207.430,240.800 208.200 M205.800 212.000 C 207.992 214.200,209.875 216.000,209.985 216.000 C 210.095 216.000,208.392 214.200,206.200 212.000 C 204.008 209.800,202.125 208.000,202.015 208.000 C 201.905 208.000,203.608 209.800,205.800 212.000 M252.000 219.400 C 253.195 220.610,254.263 221.600,254.373 221.600 C 254.483 221.600,253.595 220.610,252.400 219.400 C 251.205 218.190,250.137 217.200,250.027 217.200 C 249.917 217.200,250.805 218.190,252.000 219.400 M259.344 221.200 C 259.344 223.290,259.412 224.145,259.494 223.100 C 259.576 222.055,259.576 220.345,259.494 219.300 C 259.412 218.255,259.344 219.110,259.344 221.200 M212.000 218.125 C 212.000 218.194,212.585 218.779,213.300 219.425 L 214.600 220.600 213.425 219.300 C 212.330 218.088,212.000 217.816,212.000 218.125 M168.400 261.880 C 168.290 270.064,168.337 276.623,168.505 276.455 C 168.673 276.287,168.763 269.591,168.705 261.575 L 168.599 247.000 168.400 261.880 M216.032 273.893 L 216.000 274.786 206.100 274.900 L 196.200 275.015 206.113 275.107 C 216.450 275.204,216.919 275.130,216.269 273.513 C 216.156 273.231,216.049 273.402,216.032 273.893 M229.700 287.476 C 230.085 287.576,230.715 287.576,231.100 287.476 C 231.485 287.375,231.170 287.293,230.400 287.293 C 229.630 287.293,229.315 287.375,229.700 287.476 M283.317 287.497 C 284.811 287.574,287.151 287.574,288.517 287.496 C 289.882 287.418,288.660 287.355,285.800 287.355 C 282.940 287.356,281.822 287.420,283.317 287.497 M270.981 302.400 C 270.981 310.650,271.034 314.025,271.099 309.900 C 271.164 305.775,271.164 299.025,271.099 294.900 C 271.034 290.775,270.981 294.150,270.981 302.400 M282.300 294.697 C 283.895 294.773,286.505 294.773,288.100 294.697 C 289.695 294.621,288.390 294.559,285.200 294.559 C 282.010 294.559,280.705 294.621,282.300 294.697 M281.315 299.096 C 282.588 299.176,284.568 299.175,285.715 299.094 C 286.862 299.014,285.820 298.949,283.400 298.950 C 280.980 298.951,280.042 299.016,281.315 299.096 M240.093 302.400 C 240.093 303.170,240.175 303.485,240.276 303.100 C 240.376 302.715,240.376 302.085,240.276 301.700 C 240.175 301.315,240.093 301.630,240.093 302.400 M280.716 305.897 C 282.099 305.975,284.259 305.974,285.516 305.895 C 286.772 305.816,285.640 305.752,283.000 305.753 C 280.360 305.753,279.332 305.818,280.716 305.897 M226.700 317.495 C 227.855 317.576,229.745 317.576,230.900 317.495 C 232.055 317.414,231.110 317.348,228.800 317.348 C 226.490 317.348,225.545 317.414,226.700 317.495 M278.100 317.498 C 280.465 317.569,284.335 317.569,286.700 317.498 C 289.065 317.428,287.130 317.370,282.400 317.370 C 277.670 317.370,275.735 317.428,278.100 317.498 " stroke="none" fill="#5f6265" fill-rule="evenodd"></path><path id="path3" d="M243.740 117.600 C 243.740 119.470,243.809 120.235,243.893 119.300 C 243.977 118.365,243.977 116.835,243.893 115.900 C 243.809 114.965,243.740 115.730,243.740 117.600 M243.734 154.400 C 243.734 156.050,243.805 156.725,243.891 155.900 C 243.978 155.075,243.978 153.725,243.891 152.900 C 243.805 152.075,243.734 152.750,243.734 154.400 M243.714 182.600 C 243.717 183.700,243.795 184.103,243.887 183.495 C 243.979 182.886,243.977 181.986,243.882 181.495 C 243.787 181.003,243.711 181.500,243.714 182.600 " stroke="none" fill="#828c8d" fill-rule="evenodd"></path><path id="path4" d="M243.682 84.500 C 243.764 94.171,243.901 93.049,244.097 81.099 C 244.154 77.634,244.065 74.799,243.900 74.799 C 243.735 74.800,243.637 79.165,243.682 84.500 M288.400 99.920 L 288.600 122.200 288.703 100.223 C 288.760 88.136,288.670 78.110,288.503 77.943 C 288.337 77.776,288.290 87.666,288.400 99.920 M199.300 78.276 C 199.685 78.376,200.315 78.376,200.700 78.276 C 201.085 78.175,200.770 78.093,200.000 78.093 C 199.230 78.093,198.915 78.175,199.300 78.276 M253.800 84.400 C 256.654 87.260,259.078 89.600,259.188 89.600 C 259.298 89.600,257.054 87.260,254.200 84.400 C 251.346 81.540,248.922 79.200,248.812 79.200 C 248.702 79.200,250.946 81.540,253.800 84.400 M281.186 83.900 L 279.000 86.200 281.300 84.014 C 283.437 81.982,283.783 81.600,283.486 81.600 C 283.424 81.600,282.389 82.635,281.186 83.900 M130.105 85.087 C 130.714 85.179,131.614 85.177,132.105 85.082 C 132.597 84.987,132.100 84.911,131.000 84.914 C 129.900 84.917,129.497 84.995,130.105 85.087 M206.691 88.289 C 207.401 88.377,208.661 88.379,209.491 88.292 C 210.321 88.205,209.740 88.133,208.200 88.131 C 206.660 88.129,205.981 88.200,206.691 88.289 M273.781 106.600 C 273.780 114.520,273.834 117.817,273.899 113.926 C 273.965 110.035,273.965 103.555,273.900 99.526 C 273.834 95.497,273.781 98.680,273.781 106.600 M243.774 104.400 C 243.774 110.010,243.830 112.305,243.899 109.500 C 243.968 106.695,243.968 102.105,243.899 99.300 C 243.830 96.495,243.774 98.790,243.774 104.400 M145.785 120.100 L 143.800 122.200 145.900 120.215 C 147.055 119.123,148.000 118.178,148.000 118.115 C 148.000 117.817,147.629 118.149,145.785 120.100 M153.983 120.500 C 155.641 122.266,156.000 122.584,156.000 122.283 C 156.000 122.219,155.145 121.364,154.100 120.383 L 152.200 118.600 153.983 120.500 M126.901 120.600 C 126.905 121.480,126.987 121.793,127.083 121.295 C 127.179 120.798,127.175 120.078,127.075 119.695 C 126.975 119.313,126.896 119.720,126.901 120.600 M243.782 136.200 C 243.782 144.780,243.835 148.233,243.900 143.874 C 243.964 139.514,243.964 132.494,243.899 128.274 C 243.835 124.053,243.782 127.620,243.782 136.200 M158.600 125.200 C 159.906 126.520,161.065 127.600,161.175 127.600 C 161.285 127.600,160.306 126.520,159.000 125.200 C 157.694 123.880,156.535 122.800,156.425 122.800 C 156.315 122.800,157.294 123.880,158.600 125.200 M278.000 126.600 C 279.417 128.030,280.667 129.200,280.777 129.200 C 280.887 129.200,279.817 128.030,278.400 126.600 C 276.983 125.170,275.733 124.000,275.623 124.000 C 275.513 124.000,276.583 125.170,278.000 126.600 M196.400 141.800 C 201.126 146.530,205.083 150.400,205.193 150.400 C 205.303 150.400,201.526 146.530,196.800 141.800 C 192.074 137.070,188.117 133.200,188.007 133.200 C 187.897 133.200,191.674 137.070,196.400 141.800 M153.699 199.700 L 153.797 262.600 153.900 199.812 L 154.003 137.024 156.901 139.812 L 159.800 142.600 157.011 139.700 C 155.477 138.105,154.082 136.800,153.911 136.800 C 153.740 136.800,153.644 165.105,153.699 199.700 M169.194 152.500 C 172.161 155.525,174.636 158.000,174.694 158.000 C 174.981 158.000,174.409 157.406,169.300 152.394 L 163.800 147.000 169.194 152.500 M188.400 155.303 C 188.400 155.359,193.305 160.264,199.300 166.203 L 210.200 177.000 199.403 166.100 C 189.369 155.971,188.400 155.020,188.400 155.303 M243.777 169.000 C 243.777 175.600,243.832 178.356,243.899 175.125 C 243.966 171.893,243.966 166.493,243.899 163.125 C 243.832 159.756,243.777 162.400,243.777 169.000 M264.400 159.885 C 277.011 160.166,288.308 160.173,288.139 159.900 C 288.036 159.735,281.528 159.639,273.676 159.687 C 265.824 159.735,261.650 159.824,264.400 159.885 M186.400 170.200 C 189.805 173.610,192.680 176.400,192.790 176.400 C 192.900 176.400,190.205 173.610,186.800 170.200 C 183.395 166.790,180.520 164.000,180.410 164.000 C 180.300 164.000,182.995 166.790,186.400 170.200 M224.200 170.000 C 227.494 173.300,230.280 176.000,230.390 176.000 C 230.500 176.000,227.894 173.300,224.600 170.000 C 221.306 166.700,218.520 164.000,218.410 164.000 C 218.300 164.000,220.906 166.700,224.200 170.000 M262.480 171.498 C 264.394 171.571,267.634 171.571,269.680 171.498 C 271.726 171.426,270.160 171.366,266.200 171.365 C 262.240 171.365,260.566 171.424,262.480 171.498 M312.179 171.709 C 312.072 171.990,312.036 176.175,312.100 181.009 L 312.216 189.800 312.308 180.716 L 312.400 171.632 315.700 171.498 L 319.000 171.363 315.687 171.281 C 313.312 171.223,312.320 171.344,312.179 171.709 M321.584 171.424 C 322.759 171.647,322.770 171.673,322.908 174.724 L 323.048 177.800 323.024 174.600 L 323.000 171.400 321.700 171.300 C 320.448 171.204,320.443 171.208,321.584 171.424 M322.954 185.600 C 322.954 188.350,323.018 189.475,323.096 188.100 C 323.174 186.725,323.174 184.475,323.096 183.100 C 323.018 181.725,322.954 182.850,322.954 185.600 M231.200 215.400 C 237.687 221.890,243.085 227.200,243.195 227.200 C 243.305 227.200,238.087 221.890,231.600 215.400 C 225.113 208.910,219.715 203.600,219.605 203.600 C 219.495 203.600,224.713 208.910,231.200 215.400 M282.800 210.525 C 282.800 210.594,283.385 211.179,284.100 211.825 L 285.400 213.000 284.225 211.700 C 283.130 210.488,282.800 210.216,282.800 210.525 M221.800 227.600 C 227.957 233.760,233.085 238.800,233.195 238.800 C 233.305 238.800,228.357 233.760,222.200 227.600 C 216.043 221.440,210.915 216.400,210.805 216.400 C 210.695 216.400,215.643 221.440,221.800 227.600 M246.600 230.800 C 248.350 232.560,249.871 234.000,249.981 234.000 C 250.091 234.000,248.750 232.560,247.000 230.800 C 245.250 229.040,243.729 227.600,243.619 227.600 C 243.509 227.600,244.850 229.040,246.600 230.800 M273.751 232.000 C 273.751 234.530,273.816 235.565,273.896 234.300 C 273.975 233.035,273.975 230.965,273.896 229.700 C 273.816 228.435,273.751 229.470,273.751 232.000 M252.000 236.110 C 252.000 236.171,253.395 237.566,255.100 239.210 L 258.200 242.200 255.210 239.100 C 252.433 236.221,252.000 235.817,252.000 236.110 M285.381 245.700 L 283.800 247.400 285.500 245.819 C 286.435 244.949,287.200 244.184,287.200 244.119 C 287.200 243.816,286.852 244.119,285.381 245.700 M136.193 259.700 L 131.800 264.200 136.300 259.807 C 138.775 257.391,140.800 255.366,140.800 255.307 C 140.800 255.018,140.274 255.520,136.193 259.700 M126.927 263.400 C 126.997 264.097,127.315 264.205,129.404 264.236 L 131.800 264.272 129.526 264.117 C 127.818 264.000,127.201 263.792,127.049 263.281 C 126.900 262.782,126.868 262.814,126.927 263.400 M157.400 266.400 C 159.150 268.160,160.671 269.600,160.781 269.600 C 160.891 269.600,159.550 268.160,157.800 266.400 C 156.050 264.640,154.529 263.200,154.419 263.200 C 154.309 263.200,155.650 264.640,157.400 266.400 M200.923 265.499 C 203.520 265.569,207.660 265.568,210.123 265.498 C 212.585 265.428,210.460 265.371,205.400 265.372 C 200.340 265.372,198.325 265.429,200.923 265.499 M290.937 291.000 C 290.939 292.760,291.009 293.430,291.093 292.489 C 291.178 291.549,291.177 290.109,291.091 289.289 C 291.005 288.470,290.936 289.240,290.937 291.000 M168.575 291.300 L 167.400 292.600 168.700 291.425 C 169.912 290.330,170.184 290.000,169.875 290.000 C 169.806 290.000,169.221 290.585,168.575 291.300 M177.700 294.676 C 178.085 294.776,178.715 294.776,179.100 294.676 C 179.485 294.575,179.170 294.493,178.400 294.493 C 177.630 294.493,177.315 294.575,177.700 294.676 M230.177 294.917 C 230.068 295.201,230.033 298.216,230.100 301.617 L 230.222 307.800 230.311 301.322 L 230.400 294.844 232.300 294.694 L 234.200 294.544 232.287 294.472 C 231.037 294.425,230.306 294.579,230.177 294.917 M287.701 300.600 C 287.705 301.480,287.787 301.793,287.883 301.295 C 287.979 300.798,287.975 300.078,287.875 299.695 C 287.775 299.313,287.696 299.720,287.701 300.600 M124.531 302.600 C 124.533 304.140,124.605 304.721,124.692 303.891 C 124.779 303.061,124.777 301.801,124.689 301.091 C 124.600 300.381,124.529 301.060,124.531 302.600 M132.109 302.400 C 132.109 303.390,132.187 303.795,132.282 303.300 C 132.378 302.805,132.378 301.995,132.282 301.500 C 132.187 301.005,132.109 301.410,132.109 302.400 M164.101 302.600 C 164.105 303.480,164.187 303.793,164.283 303.295 C 164.379 302.798,164.375 302.078,164.275 301.695 C 164.175 301.313,164.096 301.720,164.101 302.600 M171.693 302.400 C 171.693 303.170,171.775 303.485,171.876 303.100 C 171.976 302.715,171.976 302.085,171.876 301.700 C 171.775 301.315,171.693 301.630,171.693 302.400 M247.701 302.600 C 247.705 303.480,247.787 303.793,247.883 303.295 C 247.979 302.798,247.975 302.078,247.875 301.695 C 247.775 301.313,247.696 301.720,247.701 302.600 M146.400 308.600 C 147.146 309.370,147.847 310.000,147.957 310.000 C 148.067 310.000,147.546 309.370,146.800 308.600 C 146.054 307.830,145.353 307.200,145.243 307.200 C 145.133 307.200,145.654 307.830,146.400 308.600 M176.421 310.021 C 176.955 310.360,179.942 310.581,179.567 310.255 C 179.475 310.175,178.599 310.008,177.621 309.882 C 176.470 309.735,176.046 309.784,176.421 310.021 M138.105 310.287 C 138.714 310.379,139.614 310.377,140.105 310.282 C 140.597 310.187,140.100 310.111,139.000 310.114 C 137.900 310.117,137.497 310.195,138.105 310.287 M231.305 310.287 C 231.914 310.379,232.814 310.377,233.305 310.282 C 233.797 310.187,233.300 310.111,232.200 310.114 C 231.100 310.117,230.697 310.195,231.305 310.287 M284.900 310.294 L 290.800 310.421 290.800 313.577 C 290.800 315.334,290.618 316.824,290.390 316.937 C 290.165 317.049,290.210 317.094,290.490 317.037 C 290.855 316.963,291.000 315.975,291.000 313.567 L 291.000 310.200 285.000 310.183 L 279.000 310.166 284.900 310.294 M243.578 312.700 L 242.200 314.200 243.700 312.822 C 244.525 312.063,245.200 311.388,245.200 311.322 C 245.200 311.016,244.862 311.304,243.578 312.700 M127.600 312.125 C 127.600 312.194,128.185 312.779,128.900 313.425 L 130.200 314.600 129.025 313.300 C 127.930 312.088,127.600 311.816,127.600 312.125 M232.705 317.083 C 233.202 317.179,233.922 317.175,234.305 317.075 C 234.687 316.975,234.280 316.896,233.400 316.901 C 232.520 316.905,232.207 316.987,232.705 317.083 M137.700 317.491 C 138.525 317.578,139.875 317.578,140.700 317.491 C 141.525 317.405,140.850 317.334,139.200 317.334 C 137.550 317.334,136.875 317.405,137.700 317.491 M176.900 317.491 C 177.725 317.578,179.075 317.578,179.900 317.491 C 180.725 317.405,180.050 317.334,178.400 317.334 C 176.750 317.334,176.075 317.405,176.900 317.491 " stroke="none" fill="#8c8c8e" fill-rule="evenodd"></path><path id="path5" d="M203.300 78.294 C 204.345 78.376,206.055 78.376,207.100 78.294 C 208.145 78.212,207.290 78.144,205.200 78.144 C 203.110 78.144,202.255 78.212,203.300 78.294 M165.583 110.500 C 167.241 112.266,167.600 112.584,167.600 112.283 C 167.600 112.219,166.745 111.364,165.700 110.383 L 163.800 108.600 165.583 110.500 M206.400 151.800 C 207.146 152.570,207.847 153.200,207.957 153.200 C 208.067 153.200,207.546 152.570,206.800 151.800 C 206.054 151.030,205.353 150.400,205.243 150.400 C 205.133 150.400,205.654 151.030,206.400 151.800 M288.570 173.400 C 288.571 178.240,288.629 180.165,288.699 177.678 C 288.769 175.191,288.769 171.231,288.698 168.878 C 288.628 166.525,288.570 168.560,288.570 173.400 M196.800 180.525 C 196.800 180.594,197.385 181.179,198.100 181.825 L 199.400 183.000 198.225 181.700 C 197.130 180.488,196.800 180.216,196.800 180.525 M237.200 183.000 C 237.946 183.770,238.647 184.400,238.757 184.400 C 238.867 184.400,238.346 183.770,237.600 183.000 C 236.854 182.230,236.153 181.600,236.043 181.600 C 235.933 181.600,236.454 182.230,237.200 183.000 M277.500 182.698 C 279.315 182.772,282.285 182.772,284.100 182.698 C 285.915 182.623,284.430 182.563,280.800 182.563 C 277.170 182.563,275.685 182.623,277.500 182.698 M182.800 189.000 C 183.995 190.210,185.063 191.200,185.173 191.200 C 185.283 191.200,184.395 190.210,183.200 189.000 C 182.005 187.790,180.937 186.800,180.827 186.800 C 180.717 186.800,181.605 187.790,182.800 189.000 M100.100 194.291 C 100.925 194.378,102.275 194.378,103.100 194.291 C 103.925 194.205,103.250 194.134,101.600 194.134 C 99.950 194.134,99.275 194.205,100.100 194.291 M199.200 205.400 C 199.946 206.170,200.647 206.800,200.757 206.800 C 200.867 206.800,200.346 206.170,199.600 205.400 C 198.854 204.630,198.153 204.000,198.043 204.000 C 197.933 204.000,198.454 204.630,199.200 205.400 M288.577 230.200 C 288.577 236.800,288.632 239.556,288.699 236.325 C 288.766 233.093,288.766 227.693,288.699 224.325 C 288.632 220.956,288.577 223.600,288.577 230.200 M273.744 223.600 C 273.744 225.690,273.812 226.545,273.894 225.500 C 273.976 224.455,273.976 222.745,273.894 221.700 C 273.812 220.655,273.744 221.510,273.744 223.600 M168.537 244.200 C 168.539 245.960,168.609 246.630,168.693 245.689 C 168.778 244.749,168.777 243.309,168.691 242.489 C 168.605 241.670,168.536 242.440,168.537 244.200 M279.781 251.300 L 278.200 253.000 279.900 251.419 C 281.481 249.948,281.784 249.600,281.481 249.600 C 281.416 249.600,280.651 250.365,279.781 251.300 M216.131 270.600 C 216.133 272.140,216.205 272.721,216.292 271.891 C 216.379 271.061,216.377 269.801,216.289 269.091 C 216.200 268.381,216.129 269.060,216.131 270.600 M188.000 291.400 C 188.746 292.170,189.447 292.800,189.557 292.800 C 189.667 292.800,189.146 292.170,188.400 291.400 C 187.654 290.630,186.953 290.000,186.843 290.000 C 186.733 290.000,187.254 290.630,188.000 291.400 M271.905 317.483 C 272.402 317.579,273.122 317.575,273.505 317.475 C 273.887 317.375,273.480 317.296,272.600 317.301 C 271.720 317.305,271.407 317.387,271.905 317.483 " stroke="none" fill="#82848c" fill-rule="evenodd"></path><path id="path6" d="M249.000 79.200 C 249.859 80.080,250.652 80.800,250.762 80.800 C 250.872 80.800,250.259 80.080,249.400 79.200 C 248.541 78.320,247.748 77.600,247.638 77.600 C 247.528 77.600,248.141 78.320,249.000 79.200 M273.381 106.400 C 273.381 114.650,273.434 118.025,273.499 113.900 C 273.564 109.775,273.564 103.025,273.499 98.900 C 273.434 94.775,273.381 98.150,273.381 106.400 M163.200 107.725 C 163.200 107.794,163.785 108.379,164.500 109.025 L 165.800 110.200 164.625 108.900 C 163.530 107.688,163.200 107.416,163.200 107.725 M172.200 116.800 C 173.059 117.680,173.852 118.400,173.962 118.400 C 174.072 118.400,173.459 117.680,172.600 116.800 C 171.741 115.920,170.948 115.200,170.838 115.200 C 170.728 115.200,171.341 115.920,172.200 116.800 M154.000 120.925 C 154.000 120.994,154.585 121.579,155.300 122.225 L 156.600 123.400 155.425 122.100 C 154.330 120.888,154.000 120.616,154.000 120.925 M153.395 203.800 C 153.395 236.140,153.442 249.311,153.500 233.069 C 153.558 216.826,153.558 190.366,153.500 174.269 C 153.442 158.171,153.395 171.460,153.395 203.800 M186.800 154.200 C 187.546 154.970,188.247 155.600,188.357 155.600 C 188.467 155.600,187.946 154.970,187.200 154.200 C 186.454 153.430,185.753 152.800,185.643 152.800 C 185.533 152.800,186.054 153.430,186.800 154.200 M172.400 155.400 C 173.146 156.170,173.847 156.800,173.957 156.800 C 174.067 156.800,173.546 156.170,172.800 155.400 C 172.054 154.630,171.353 154.000,171.243 154.000 C 171.133 154.000,171.654 154.630,172.400 155.400 M97.282 159.096 C 98.758 159.173,101.278 159.173,102.882 159.097 C 104.487 159.021,103.280 158.958,100.200 158.958 C 97.120 158.957,95.807 159.019,97.282 159.096 M94.114 161.000 C 94.117 162.100,94.195 162.503,94.287 161.895 C 94.379 161.286,94.377 160.386,94.282 159.895 C 94.187 159.403,94.111 159.900,94.114 161.000 M266.313 171.895 C 267.476 171.976,269.276 171.976,270.313 171.893 C 271.351 171.811,270.400 171.745,268.200 171.746 C 266.000 171.747,265.151 171.814,266.313 171.895 M230.200 175.600 C 231.059 176.480,231.852 177.200,231.962 177.200 C 232.072 177.200,231.459 176.480,230.600 175.600 C 229.741 174.720,228.948 174.000,228.838 174.000 C 228.728 174.000,229.341 174.720,230.200 175.600 M196.400 179.800 C 198.260 181.670,199.872 183.200,199.982 183.200 C 200.092 183.200,198.660 181.670,196.800 179.800 C 194.940 177.930,193.328 176.400,193.218 176.400 C 193.108 176.400,194.540 177.930,196.400 179.800 M202.600 186.000 C 203.906 187.320,205.065 188.400,205.175 188.400 C 205.285 188.400,204.306 187.320,203.000 186.000 C 201.694 184.680,200.535 183.600,200.425 183.600 C 200.315 183.600,201.294 184.680,202.600 186.000 M277.775 212.100 L 276.600 213.400 277.900 212.225 C 278.615 211.579,279.200 210.994,279.200 210.925 C 279.200 210.616,278.870 210.888,277.775 212.100 M273.373 226.800 C 273.373 232.190,273.430 234.395,273.499 231.700 C 273.568 229.005,273.568 224.595,273.499 221.900 C 273.430 219.205,273.373 221.410,273.373 226.800 M253.800 221.600 C 255.550 223.360,257.071 224.800,257.181 224.800 C 257.291 224.800,255.950 223.360,254.200 221.600 C 252.450 219.840,250.929 218.400,250.819 218.400 C 250.709 218.400,252.050 219.840,253.800 221.600 M244.600 228.400 C 245.683 229.500,246.660 230.400,246.770 230.400 C 246.880 230.400,246.083 229.500,245.000 228.400 C 243.917 227.300,242.940 226.400,242.830 226.400 C 242.720 226.400,243.517 227.300,244.600 228.400 M251.183 234.900 C 252.164 235.945,253.019 236.800,253.083 236.800 C 253.384 236.800,253.066 236.441,251.300 234.783 L 249.400 233.000 251.183 234.900 M232.200 238.400 C 233.506 239.720,234.665 240.800,234.775 240.800 C 234.885 240.800,233.906 239.720,232.600 238.400 C 231.294 237.080,230.135 236.000,230.025 236.000 C 229.915 236.000,230.894 237.080,232.200 238.400 M141.748 247.200 C 141.748 249.510,141.814 250.455,141.895 249.300 C 141.976 248.145,141.976 246.255,141.895 245.100 C 141.814 243.945,141.748 244.890,141.748 247.200 M283.591 247.900 L 280.200 251.400 283.700 248.009 C 286.951 244.859,287.382 244.400,287.091 244.400 C 287.031 244.400,285.456 245.975,283.591 247.900 M141.693 252.800 C 141.693 253.570,141.775 253.885,141.876 253.500 C 141.976 253.115,141.976 252.485,141.876 252.100 C 141.775 251.715,141.693 252.030,141.693 252.800 M278.000 253.400 C 277.028 254.390,276.323 255.200,276.433 255.200 C 276.543 255.200,277.428 254.390,278.400 253.400 C 279.372 252.410,280.077 251.600,279.967 251.600 C 279.857 251.600,278.972 252.410,278.000 253.400 M126.761 264.523 C 126.940 264.700,128.056 264.788,129.243 264.717 L 131.400 264.589 128.918 264.394 C 127.554 264.287,126.583 264.345,126.761 264.523 M207.700 265.096 C 208.965 265.175,211.035 265.175,212.300 265.096 C 213.565 265.016,212.530 264.951,210.000 264.951 C 207.470 264.951,206.435 265.016,207.700 265.096 M161.800 271.200 C 162.883 272.300,163.860 273.200,163.970 273.200 C 164.080 273.200,163.283 272.300,162.200 271.200 C 161.117 270.100,160.140 269.200,160.030 269.200 C 159.920 269.200,160.717 270.100,161.800 271.200 M196.093 271.600 C 196.093 272.370,196.175 272.685,196.276 272.300 C 196.376 271.915,196.376 271.285,196.276 270.900 C 196.175 270.515,196.093 270.830,196.093 271.600 M137.900 287.082 C 138.395 287.178,139.205 287.178,139.700 287.082 C 140.195 286.987,139.790 286.909,138.800 286.909 C 137.810 286.909,137.405 286.987,137.900 287.082 M187.200 290.125 C 187.200 290.194,187.785 290.779,188.500 291.425 L 189.800 292.600 188.625 291.300 C 187.530 290.088,187.200 289.816,187.200 290.125 M230.576 295.319 C 230.466 295.605,230.432 298.350,230.500 301.419 L 230.625 307.000 230.712 301.124 L 230.800 295.248 232.300 295.091 L 233.800 294.934 232.287 294.867 C 231.363 294.826,230.697 295.002,230.576 295.319 M248.120 302.400 C 248.120 303.610,248.195 304.105,248.287 303.500 C 248.378 302.895,248.378 301.905,248.287 301.300 C 248.195 300.695,248.120 301.190,248.120 302.400 M278.520 308.000 C 278.520 309.210,278.595 309.705,278.687 309.100 C 278.778 308.495,278.778 307.505,278.687 306.900 C 278.595 306.295,278.520 306.790,278.520 308.000 M231.505 309.883 C 232.002 309.979,232.722 309.975,233.105 309.875 C 233.487 309.775,233.080 309.696,232.200 309.701 C 231.320 309.705,231.007 309.787,231.505 309.883 M291.301 313.000 C 291.305 313.880,291.387 314.193,291.483 313.695 C 291.579 313.198,291.575 312.478,291.475 312.095 C 291.375 311.713,291.296 312.120,291.301 313.000 " stroke="none" fill="#333539" fill-rule="evenodd"></path><path id="path7" d="M196.101 79.800 C 196.105 80.680,196.187 80.993,196.283 80.495 C 196.379 79.998,196.375 79.278,196.275 78.895 C 196.175 78.513,196.096 78.920,196.101 79.800 M259.381 142.600 C 259.380 150.520,259.434 153.817,259.499 149.926 C 259.565 146.035,259.565 139.555,259.500 135.526 C 259.434 131.497,259.381 134.680,259.381 142.600 M141.787 153.800 C 141.787 166.560,141.838 171.838,141.900 165.529 C 141.962 159.219,141.962 148.779,141.900 142.329 C 141.838 135.878,141.787 141.040,141.787 153.800 M153.324 139.400 C 153.326 140.720,153.401 141.212,153.490 140.493 C 153.579 139.774,153.577 138.694,153.486 138.093 C 153.395 137.492,153.322 138.080,153.324 139.400 M260.900 171.876 C 261.285 171.976,261.915 171.976,262.300 171.876 C 262.685 171.775,262.370 171.693,261.600 171.693 C 260.830 171.693,260.515 171.775,260.900 171.876 M259.387 195.000 C 259.387 207.540,259.438 212.612,259.500 206.272 C 259.562 199.931,259.562 189.671,259.500 183.472 C 259.438 177.272,259.387 182.460,259.387 195.000 M105.748 184.800 C 105.748 187.110,105.814 188.055,105.895 186.900 C 105.976 185.745,105.976 183.855,105.895 182.700 C 105.814 181.545,105.748 182.490,105.748 184.800 M313.900 191.093 C 314.835 191.177,316.365 191.177,317.300 191.093 C 318.235 191.009,317.470 190.940,315.600 190.940 C 313.730 190.940,312.965 191.009,313.900 191.093 M141.778 211.600 C 141.778 218.310,141.832 221.055,141.899 217.700 C 141.966 214.345,141.966 208.855,141.899 205.500 C 141.832 202.145,141.778 204.890,141.778 211.600 M224.400 208.125 C 224.400 208.194,224.985 208.779,225.700 209.425 L 227.000 210.600 225.825 209.300 C 224.730 208.088,224.400 207.816,224.400 208.125 M226.100 287.487 C 226.705 287.578,227.695 287.578,228.300 287.487 C 228.905 287.395,228.410 287.320,227.200 287.320 C 225.990 287.320,225.495 287.395,226.100 287.487 M276.311 287.493 C 277.251 287.578,278.691 287.577,279.511 287.491 C 280.330 287.405,279.560 287.336,277.800 287.337 C 276.040 287.339,275.370 287.409,276.311 287.493 M288.101 302.200 C 288.105 303.080,288.187 303.393,288.283 302.895 C 288.379 302.398,288.375 301.678,288.275 301.295 C 288.175 300.913,288.096 301.320,288.101 302.200 M222.548 308.000 C 222.548 310.310,222.614 311.255,222.695 310.100 C 222.776 308.945,222.776 307.055,222.695 305.900 C 222.614 304.745,222.548 305.690,222.548 308.000 M222.514 315.400 C 222.517 316.500,222.595 316.903,222.687 316.295 C 222.779 315.686,222.777 314.786,222.682 314.295 C 222.587 313.803,222.511 314.300,222.514 315.400 " stroke="none" fill="#444c4c" fill-rule="evenodd"></path><path id="path8" d="M196.134 84.000 C 196.134 85.650,196.205 86.325,196.291 85.500 C 196.378 84.675,196.378 83.325,196.291 82.500 C 196.205 81.675,196.134 82.350,196.134 84.000 M141.728 128.400 C 141.728 129.830,141.801 130.415,141.889 129.700 C 141.978 128.985,141.978 127.815,141.889 127.100 C 141.801 126.385,141.728 126.970,141.728 128.400 M153.314 143.400 C 153.317 144.500,153.395 144.903,153.487 144.295 C 153.579 143.686,153.577 142.786,153.482 142.295 C 153.387 141.803,153.311 142.300,153.314 143.400 M323.366 179.600 C 323.366 183.670,323.425 185.335,323.498 183.300 C 323.571 181.265,323.571 177.935,323.498 175.900 C 323.425 173.865,323.366 175.530,323.366 179.600 M273.331 177.800 C 273.333 179.340,273.405 179.921,273.492 179.091 C 273.579 178.261,273.577 177.001,273.489 176.291 C 273.400 175.581,273.329 176.260,273.331 177.800 M141.777 188.200 C 141.777 194.580,141.832 197.134,141.899 193.876 C 141.967 190.617,141.966 185.397,141.899 182.276 C 141.831 179.154,141.776 181.820,141.777 188.200 M105.709 190.400 C 105.709 191.390,105.787 191.795,105.882 191.300 C 105.978 190.805,105.978 189.995,105.882 189.500 C 105.787 189.005,105.709 189.410,105.709 190.400 M141.773 233.400 C 141.773 238.900,141.830 241.205,141.899 238.523 C 141.968 235.841,141.968 231.341,141.899 228.523 C 141.830 225.705,141.774 227.900,141.773 233.400 M196.101 269.000 C 196.105 269.880,196.187 270.193,196.283 269.695 C 196.379 269.198,196.375 268.478,196.275 268.095 C 196.175 267.713,196.096 268.120,196.101 269.000 M222.566 296.800 C 222.566 300.870,222.625 302.535,222.698 300.500 C 222.771 298.465,222.771 295.135,222.698 293.100 C 222.625 291.065,222.566 292.730,222.566 296.800 " stroke="none" fill="#44444c" fill-rule="evenodd"></path></g></svg>