<svg id="svg" version="1.1" xmlns="http://www.w3.org/2000/svg" xmlns:xlink="http://www.w3.org/1999/xlink" width="400" height="400" viewBox="0, 0, 400,400"><g id="svgg"><path id="path0" d="M244.007 132.453 C 244.018 163.723,243.921 189.412,243.792 189.541 C 243.663 189.670,240.551 186.721,236.877 182.988 C 165.180 110.134,157.366 102.536,152.740 101.172 C 150.693 100.569,147.101 100.664,145.420 101.366 C 143.843 102.025,133.807 111.602,129.551 116.510 L 127.200 119.221 127.200 191.610 L 127.200 264.000 129.500 264.001 L 131.800 264.002 136.500 259.228 L 141.200 254.453 141.200 190.213 C 141.200 136.586,141.291 125.762,141.750 124.687 C 142.332 123.327,149.181 116.400,149.945 116.400 C 150.192 116.400,159.435 125.535,170.486 136.700 C 181.538 147.865,205.928 172.390,224.687 191.200 L 258.794 225.400 258.803 198.800 C 258.808 184.170,258.958 171.971,259.136 171.690 C 259.382 171.302,261.161 171.207,266.629 171.290 L 273.800 171.400 273.911 176.673 L 274.023 181.945 276.193 182.216 C 279.932 182.684,287.571 182.284,288.045 181.597 C 288.492 180.948,288.275 161.168,287.812 160.420 C 287.639 160.140,282.852 160.000,273.426 160.000 L 259.300 160.000 259.050 158.750 C 258.913 158.063,258.804 142.178,258.809 123.450 L 258.818 89.400 251.709 82.509 C 247.799 78.718,244.462 75.613,244.293 75.609 C 244.125 75.604,243.996 101.184,244.007 132.453 M197.050 79.007 C 196.534 79.523,196.394 80.071,196.563 80.915 C 196.693 81.567,196.800 83.428,196.800 85.050 L 196.800 88.000 206.200 88.000 L 215.600 88.000 215.600 83.400 L 215.600 78.800 212.664 78.800 C 211.049 78.800,207.038 78.684,203.751 78.541 C 198.312 78.306,197.709 78.348,197.050 79.007 M282.504 83.122 C 279.697 85.741,276.635 88.717,275.700 89.733 L 274.000 91.582 274.000 106.537 C 274.000 121.237,274.015 121.512,274.864 122.646 C 276.254 124.504,280.940 129.200,281.403 129.200 C 281.837 129.200,284.844 126.198,287.126 123.486 L 288.400 121.972 288.400 100.410 C 288.400 86.629,288.257 78.759,288.004 78.603 C 287.787 78.468,285.312 80.502,282.504 83.122 M128.487 85.824 C 124.412 88.678,126.847 95.328,131.728 94.674 C 137.514 93.898,136.933 85.200,131.095 85.200 C 130.151 85.200,128.977 85.481,128.487 85.824 M154.000 200.110 L 154.000 262.687 160.946 269.331 C 164.766 272.985,168.008 275.859,168.150 275.716 C 168.293 275.574,168.403 252.856,168.395 225.232 C 168.385 187.824,168.499 174.967,168.840 174.853 C 169.092 174.769,183.451 188.812,200.749 206.060 C 218.047 223.307,236.250 241.393,241.200 246.250 L 250.200 255.081 255.002 256.936 C 266.563 261.402,270.144 260.379,281.223 249.444 C 289.107 241.663,288.460 243.533,288.344 228.852 L 288.249 216.662 285.050 213.131 C 281.196 208.876,282.083 208.850,277.674 213.346 L 274.000 217.092 274.000 227.142 L 274.000 237.191 271.900 239.663 C 269.153 242.897,267.073 244.000,263.721 244.000 C 259.712 244.000,258.951 243.423,246.617 231.016 C 209.504 193.683,188.901 172.858,172.799 156.400 C 162.789 146.170,154.465 137.740,154.300 137.667 C 154.135 137.593,154.000 165.693,154.000 200.110 M94.983 160.100 C 94.877 160.376,94.838 167.981,94.895 177.000 L 95.000 193.400 98.800 193.709 C 100.890 193.878,103.185 193.915,103.900 193.790 L 105.200 193.564 105.200 176.582 L 105.200 159.600 100.187 159.600 C 96.544 159.600,95.122 159.737,94.983 160.100 M312.667 171.867 C 312.333 172.200,312.311 188.903,312.643 189.767 C 312.846 190.297,313.691 190.400,317.843 190.400 L 322.800 190.400 322.800 181.000 L 322.800 171.600 317.867 171.600 C 315.153 171.600,312.813 171.720,312.667 171.867 M284.526 265.785 C 281.321 267.179,281.160 272.942,284.285 274.366 C 288.743 276.397,292.918 271.822,290.390 267.676 C 289.094 265.551,286.780 264.805,284.526 265.785 M196.910 266.100 C 196.689 266.385,196.603 268.279,196.709 270.500 L 196.895 274.400 203.148 274.403 C 206.586 274.404,210.570 274.504,212.000 274.625 C 215.568 274.925,215.662 274.817,215.676 270.383 C 215.686 267.244,215.574 266.570,214.968 266.127 C 213.958 265.388,197.481 265.364,196.910 266.100 M134.515 288.301 C 122.386 292.370,121.516 310.355,133.170 316.098 C 137.573 318.268,145.520 316.891,148.812 313.387 L 149.693 312.449 147.747 310.230 C 145.478 307.643,145.668 307.695,143.492 309.068 C 137.956 312.563,132.035 309.071,132.009 302.296 C 131.984 295.869,137.382 292.471,143.000 295.375 L 145.000 296.408 145.705 295.504 C 146.092 295.007,146.966 293.915,147.646 293.077 C 150.433 289.646,140.873 286.168,134.515 288.301 M175.094 288.012 C 164.282 290.728,160.881 305.716,169.269 313.681 C 174.543 318.689,183.421 318.355,188.392 312.962 C 198.093 302.438,188.595 284.619,175.094 288.012 M223.144 298.268 C 223.065 303.950,223.062 310.462,223.139 312.739 L 223.277 316.878 230.139 316.734 C 242.436 316.475,248.408 311.019,247.464 300.907 C 246.656 292.250,241.304 288.283,230.144 288.068 L 223.288 287.935 223.144 298.268 M271.385 288.495 C 271.277 288.776,271.237 295.214,271.295 302.802 L 271.400 316.600 281.117 316.707 L 290.834 316.814 290.717 313.707 L 290.600 310.600 284.400 310.400 L 278.200 310.200 278.200 308.000 L 278.200 305.800 282.000 305.700 C 287.827 305.548,287.600 305.681,287.600 302.405 L 287.600 299.625 282.900 299.513 L 278.200 299.400 278.200 297.000 L 278.200 294.600 283.973 294.489 C 290.883 294.355,290.873 294.361,290.717 290.837 L 290.600 288.200 281.090 288.093 C 273.676 288.009,271.537 288.098,271.385 288.495 M180.674 294.827 C 183.462 295.883,185.177 298.837,185.191 302.606 C 185.226 312.225,172.715 313.089,171.729 303.536 C 171.101 297.445,175.718 292.949,180.674 294.827 M235.898 295.015 C 241.849 297.502,242.117 306.476,236.327 309.361 C 233.875 310.583,230.639 310.799,230.243 309.767 C 229.911 308.904,229.933 295.000,230.267 294.667 C 230.763 294.170,234.417 294.396,235.898 295.015 " stroke="none" fill="#000000" fill-rule="evenodd"></path><path id="path1" d="M175.600 0.436 C 175.600 0.662,175.409 0.729,175.176 0.585 C 174.623 0.243,169.149 0.794,169.380 1.168 C 169.478 1.326,169.002 1.374,168.322 1.274 C 167.477 1.150,167.174 1.234,167.363 1.540 C 167.555 1.851,167.267 1.913,166.420 1.744 C 165.673 1.595,165.200 1.665,165.200 1.925 C 165.200 2.190,164.652 2.261,163.738 2.112 C 162.832 1.965,162.367 2.024,162.517 2.265 C 162.662 2.500,162.265 2.583,161.522 2.474 C 160.797 2.368,160.384 2.450,160.522 2.674 C 160.660 2.898,160.247 2.980,159.522 2.874 C 158.797 2.768,158.384 2.850,158.522 3.074 C 158.660 3.298,158.247 3.380,157.522 3.274 C 156.729 3.157,156.379 3.242,156.544 3.509 C 156.703 3.766,156.495 3.845,156.001 3.716 C 155.560 3.601,155.200 3.683,155.200 3.898 C 155.200 4.113,154.723 4.198,154.141 4.087 C 153.342 3.934,153.160 4.012,153.402 4.404 C 153.622 4.760,153.567 4.827,153.227 4.617 C 152.576 4.214,143.985 6.452,144.289 6.945 C 144.418 7.153,144.334 7.207,144.103 7.064 C 143.548 6.721,141.157 7.207,141.407 7.611 C 141.514 7.784,141.213 7.824,140.738 7.700 C 140.151 7.546,139.966 7.621,140.158 7.932 C 140.342 8.230,140.223 8.307,139.821 8.153 C 139.479 8.022,139.200 8.108,139.200 8.345 C 139.200 8.581,138.967 8.685,138.682 8.576 C 138.057 8.336,128.277 11.744,128.616 12.083 C 128.746 12.213,128.616 12.294,128.327 12.262 C 127.268 12.145,122.394 14.066,122.659 14.495 C 122.806 14.734,122.737 14.808,122.503 14.664 C 122.070 14.396,119.450 15.316,119.760 15.627 C 119.855 15.722,119.530 15.824,119.037 15.853 C 117.787 15.928,103.986 22.853,104.246 23.275 C 104.364 23.465,104.307 23.570,104.122 23.510 C 103.487 23.304,100.421 24.911,100.673 25.318 C 100.816 25.549,100.725 25.601,100.463 25.439 C 99.918 25.102,98.274 26.140,98.690 26.557 C 98.847 26.714,98.637 26.712,98.222 26.553 C 97.658 26.336,97.551 26.397,97.796 26.794 C 98.007 27.135,97.968 27.228,97.688 27.054 C 97.239 26.777,93.471 28.937,93.810 29.277 C 93.915 29.381,93.769 29.467,93.488 29.467 C 92.809 29.467,90.800 30.796,90.800 31.246 C 90.800 31.441,90.630 31.555,90.423 31.500 C 89.856 31.350,85.224 34.515,85.457 34.893 C 85.569 35.073,85.511 35.194,85.330 35.163 C 84.478 35.015,83.979 35.243,84.238 35.662 C 84.400 35.923,84.349 36.016,84.123 35.876 C 83.727 35.631,80.528 37.788,76.570 40.969 C 75.453 41.866,73.972 43.029,73.279 43.553 C 72.586 44.077,72.132 44.690,72.271 44.915 C 72.413 45.144,72.328 45.203,72.078 45.048 C 71.833 44.897,70.865 45.454,69.926 46.286 C 68.988 47.119,67.635 48.320,66.920 48.955 C 66.205 49.590,65.734 50.293,65.872 50.517 C 66.015 50.748,65.926 50.802,65.667 50.641 C 65.090 50.285,61.118 53.944,61.468 54.510 C 61.609 54.738,61.545 54.813,61.327 54.678 C 60.950 54.446,52.637 62.645,48.788 67.044 C 45.333 70.993,44.993 71.393,44.200 72.446 C 43.760 73.030,42.230 75.013,40.800 76.853 C 19.378 104.416,4.967 138.980,0.410 173.729 C -0.133 177.875,-0.133 222.125,0.410 226.271 C 4.967 261.020,19.378 295.584,40.800 323.147 C 42.230 324.987,43.760 326.970,44.200 327.554 C 44.991 328.604,45.294 328.961,48.787 332.956 C 54.422 339.402,67.510 351.983,72.969 356.200 C 73.823 356.860,75.440 358.138,76.561 359.039 C 82.542 363.848,93.763 371.273,101.600 375.606 C 109.604 380.031,123.791 386.792,125.096 386.802 C 125.263 386.804,125.900 387.066,126.511 387.385 C 133.298 390.925,158.131 397.429,172.400 399.403 C 178.471 400.243,221.529 400.243,227.600 399.403 C 252.225 395.995,275.960 388.018,298.400 375.607 C 306.242 371.269,317.461 363.846,323.439 359.039 C 324.560 358.138,326.177 356.860,327.031 356.200 C 332.490 351.983,345.578 339.402,351.213 332.956 C 354.706 328.961,355.009 328.604,355.800 327.554 C 356.240 326.970,357.770 324.987,359.200 323.147 C 380.622 295.584,395.033 261.020,399.590 226.271 C 400.133 222.125,400.133 177.875,399.590 173.729 C 395.033 138.980,380.622 104.416,359.200 76.853 C 357.770 75.013,356.240 73.030,355.800 72.446 C 355.007 71.393,354.667 70.993,351.212 67.044 C 347.363 62.645,339.050 54.446,338.673 54.678 C 338.455 54.813,338.386 54.746,338.521 54.528 C 338.838 54.015,335.545 50.780,334.557 50.635 C 334.141 50.574,333.800 50.306,333.800 50.041 C 333.800 49.356,330.737 46.792,330.267 47.082 C 330.052 47.215,329.996 47.130,330.142 46.894 C 330.456 46.386,328.471 44.709,327.943 45.035 C 327.743 45.159,327.630 45.086,327.690 44.873 C 327.855 44.295,325.965 42.777,325.448 43.072 C 325.202 43.213,325.129 43.185,325.288 43.010 C 325.636 42.624,322.377 39.967,321.910 40.256 C 321.729 40.368,321.630 40.221,321.690 39.930 C 321.751 39.637,321.489 39.425,321.104 39.455 C 320.722 39.485,320.497 39.367,320.605 39.193 C 320.833 38.824,316.849 35.867,316.124 35.867 C 315.855 35.867,315.728 35.717,315.841 35.533 C 316.033 35.223,315.428 35.031,314.670 35.163 C 314.489 35.194,314.431 35.073,314.543 34.893 C 314.776 34.515,310.144 31.350,309.577 31.500 C 309.370 31.555,309.200 31.439,309.200 31.242 C 309.200 30.774,305.290 28.267,304.561 28.267 C 304.252 28.267,304.089 28.178,304.197 28.069 C 304.554 27.713,302.810 26.747,302.337 27.039 C 302.031 27.228,301.986 27.146,302.204 26.794 C 302.449 26.397,302.342 26.336,301.778 26.553 C 301.363 26.712,301.153 26.714,301.310 26.557 C 301.726 26.140,300.082 25.102,299.537 25.439 C 299.275 25.601,299.184 25.549,299.327 25.318 C 299.579 24.911,296.513 23.304,295.878 23.510 C 295.693 23.570,295.636 23.465,295.754 23.275 C 296.014 22.853,282.213 15.928,280.963 15.853 C 280.470 15.824,280.145 15.722,280.240 15.627 C 280.550 15.316,277.930 14.396,277.497 14.664 C 277.263 14.808,277.194 14.734,277.341 14.495 C 277.502 14.235,276.778 13.796,275.503 13.380 C 274.346 13.003,273.177 12.518,272.905 12.302 C 272.633 12.087,272.098 12.030,271.717 12.176 C 271.336 12.323,271.159 12.308,271.323 12.144 C 271.703 11.764,262.014 8.309,261.318 8.576 C 261.033 8.685,260.800 8.581,260.800 8.345 C 260.800 8.108,260.521 8.022,260.179 8.153 C 259.777 8.307,259.658 8.230,259.842 7.932 C 260.034 7.621,259.849 7.546,259.262 7.700 C 258.787 7.824,258.486 7.784,258.593 7.611 C 258.843 7.207,256.452 6.721,255.897 7.064 C 255.666 7.207,255.582 7.153,255.711 6.945 C 256.015 6.452,247.424 4.214,246.773 4.617 C 246.433 4.827,246.378 4.760,246.598 4.404 C 246.840 4.012,246.658 3.934,245.859 4.087 C 245.277 4.198,244.800 4.113,244.800 3.898 C 244.800 3.683,244.440 3.601,243.999 3.716 C 243.505 3.845,243.297 3.766,243.456 3.509 C 243.621 3.242,243.271 3.157,242.478 3.274 C 241.753 3.380,241.340 3.298,241.478 3.074 C 241.616 2.850,241.203 2.768,240.478 2.874 C 239.753 2.980,239.340 2.898,239.478 2.674 C 239.616 2.450,239.203 2.368,238.478 2.474 C 237.735 2.583,237.338 2.500,237.483 2.265 C 237.633 2.024,237.168 1.965,236.262 2.112 C 235.348 2.261,234.800 2.190,234.800 1.925 C 234.800 1.665,234.327 1.595,233.580 1.744 C 232.733 1.913,232.445 1.851,232.637 1.540 C 232.826 1.234,232.523 1.150,231.678 1.274 C 230.998 1.374,230.522 1.326,230.620 1.168 C 230.851 0.794,225.377 0.243,224.824 0.585 C 224.591 0.729,224.400 0.662,224.400 0.436 C 224.400 0.159,216.436 0.025,200.000 0.025 C 183.564 0.025,175.600 0.159,175.600 0.436 M252.404 81.804 L 259.800 89.208 260.000 124.104 L 260.200 159.000 274.380 159.105 C 285.112 159.185,288.636 159.331,288.873 159.705 C 289.416 160.559,289.272 182.168,288.720 182.720 C 288.025 183.415,273.775 183.397,273.324 182.700 C 273.146 182.425,272.910 179.950,272.800 177.200 L 272.600 172.200 266.300 172.090 L 260.000 171.980 260.000 198.557 C 260.000 225.391,259.962 226.400,258.957 226.400 C 258.474 226.400,203.538 171.496,163.603 131.100 C 156.263 123.675,150.100 117.600,149.907 117.600 C 149.715 117.600,147.947 119.191,145.979 121.135 L 142.400 124.670 142.400 188.948 C 142.400 242.734,142.310 253.436,141.848 254.513 C 141.043 256.387,132.363 264.787,131.161 264.854 C 128.963 264.977,126.581 264.684,126.304 264.257 C 126.141 264.006,126.051 231.203,126.104 191.363 L 126.200 118.926 127.655 117.163 C 130.902 113.229,143.075 101.311,144.600 100.574 C 145.782 100.002,147.036 99.803,149.400 99.812 C 155.285 99.833,158.303 101.976,172.001 115.857 C 216.289 160.736,240.407 185.134,241.600 186.264 L 243.000 187.589 243.101 130.995 L 243.203 74.400 244.105 74.400 C 244.743 74.400,247.177 76.571,252.404 81.804 M289.097 100.000 L 289.195 122.600 285.892 126.331 C 281.059 131.791,282.105 131.953,275.300 124.689 L 273.200 122.448 273.200 106.798 C 273.200 97.402,273.356 90.856,273.590 90.419 C 274.527 88.667,287.267 77.153,288.132 77.276 L 289.000 77.400 289.097 100.000 M216.320 78.080 C 216.824 78.584,217.021 86.958,216.557 88.167 C 216.189 89.126,196.211 89.126,195.843 88.167 C 195.512 87.306,195.533 78.200,195.867 77.867 C 196.376 77.357,215.800 77.560,216.320 78.080 M133.592 84.701 C 139.041 87.438,137.250 95.600,131.200 95.600 C 127.777 95.600,125.603 93.347,125.603 89.800 C 125.603 85.265,129.616 82.703,133.592 84.701 M167.226 149.300 C 196.701 179.570,257.250 240.449,259.282 241.857 C 262.823 244.311,266.899 243.501,270.639 239.601 C 273.259 236.870,273.140 237.483,273.172 226.589 C 273.204 215.545,272.807 216.835,277.750 211.700 C 281.659 207.639,281.193 207.604,285.567 212.296 L 289.200 216.192 289.200 229.236 L 289.200 242.280 288.058 243.840 C 287.430 244.698,284.277 247.964,281.051 251.098 C 269.925 261.906,263.774 262.829,249.924 255.771 C 249.196 255.400,239.330 245.865,228.000 234.582 C 187.434 194.185,169.507 176.400,169.355 176.400 C 169.270 176.400,169.200 198.878,169.200 226.351 C 169.200 269.234,169.119 276.369,168.627 276.778 C 167.973 277.320,164.022 273.942,157.119 266.938 L 153.239 263.000 153.192 200.000 C 153.139 127.296,153.065 136.000,153.737 136.000 C 154.033 136.000,160.103 141.985,167.226 149.300 M106.009 159.200 C 106.545 160.049,106.522 193.024,105.986 194.026 C 105.483 194.966,95.384 195.224,94.480 194.320 C 93.600 193.440,93.811 159.354,94.700 158.815 C 95.838 158.125,105.539 158.455,106.009 159.200 M323.311 170.968 C 324.126 171.783,323.972 190.718,323.146 191.242 C 322.279 191.791,312.645 191.685,312.080 191.120 C 311.733 190.773,311.600 187.964,311.600 181.000 C 311.600 174.036,311.733 171.227,312.080 170.880 C 312.815 170.145,322.564 170.221,323.311 170.968 M289.182 265.238 C 293.551 267.694,292.774 274.315,287.963 275.610 C 285.911 276.162,283.514 275.526,282.423 274.138 C 278.347 268.957,283.567 262.082,289.182 265.238 M215.824 265.367 C 216.784 266.069,217.247 273.980,216.388 275.015 C 215.741 275.794,196.852 275.892,196.080 275.120 C 195.420 274.460,195.420 265.940,196.080 265.280 C 196.831 264.529,214.784 264.608,215.824 265.367 M143.400 287.269 C 145.355 287.744,149.132 289.941,149.653 290.906 C 150.043 291.627,149.429 292.576,146.144 296.334 L 144.889 297.770 143.237 296.626 C 137.037 292.329,130.245 298.869,133.634 305.871 C 135.685 310.107,139.414 310.604,144.529 307.324 L 145.657 306.600 148.227 309.330 C 151.081 312.363,151.103 312.597,148.709 314.621 C 138.708 323.078,124.200 315.962,124.200 302.600 C 124.200 291.260,132.513 284.622,143.400 287.269 M183.029 287.458 C 189.822 289.726,194.550 297.878,193.226 305.041 C 189.770 323.736,163.800 321.757,163.815 302.800 C 163.825 291.405,172.972 284.101,183.029 287.458 M235.587 287.226 C 253.001 290.051,252.507 315.049,234.988 317.581 C 231.004 318.157,223.078 318.118,222.480 317.520 C 221.940 316.980,221.774 288.567,222.306 287.746 C 222.933 286.778,230.902 286.466,235.587 287.226 M291.120 287.280 C 291.804 287.964,291.765 294.165,291.073 294.740 C 290.760 294.999,288.196 295.222,284.773 295.289 L 279.000 295.400 278.876 296.900 L 278.752 298.400 283.076 298.406 C 288.391 298.414,288.380 298.407,288.670 301.864 C 289.038 306.255,288.876 306.400,283.618 306.400 L 279.264 306.400 278.991 307.640 C 278.589 309.473,278.884 309.568,285.409 309.689 L 291.400 309.800 291.517 313.393 C 291.616 316.427,291.526 317.065,290.940 317.493 C 289.977 318.198,271.582 318.222,270.880 317.520 C 270.002 316.642,270.212 287.749,271.100 287.232 C 272.151 286.620,290.504 286.664,291.120 287.280 M176.514 295.631 C 173.050 296.666,171.456 301.948,173.419 305.888 C 175.138 309.337,177.726 310.321,180.800 308.693 C 187.691 305.044,183.881 293.431,176.514 295.631 M230.959 295.762 C 230.644 296.583,230.935 309.069,231.278 309.411 C 231.747 309.880,235.221 309.106,236.474 308.253 C 240.532 305.489,240.605 298.618,236.600 296.334 C 234.749 295.278,231.280 294.926,230.959 295.762 " stroke="none" fill="#ffffff" fill-rule="evenodd"></path><path id="path2" d="M196.174 78.524 C 196.063 78.813,196.030 81.108,196.101 83.624 L 196.229 88.200 196.314 83.333 C 196.375 79.881,196.545 78.408,196.900 78.265 C 197.292 78.107,197.289 78.056,196.887 78.032 C 196.606 78.014,196.284 78.236,196.174 78.524 M213.700 78.276 C 214.085 78.376,214.715 78.376,215.100 78.276 C 215.485 78.175,215.170 78.093,214.400 78.093 C 213.630 78.093,213.315 78.175,213.700 78.276 M285.775 79.300 L 284.600 80.600 285.900 79.425 C 286.615 78.779,287.200 78.194,287.200 78.125 C 287.200 77.816,286.870 78.088,285.775 79.300 M215.998 83.482 C 215.889 86.166,215.941 88.221,216.114 88.048 C 216.286 87.874,216.375 85.678,216.312 83.166 L 216.196 78.600 215.998 83.482 M254.400 84.600 C 256.923 87.130,259.077 89.200,259.187 89.200 C 259.297 89.200,257.323 87.130,254.800 84.600 C 252.277 82.070,250.123 80.000,250.013 80.000 C 249.903 80.000,251.877 82.070,254.400 84.600 M277.813 86.787 C 275.408 89.199,273.521 91.224,273.620 91.287 C 273.719 91.349,275.771 89.375,278.181 86.900 C 280.590 84.425,282.477 82.400,282.374 82.400 C 282.271 82.400,280.218 84.374,277.813 86.787 M130.500 84.676 C 130.885 84.776,131.515 84.776,131.900 84.676 C 132.285 84.575,131.970 84.493,131.200 84.493 C 130.430 84.493,130.115 84.575,130.500 84.676 M259.391 123.800 C 259.391 142.720,259.440 150.401,259.500 140.870 C 259.560 131.338,259.560 115.858,259.500 106.470 C 259.440 97.081,259.391 104.880,259.391 123.800 M135.796 109.300 L 128.600 116.600 135.900 109.404 C 142.682 102.719,143.381 102.000,143.096 102.000 C 143.039 102.000,139.754 105.285,135.796 109.300 M145.588 120.700 L 143.000 123.400 145.700 120.812 C 147.185 119.388,148.400 118.173,148.400 118.112 C 148.400 117.817,147.993 118.192,145.588 120.700 M154.200 121.200 C 155.059 122.080,155.852 122.800,155.962 122.800 C 156.072 122.800,155.459 122.080,154.600 121.200 C 153.741 120.320,152.948 119.600,152.838 119.600 C 152.728 119.600,153.341 120.320,154.200 121.200 M126.497 192.076 C 126.444 231.608,126.535 264.036,126.700 264.138 C 126.971 264.306,126.970 215.331,126.697 146.200 C 126.640 131.900,126.550 152.544,126.497 192.076 M275.200 124.110 C 275.200 124.171,276.595 125.566,278.300 127.210 L 281.400 130.200 278.410 127.100 C 275.633 124.221,275.200 123.817,275.200 124.110 M157.600 124.504 C 157.600 124.561,161.155 128.116,165.500 132.404 L 173.400 140.200 165.604 132.300 C 158.360 124.960,157.600 124.219,157.600 124.504 M191.600 136.600 C 197.867 142.870,203.085 148.000,203.195 148.000 C 203.305 148.000,198.267 142.870,192.000 136.600 C 185.733 130.330,180.515 125.200,180.405 125.200 C 180.295 125.200,185.333 130.330,191.600 136.600 M284.975 126.500 L 283.800 127.800 285.100 126.625 C 285.815 125.979,286.400 125.394,286.400 125.325 C 286.400 125.016,286.070 125.288,284.975 126.500 M141.795 189.800 C 141.795 225.220,141.842 239.651,141.900 221.868 C 141.958 204.086,141.958 175.106,141.900 157.468 C 141.842 139.831,141.795 154.380,141.795 189.800 M156.400 139.000 C 157.595 140.210,158.663 141.200,158.773 141.200 C 158.883 141.200,157.995 140.210,156.800 139.000 C 155.605 137.790,154.537 136.800,154.427 136.800 C 154.317 136.800,155.205 137.790,156.400 139.000 M153.340 140.400 C 153.340 142.270,153.409 143.035,153.493 142.100 C 153.577 141.165,153.577 139.635,153.493 138.700 C 153.409 137.765,153.340 138.530,153.340 140.400 M175.000 142.000 C 175.859 142.880,176.652 143.600,176.762 143.600 C 176.872 143.600,176.259 142.880,175.400 142.000 C 174.541 141.120,173.748 140.400,173.638 140.400 C 173.528 140.400,174.141 141.120,175.000 142.000 M169.000 152.000 C 171.412 154.420,173.476 156.400,173.586 156.400 C 173.696 156.400,171.812 154.420,169.400 152.000 C 166.988 149.580,164.924 147.600,164.814 147.600 C 164.704 147.600,166.588 149.580,169.000 152.000 M205.600 173.000 C 215.168 182.570,223.087 190.400,223.197 190.400 C 223.307 190.400,215.568 182.570,206.000 173.000 C 196.432 163.430,188.513 155.600,188.403 155.600 C 188.293 155.600,196.032 163.430,205.600 173.000 M221.400 166.800 C 226.677 172.080,231.084 176.400,231.194 176.400 C 231.304 176.400,227.077 172.080,221.800 166.800 C 216.523 161.520,212.116 157.200,212.006 157.200 C 211.896 157.200,216.123 161.520,221.400 166.800 M97.513 159.095 C 98.676 159.176,100.476 159.176,101.513 159.093 C 102.551 159.011,101.600 158.945,99.400 158.946 C 97.200 158.947,96.351 159.014,97.513 159.095 M105.783 176.600 C 105.783 186.060,105.836 189.873,105.900 185.073 C 105.964 180.273,105.963 172.533,105.899 167.873 C 105.836 163.213,105.783 167.140,105.783 176.600 M288.380 161.310 C 288.575 162.958,288.583 162.967,288.719 161.649 C 288.796 160.906,288.706 160.146,288.520 159.960 C 288.333 159.773,288.271 160.381,288.380 161.310 M180.400 163.704 C 180.400 163.761,183.955 167.316,188.300 171.604 L 196.200 179.400 188.404 171.500 C 181.160 164.160,180.400 163.419,180.400 163.704 M315.100 171.096 C 316.475 171.174,318.725 171.174,320.100 171.096 C 321.475 171.018,320.350 170.954,317.600 170.954 C 314.850 170.954,313.725 171.018,315.100 171.096 M259.467 171.867 C 259.320 172.013,259.200 184.163,259.200 198.867 C 259.200 213.570,259.079 225.600,258.931 225.600 C 258.784 225.600,258.289 225.285,257.831 224.900 L 257.000 224.200 257.771 225.110 C 258.195 225.610,258.735 225.955,258.971 225.876 C 259.295 225.769,260.089 171.599,259.767 171.600 C 259.748 171.600,259.613 171.720,259.467 171.867 M261.300 171.887 C 261.905 171.978,262.895 171.978,263.500 171.887 C 264.105 171.795,263.610 171.720,262.400 171.720 C 261.190 171.720,260.695 171.795,261.300 171.887 M272.488 171.850 C 273.081 172.026,273.195 172.732,273.306 176.927 L 273.436 181.800 273.418 176.805 C 273.401 172.110,273.352 171.805,272.600 171.728 C 272.000 171.666,271.972 171.697,272.488 171.850 M323.371 180.800 C 323.371 185.750,323.428 187.775,323.499 185.300 C 323.569 182.825,323.569 178.775,323.499 176.300 C 323.428 173.825,323.371 175.850,323.371 180.800 M288.400 181.933 C 288.400 182.190,287.995 182.421,287.500 182.446 C 286.759 182.485,286.731 182.527,287.342 182.684 C 288.140 182.889,289.125 182.191,288.673 181.740 C 288.523 181.590,288.400 181.677,288.400 181.933 M315.100 191.096 C 316.475 191.174,318.725 191.174,320.100 191.096 C 321.475 191.018,320.350 190.954,317.600 190.954 C 314.850 190.954,313.725 191.018,315.100 191.096 M226.800 194.200 C 227.995 195.410,229.063 196.400,229.173 196.400 C 229.283 196.400,228.395 195.410,227.200 194.200 C 226.005 192.990,224.937 192.000,224.827 192.000 C 224.717 192.000,225.605 192.990,226.800 194.200 M94.501 193.600 C 94.615 194.022,95.246 194.213,96.631 194.243 L 98.600 194.286 96.807 194.115 C 95.820 194.022,94.861 193.732,94.676 193.472 C 94.443 193.146,94.389 193.185,94.501 193.600 M229.400 213.200 C 237.318 221.120,243.886 227.600,243.996 227.600 C 244.106 227.600,237.718 221.120,229.800 213.200 C 221.882 205.280,215.314 198.800,215.204 198.800 C 215.094 198.800,221.482 205.280,229.400 213.200 M195.400 201.600 C 196.259 202.480,197.052 203.200,197.162 203.200 C 197.272 203.200,196.659 202.480,195.800 201.600 C 194.941 200.720,194.148 200.000,194.038 200.000 C 193.928 200.000,194.541 200.720,195.400 201.600 M235.200 202.600 C 236.617 204.030,237.867 205.200,237.977 205.200 C 238.087 205.200,237.017 204.030,235.600 202.600 C 234.183 201.170,232.933 200.000,232.823 200.000 C 232.713 200.000,233.783 201.170,235.200 202.600 M204.600 210.800 C 205.683 211.900,206.660 212.800,206.770 212.800 C 206.880 212.800,206.083 211.900,205.000 210.800 C 203.917 209.700,202.940 208.800,202.830 208.800 C 202.720 208.800,203.517 209.700,204.600 210.800 M283.200 210.600 C 283.946 211.370,284.647 212.000,284.757 212.000 C 284.867 212.000,284.346 211.370,283.600 210.600 C 282.854 209.830,282.153 209.200,282.043 209.200 C 281.933 209.200,282.454 209.830,283.200 210.600 M244.400 211.725 C 244.400 211.794,244.985 212.379,245.700 213.025 L 247.000 214.200 245.825 212.900 C 244.730 211.688,244.400 211.416,244.400 211.725 M274.975 215.300 L 273.800 216.600 275.100 215.425 C 275.815 214.779,276.400 214.194,276.400 214.125 C 276.400 213.816,276.070 214.088,274.975 215.300 M220.400 226.600 C 226.667 232.870,231.885 238.000,231.995 238.000 C 232.105 238.000,227.067 232.870,220.800 226.600 C 214.533 220.330,209.315 215.200,209.205 215.200 C 209.095 215.200,214.133 220.330,220.400 226.600 M248.383 232.100 C 249.364 233.145,250.219 234.000,250.283 234.000 C 250.584 234.000,250.266 233.641,248.500 231.983 L 246.600 230.200 248.383 232.100 M255.400 239.200 C 256.706 240.520,257.865 241.600,257.975 241.600 C 258.085 241.600,257.106 240.520,255.800 239.200 C 254.494 237.880,253.335 236.800,253.225 236.800 C 253.115 236.800,254.094 237.880,255.400 239.200 M285.375 246.100 L 284.200 247.400 285.500 246.225 C 286.215 245.579,286.800 244.994,286.800 244.925 C 286.800 244.616,286.470 244.888,285.375 246.100 M136.192 260.100 L 132.200 264.200 136.300 260.208 C 138.555 258.012,140.400 256.167,140.400 256.108 C 140.400 255.818,139.901 256.292,136.192 260.100 M156.800 266.200 C 158.660 268.070,160.272 269.600,160.382 269.600 C 160.492 269.600,159.060 268.070,157.200 266.200 C 155.340 264.330,153.728 262.800,153.618 262.800 C 153.508 262.800,154.940 264.330,156.800 266.200 M196.173 265.727 C 196.061 266.017,196.023 268.132,196.088 270.427 L 196.205 274.600 196.403 269.899 C 196.598 265.252,196.567 264.699,196.173 265.727 M165.200 274.125 C 165.200 274.194,165.785 274.779,166.500 275.425 L 167.800 276.600 166.625 275.300 C 165.530 274.088,165.200 273.816,165.200 274.125 M200.100 275.098 C 202.245 275.170,205.755 275.170,207.900 275.098 C 210.045 275.026,208.290 274.967,204.000 274.967 C 199.710 274.967,197.955 275.026,200.100 275.098 M226.100 287.497 C 227.585 287.574,230.015 287.574,231.500 287.497 C 232.985 287.420,231.770 287.357,228.800 287.357 C 225.830 287.357,224.615 287.420,226.100 287.497 M274.800 287.479 C 283.234 287.764,291.109 287.774,290.939 287.500 C 290.837 287.335,286.398 287.237,281.076 287.282 C 275.754 287.327,272.930 287.416,274.800 287.479 M222.592 302.567 C 222.599 315.349,222.681 317.356,223.200 317.497 C 223.639 317.617,223.667 317.567,223.305 317.310 C 222.931 317.045,222.783 313.401,222.697 302.380 L 222.585 287.800 222.592 302.567 M128.575 291.300 L 127.400 292.600 128.700 291.425 C 129.912 290.330,130.184 290.000,129.875 290.000 C 129.806 290.000,129.221 290.585,128.575 291.300 M278.501 296.200 C 278.505 297.080,278.587 297.393,278.683 296.895 C 278.779 296.398,278.775 295.678,278.675 295.295 C 278.575 294.913,278.496 295.320,278.501 296.200 M278.753 298.914 C 278.926 299.087,281.033 299.176,283.434 299.112 L 287.800 298.996 283.118 298.798 C 280.544 298.689,278.579 298.741,278.753 298.914 M288.131 302.600 C 288.133 304.140,288.205 304.721,288.292 303.891 C 288.379 303.061,288.377 301.801,288.289 301.091 C 288.200 300.381,288.129 301.060,288.131 302.600 M192.909 302.800 C 192.909 303.790,192.987 304.195,193.082 303.700 C 193.178 303.205,193.178 302.395,193.082 301.900 C 192.987 301.405,192.909 301.810,192.909 302.800 M278.514 307.800 C 278.517 308.900,278.595 309.303,278.687 308.695 C 278.779 308.086,278.777 307.186,278.682 306.695 C 278.587 306.203,278.511 306.700,278.514 307.800 M230.400 308.176 C 230.400 308.933,230.538 309.638,230.707 309.743 C 230.876 309.847,230.948 309.228,230.865 308.366 C 230.681 306.432,230.400 306.318,230.400 308.176 M127.600 312.525 C 127.600 312.594,128.185 313.179,128.900 313.825 L 130.200 315.000 129.025 313.700 C 127.930 312.488,127.600 312.216,127.600 312.525 M167.200 312.525 C 167.200 312.594,167.785 313.179,168.500 313.825 L 169.800 315.000 168.625 313.700 C 167.530 312.488,167.200 312.216,167.200 312.525 M226.716 317.497 C 228.099 317.575,230.259 317.574,231.516 317.495 C 232.772 317.416,231.640 317.352,229.000 317.353 C 226.360 317.353,225.332 317.418,226.716 317.497 M277.700 317.498 C 280.065 317.569,283.935 317.569,286.300 317.498 C 288.665 317.428,286.730 317.370,282.000 317.370 C 277.270 317.370,275.335 317.428,277.700 317.498 " stroke="none" fill="#278bf0" fill-rule="evenodd"></path><path id="path3" d="M273.701 222.200 C 273.705 223.080,273.787 223.393,273.883 222.895 C 273.979 222.398,273.975 221.678,273.875 221.295 C 273.775 220.913,273.696 221.320,273.701 222.200 M284.305 310.283 C 284.802 310.379,285.522 310.375,285.905 310.275 C 286.287 310.175,285.880 310.096,285.000 310.101 C 284.120 310.105,283.807 310.187,284.305 310.283 " stroke="none" fill="#828c8d" fill-rule="evenodd"></path><path id="path4" d="M243.768 75.740 C 243.654 76.037,243.624 77.522,243.702 79.040 L 243.843 81.800 243.922 78.700 C 244.021 74.778,243.421 74.492,251.600 82.363 L 258.600 89.100 258.804 123.850 L 259.009 158.600 259.116 124.000 L 259.224 89.400 251.939 82.300 C 244.568 75.116,244.139 74.772,243.768 75.740 M285.070 80.283 C 280.672 84.348,274.000 90.978,274.000 91.284 C 274.000 91.448,274.765 90.750,275.700 89.733 C 278.966 86.182,287.612 78.360,288.004 78.603 C 288.222 78.737,288.400 78.657,288.400 78.424 C 288.400 77.547,287.466 78.069,285.070 80.283 M210.599 78.693 L 215.600 78.824 215.600 83.412 L 215.600 88.000 206.216 88.000 L 196.831 88.000 196.691 84.599 L 196.550 81.198 196.575 84.699 L 196.600 88.200 206.200 88.200 L 215.800 88.200 215.800 83.400 L 215.800 78.600 210.699 78.581 L 205.599 78.563 210.599 78.693 M131.292 85.171 C 132.597 85.353,133.574 85.802,134.442 86.617 C 135.343 87.464,135.553 87.558,135.183 86.947 C 134.400 85.655,132.654 84.794,130.938 84.853 C 129.430 84.906,129.437 84.912,131.292 85.171 M127.436 86.431 C 126.866 87.108,126.401 87.873,126.401 88.131 C 126.402 88.389,126.750 88.031,127.174 87.335 C 127.598 86.639,128.273 85.880,128.673 85.647 C 129.073 85.415,129.191 85.219,128.936 85.212 C 128.680 85.205,128.005 85.754,127.436 86.431 M288.584 103.400 C 288.584 113.080,288.636 116.983,288.700 112.073 C 288.763 107.163,288.763 99.243,288.700 94.473 C 288.636 89.703,288.584 93.720,288.584 103.400 M126.006 89.833 C 126.009 90.475,126.184 91.270,126.395 91.600 C 126.655 92.009,126.699 91.690,126.532 90.600 C 126.229 88.623,125.998 88.286,126.006 89.833 M127.153 93.091 C 127.654 94.049,129.121 95.013,129.501 94.632 C 129.629 94.505,129.515 94.400,129.248 94.400 C 128.980 94.400,128.295 93.905,127.725 93.300 C 126.867 92.389,126.769 92.353,127.153 93.091 M134.375 93.406 C 133.804 93.978,132.597 94.564,131.584 94.763 C 130.242 95.026,130.082 95.123,130.940 95.156 C 132.383 95.212,134.705 94.124,135.228 93.148 C 135.763 92.149,135.577 92.205,134.375 93.406 M273.781 106.600 C 273.780 114.520,273.834 117.817,273.899 113.926 C 273.965 110.035,273.965 103.555,273.900 99.526 C 273.834 95.497,273.781 98.680,273.781 106.600 M149.700 100.676 C 150.085 100.776,150.715 100.776,151.100 100.676 C 151.485 100.575,151.170 100.493,150.400 100.493 C 149.630 100.493,149.315 100.575,149.700 100.676 M135.500 109.968 C 130.935 114.571,127.200 118.536,127.200 118.779 C 127.200 119.022,128.256 118.001,129.546 116.510 C 130.837 115.020,134.696 111.055,138.121 107.700 C 141.547 104.345,144.226 101.600,144.075 101.600 C 143.924 101.600,140.065 105.366,135.500 109.968 M157.200 103.528 C 160.041 105.354,177.013 122.277,236.903 183.000 C 243.706 189.898,244.497 190.408,244.339 187.800 C 244.298 187.110,244.267 187.124,244.118 187.900 C 243.820 189.444,243.114 188.953,237.782 183.502 C 180.392 124.829,156.780 101.600,154.530 101.600 C 154.348 101.600,155.550 102.468,157.200 103.528 M145.522 120.322 C 143.365 122.479,141.601 124.504,141.601 124.822 C 141.602 125.140,141.939 124.860,142.349 124.200 C 143.234 122.776,149.335 116.800,149.903 116.800 C 150.120 116.800,158.912 125.485,169.440 136.100 C 207.356 174.330,258.600 225.600,258.894 225.600 C 259.059 225.600,259.241 213.495,259.297 198.700 L 259.400 171.800 266.400 171.800 L 273.400 171.800 273.600 177.000 L 273.800 182.200 274.800 182.239 C 275.647 182.271,275.664 182.252,274.911 182.113 C 274.053 181.955,274.019 181.767,273.911 176.675 L 273.800 171.400 266.629 171.290 C 261.161 171.207,259.382 171.302,259.136 171.690 C 258.958 171.971,258.808 184.170,258.803 198.800 L 258.794 225.400 224.687 191.200 C 205.928 172.390,181.538 147.865,170.486 136.700 C 159.435 125.535,150.180 116.400,149.919 116.400 C 149.657 116.400,147.679 118.165,145.522 120.322 M126.998 191.800 L 127.000 264.200 129.382 264.322 L 131.764 264.445 136.682 259.451 L 141.600 254.458 141.501 189.929 L 141.402 125.400 141.300 189.927 L 141.198 254.455 136.499 259.229 L 131.800 264.002 129.501 264.001 L 127.202 264.000 127.099 191.700 L 126.997 119.400 126.998 191.800 M274.000 121.925 C 274.000 122.561,280.799 129.600,281.413 129.600 C 281.958 129.600,288.400 122.869,288.400 122.299 C 288.400 122.119,287.827 122.653,287.126 123.486 C 284.844 126.198,281.837 129.200,281.403 129.200 C 280.940 129.200,276.254 124.504,274.864 122.646 C 274.389 122.011,274.000 121.687,274.000 121.925 M153.699 199.900 L 153.797 262.600 153.900 200.067 C 153.956 165.674,154.137 137.594,154.301 137.667 C 154.466 137.740,162.789 146.170,172.799 156.400 C 188.898 172.854,209.474 193.652,246.600 230.999 C 252.761 237.195,258.211 242.485,258.712 242.753 C 259.214 243.021,258.133 241.809,256.312 240.059 C 245.620 229.788,169.002 152.349,157.413 140.100 C 155.904 138.505,154.428 137.200,154.134 137.200 C 153.690 137.200,153.617 147.806,153.699 199.900 M94.799 159.488 C 94.799 159.660,97.139 159.745,99.999 159.678 L 105.200 159.556 105.200 176.548 C 105.200 192.387,105.152 193.555,104.500 193.748 C 103.956 193.908,103.978 193.936,104.600 193.872 C 105.386 193.790,105.400 193.495,105.400 176.595 L 105.400 159.400 100.100 159.288 C 97.185 159.227,94.800 159.317,94.799 159.488 M259.200 159.695 C 259.200 159.857,265.635 160.037,273.500 160.095 L 287.800 160.200 288.028 163.200 L 288.256 166.200 288.328 163.100 C 288.368 161.395,288.355 159.962,288.300 159.915 C 288.006 159.664,259.199 159.447,259.200 159.695 M312.223 171.889 C 312.006 172.459,312.052 172.501,312.456 172.100 C 312.804 171.754,314.479 171.600,317.880 171.600 L 322.800 171.600 322.800 181.000 L 322.800 190.400 317.833 190.400 C 314.840 190.400,312.786 190.237,312.663 189.990 C 312.552 189.764,312.507 189.810,312.563 190.090 C 312.641 190.472,313.967 190.600,317.833 190.600 L 323.000 190.600 323.000 181.000 L 323.000 171.400 317.747 171.289 C 313.021 171.189,312.467 171.249,312.223 171.889 M168.184 175.227 C 168.039 175.461,168.028 175.761,168.160 175.893 C 168.292 176.025,168.400 175.923,168.400 175.667 C 168.400 174.429,171.917 177.812,209.077 214.802 C 230.958 236.584,249.163 254.566,249.531 254.764 C 249.899 254.961,246.240 251.228,241.400 246.468 C 236.560 241.709,218.378 223.636,200.997 206.307 C 170.599 176.002,168.773 174.273,168.184 175.227 M288.000 181.572 C 288.000 181.777,287.595 182.022,287.100 182.118 C 286.328 182.266,286.357 182.299,287.300 182.346 C 288.035 182.382,288.400 182.201,288.400 181.800 C 288.400 181.470,288.310 181.200,288.200 181.200 C 288.090 181.200,288.000 181.367,288.000 181.572 M94.800 193.700 C 94.800 193.865,96.105 193.975,97.700 193.946 C 100.754 193.888,100.421 193.709,96.900 193.516 C 95.745 193.452,94.800 193.535,94.800 193.700 M280.580 209.909 C 280.129 210.289,278.515 211.950,276.993 213.600 C 274.296 216.524,274.320 216.509,277.913 213.009 L 281.599 209.417 282.542 210.409 C 283.061 210.954,284.591 212.610,285.943 214.090 C 287.294 215.569,288.400 216.678,288.400 216.552 C 288.400 216.225,281.935 209.198,281.644 209.209 C 281.510 209.214,281.031 209.529,280.580 209.909 M273.701 219.400 C 273.705 220.280,273.787 220.593,273.883 220.095 C 273.979 219.598,273.975 218.878,273.875 218.495 C 273.775 218.113,273.696 218.520,273.701 219.400 M288.109 221.600 C 288.109 222.590,288.187 222.995,288.282 222.500 C 288.378 222.005,288.378 221.195,288.282 220.700 C 288.187 220.205,288.109 220.610,288.109 221.600 M273.759 231.600 C 273.759 234.790,273.821 236.095,273.897 234.500 C 273.973 232.905,273.973 230.295,273.897 228.700 C 273.821 227.105,273.759 228.410,273.759 231.600 M271.727 239.469 C 270.887 240.497,269.400 241.847,268.422 242.469 C 267.444 243.091,266.832 243.600,267.062 243.600 C 267.832 243.600,270.584 241.354,272.127 239.467 C 272.967 238.440,273.564 237.600,273.454 237.600 C 273.344 237.600,272.567 238.441,271.727 239.469 M288.000 242.169 C 288.000 243.165,274.996 255.683,272.495 257.095 C 271.233 257.808,270.380 258.391,270.600 258.391 C 271.921 258.395,275.830 255.255,281.700 249.476 C 287.353 243.910,289.260 241.600,288.200 241.600 C 288.090 241.600,288.000 241.856,288.000 242.169 M260.400 243.582 C 260.730 243.805,261.345 243.991,261.767 243.994 C 262.790 244.002,262.471 243.773,261.000 243.444 C 260.124 243.248,259.962 243.285,260.400 243.582 M256.400 257.766 C 256.950 258.060,257.850 258.412,258.400 258.549 C 258.950 258.686,258.680 258.452,257.800 258.029 C 255.990 257.158,254.868 256.948,256.400 257.766 M160.800 269.541 C 167.616 276.194,168.400 276.858,168.400 275.976 C 168.400 275.743,168.240 275.651,168.045 275.772 C 167.850 275.893,167.468 275.723,167.195 275.394 C 166.923 275.066,163.797 272.077,160.250 268.753 L 153.800 262.708 160.800 269.541 M196.900 265.465 C 196.625 265.576,196.400 265.854,196.400 266.082 C 196.400 266.357,196.580 266.349,196.931 266.057 C 197.270 265.776,200.494 265.574,205.831 265.500 L 214.200 265.383 205.800 265.323 C 201.180 265.290,197.175 265.354,196.900 265.465 M214.900 266.032 C 215.369 266.305,215.622 266.993,215.667 268.120 L 215.734 269.800 215.893 268.272 C 216.051 266.750,215.509 265.589,214.651 265.612 C 214.403 265.619,214.515 265.808,214.900 266.032 M282.555 267.012 C 282.190 267.569,281.964 268.098,282.053 268.187 C 282.142 268.276,282.518 267.820,282.889 267.174 C 283.714 265.736,283.469 265.617,282.555 267.012 M290.150 267.356 C 290.741 268.232,291.226 269.542,291.260 270.356 C 291.313 271.631,291.340 271.667,291.491 270.657 C 291.696 269.282,291.025 267.524,289.913 266.529 C 289.289 265.970,289.344 266.163,290.150 267.356 M196.481 271.300 L 196.400 274.800 203.900 274.710 L 211.400 274.619 204.116 274.501 L 196.832 274.382 196.697 271.091 L 196.563 267.800 196.481 271.300 M281.701 270.200 C 281.705 271.080,281.787 271.393,281.883 270.895 C 281.979 270.398,281.975 269.678,281.875 269.295 C 281.775 268.913,281.696 269.320,281.701 270.200 M215.600 272.567 C 215.600 273.606,215.394 274.416,215.100 274.535 C 214.801 274.656,214.882 274.750,215.300 274.768 C 215.878 274.794,216.000 274.450,216.000 272.800 C 216.000 271.700,215.910 270.800,215.800 270.800 C 215.690 270.800,215.600 271.595,215.600 272.567 M282.020 272.200 C 282.013 273.644,284.521 275.226,286.674 275.136 L 288.200 275.072 286.800 274.922 C 284.667 274.693,283.437 274.083,282.695 272.886 C 282.324 272.289,282.021 271.980,282.020 272.200 M289.757 273.422 C 289.073 274.180,288.636 274.800,288.787 274.800 C 289.088 274.800,290.516 273.291,290.964 272.500 C 291.420 271.694,291.083 271.952,289.757 273.422 M137.907 287.490 C 138.626 287.579,139.706 287.577,140.307 287.486 C 140.908 287.395,140.320 287.322,139.000 287.324 C 137.680 287.326,137.188 287.401,137.907 287.490 M177.705 287.487 C 178.314 287.579,179.214 287.577,179.705 287.482 C 180.197 287.387,179.700 287.311,178.600 287.314 C 177.500 287.317,177.097 287.395,177.705 287.487 M133.800 288.186 C 132.222 288.908,132.579 288.920,134.800 288.221 C 135.790 287.909,136.240 287.650,135.800 287.645 C 135.360 287.640,134.460 287.883,133.800 288.186 M143.000 288.160 C 143.880 288.438,145.185 288.970,145.900 289.343 C 146.615 289.716,147.200 289.918,147.200 289.792 C 147.200 289.402,143.046 287.607,142.200 287.631 C 141.760 287.643,142.120 287.881,143.000 288.160 M222.979 288.109 C 222.872 288.390,222.836 292.575,222.900 297.409 L 223.016 306.200 223.108 297.110 L 223.200 288.020 229.500 287.899 L 235.800 287.778 229.487 287.689 C 224.678 287.621,223.128 287.721,222.979 288.109 M271.200 287.900 C 271.200 288.065,275.610 288.200,281.000 288.200 C 286.390 288.200,290.800 288.065,290.800 287.900 C 290.800 287.735,286.390 287.600,281.000 287.600 C 275.610 287.600,271.200 287.735,271.200 287.900 M171.880 288.837 C 170.144 289.754,167.477 292.295,166.808 293.670 C 166.493 294.317,166.633 294.235,167.267 293.400 C 168.845 291.321,170.534 289.910,172.600 288.943 C 173.700 288.429,174.330 288.014,174.000 288.022 C 173.670 288.029,172.716 288.396,171.880 288.837 M184.800 289.239 C 185.570 289.700,187.099 290.914,188.197 291.938 C 189.875 293.502,189.971 293.552,188.797 292.250 C 187.229 290.511,184.509 288.399,183.840 288.401 C 183.598 288.402,184.030 288.779,184.800 289.239 M130.560 289.933 C 129.702 290.557,128.730 291.412,128.400 291.833 C 128.070 292.255,128.434 292.060,129.209 291.400 C 129.985 290.740,131.065 289.894,131.609 289.521 C 132.154 289.148,132.492 288.833,132.360 288.821 C 132.228 288.809,131.418 289.310,130.560 289.933 M148.156 290.677 C 148.868 291.537,148.857 291.586,147.646 293.077 C 146.966 293.915,146.084 295.025,145.686 295.543 L 144.962 296.487 143.581 295.645 C 142.822 295.182,142.020 294.804,141.800 294.806 C 141.580 294.808,142.208 295.271,143.194 295.835 L 144.989 296.861 145.794 295.866 C 146.238 295.319,147.209 294.119,147.953 293.199 L 149.306 291.528 148.368 290.664 L 147.430 289.800 148.156 290.677 M243.058 291.860 C 244.191 292.968,245.488 294.578,245.941 295.438 C 246.394 296.297,246.773 296.806,246.782 296.569 C 246.817 295.715,244.301 292.390,242.668 291.130 C 241.142 289.954,241.175 290.016,243.058 291.860 M126.796 294.100 C 126.360 294.815,126.002 295.565,126.001 295.767 C 126.000 296.223,126.056 296.148,127.114 294.300 C 128.166 292.463,127.897 292.294,126.796 294.100 M190.678 295.395 C 191.044 296.162,191.414 296.719,191.501 296.632 C 191.684 296.449,190.470 294.000,190.196 294.000 C 190.095 294.000,190.312 294.628,190.678 295.395 M177.500 294.682 C 177.995 294.778,178.805 294.778,179.300 294.682 C 179.795 294.587,179.390 294.509,178.400 294.509 C 177.410 294.509,177.005 294.587,177.500 294.682 M230.267 294.667 C 229.933 295.000,229.911 308.904,230.243 309.767 C 230.425 310.243,230.995 310.384,232.543 310.337 L 234.600 310.274 232.600 310.037 L 230.600 309.800 230.491 302.320 L 230.382 294.840 232.691 294.696 L 235.000 294.551 232.767 294.476 C 231.538 294.434,230.413 294.520,230.267 294.667 M278.164 294.951 C 278.047 295.254,278.008 296.379,278.076 297.451 L 278.200 299.400 282.900 299.513 L 287.600 299.625 287.600 302.379 C 287.600 304.208,287.432 305.201,287.100 305.335 C 286.808 305.453,286.897 305.550,287.317 305.568 C 287.957 305.597,288.021 305.266,287.917 302.500 L 287.800 299.400 283.065 299.287 L 278.330 299.174 278.465 296.786 C 278.603 294.354,278.540 293.971,278.164 294.951 M134.213 296.213 C 133.436 296.991,132.801 297.846,132.803 298.113 C 132.804 298.381,133.145 298.085,133.559 297.457 C 133.974 296.828,134.828 295.974,135.457 295.559 C 136.085 295.145,136.381 294.804,136.113 294.803 C 135.846 294.801,134.991 295.436,134.213 296.213 M174.487 295.900 C 173.868 296.505,173.730 296.710,174.181 296.355 C 174.631 296.000,175.360 295.510,175.800 295.267 C 176.240 295.023,176.378 294.819,176.106 294.812 C 175.835 294.805,175.106 295.295,174.487 295.900 M181.000 295.266 C 181.440 295.508,182.258 296.088,182.819 296.554 C 183.379 297.019,183.246 296.815,182.524 296.100 C 181.802 295.385,180.984 294.805,180.706 294.812 C 180.428 294.819,180.560 295.023,181.000 295.266 M236.200 295.448 C 236.860 295.786,237.926 296.634,238.568 297.332 C 239.474 298.315,239.599 298.375,239.127 297.600 C 238.476 296.531,236.170 294.790,235.441 294.816 C 235.198 294.825,235.540 295.109,236.200 295.448 M132.249 299.415 C 132.112 299.773,132.029 301.176,132.065 302.533 L 132.129 305.000 132.384 302.000 C 132.657 298.778,132.638 298.404,132.249 299.415 M124.524 302.600 C 124.526 303.920,124.601 304.412,124.690 303.693 C 124.779 302.974,124.777 301.894,124.686 301.293 C 124.595 300.692,124.522 301.280,124.524 302.600 M171.720 302.400 C 171.720 303.610,171.795 304.105,171.887 303.500 C 171.978 302.895,171.978 301.905,171.887 301.300 C 171.795 300.695,171.720 301.190,171.720 302.400 M192.524 302.600 C 192.526 303.920,192.601 304.412,192.690 303.693 C 192.779 302.974,192.777 301.894,192.686 301.293 C 192.595 300.692,192.522 301.280,192.524 302.600 M247.701 302.600 C 247.705 303.480,247.787 303.793,247.883 303.295 C 247.979 302.798,247.975 302.078,247.875 301.695 C 247.775 301.313,247.696 301.720,247.701 302.600 M239.677 305.337 C 239.400 306.104,238.594 307.311,237.886 308.019 C 236.810 309.096,236.767 309.200,237.624 308.657 C 238.726 307.958,240.551 305.053,240.321 304.363 C 240.244 304.132,239.954 304.571,239.677 305.337 M172.000 305.277 C 172.000 306.088,174.180 309.054,175.161 309.579 C 176.546 310.320,176.562 310.030,175.189 309.100 C 174.458 308.605,173.441 307.407,172.930 306.437 C 172.418 305.467,172.000 304.945,172.000 305.277 M247.050 306.050 C 246.909 306.753,246.869 307.402,246.959 307.492 C 247.050 307.583,247.248 307.091,247.400 306.400 C 247.552 305.709,247.593 305.059,247.491 304.958 C 247.389 304.856,247.191 305.347,247.050 306.050 M132.407 305.441 C 132.382 307.102,136.140 310.431,137.959 310.359 C 138.867 310.323,138.827 310.277,137.649 309.999 C 135.810 309.565,134.373 308.428,133.307 306.562 C 132.815 305.703,132.410 305.198,132.407 305.441 M278.267 305.867 C 277.900 306.233,277.929 309.909,278.300 310.138 C 278.465 310.240,278.600 309.261,278.600 307.962 C 278.600 306.663,278.585 305.600,278.567 305.600 C 278.548 305.600,278.413 305.720,278.267 305.867 M125.200 307.160 C 125.200 309.042,128.936 314.069,131.263 315.317 C 132.549 316.007,132.562 316.007,131.609 315.317 C 129.098 313.498,127.922 312.133,126.612 309.516 C 125.836 307.963,125.200 306.903,125.200 307.160 M144.000 308.456 L 143.000 309.295 144.086 308.647 C 145.587 307.752,145.566 307.743,147.747 310.230 L 149.693 312.449 148.758 313.525 L 147.823 314.600 148.966 313.536 L 150.110 312.472 147.966 310.036 C 145.583 307.328,145.422 307.264,144.000 308.456 M165.207 308.116 C 165.176 309.457,168.121 313.486,170.132 314.853 C 170.943 315.405,170.715 315.083,169.497 313.958 C 168.450 312.991,167.059 311.210,166.404 310.000 C 165.750 308.790,165.211 307.942,165.207 308.116 M245.973 309.266 C 245.684 309.963,244.447 311.532,243.224 312.753 C 241.326 314.648,241.245 314.783,242.668 313.679 C 244.660 312.132,247.557 308.000,246.649 308.000 C 246.565 308.000,246.261 308.570,245.973 309.266 M190.419 310.246 C 189.893 311.238,188.549 312.876,187.431 313.885 C 186.314 314.895,185.771 315.526,186.225 315.287 C 187.937 314.385,192.076 309.143,191.517 308.584 C 191.440 308.506,190.945 309.254,190.419 310.246 M222.883 313.300 L 222.800 317.200 229.100 317.111 L 235.400 317.022 229.315 316.901 L 223.230 316.779 223.098 313.090 L 222.966 309.400 222.883 313.300 M177.500 310.282 C 177.995 310.378,178.805 310.378,179.300 310.282 C 179.795 310.187,179.390 310.109,178.400 310.109 C 177.410 310.109,177.005 310.187,177.500 310.282 M288.400 310.365 L 290.600 310.600 290.717 313.714 L 290.834 316.827 281.017 316.714 C 275.617 316.651,271.200 316.738,271.200 316.907 C 271.200 317.076,275.655 317.166,281.100 317.107 L 291.000 317.000 291.118 314.063 C 291.266 310.405,290.960 309.979,288.251 310.065 L 286.200 310.130 288.400 310.365 M145.400 315.634 C 144.300 316.265,143.542 316.786,143.716 316.791 C 144.231 316.806,147.125 315.246,147.396 314.806 C 147.712 314.296,147.782 314.267,145.400 315.634 M171.815 316.024 C 172.047 316.399,174.785 317.348,175.005 317.129 C 175.088 317.046,174.360 316.692,173.387 316.342 C 172.414 315.992,171.707 315.849,171.815 316.024 M137.491 317.489 C 138.201 317.577,139.461 317.579,140.291 317.492 C 141.121 317.405,140.540 317.333,139.000 317.331 C 137.460 317.329,136.781 317.400,137.491 317.489 M176.691 317.489 C 177.401 317.577,178.661 317.579,179.491 317.492 C 180.321 317.405,179.740 317.333,178.200 317.331 C 176.660 317.329,175.981 317.400,176.691 317.489 " stroke="none" fill="#8c8c8e" fill-rule="evenodd"></path><path id="path5" d="M246.400 77.000 C 247.146 77.770,247.847 78.400,247.957 78.400 C 248.067 78.400,247.546 77.770,246.800 77.000 C 246.054 76.230,245.353 75.600,245.243 75.600 C 245.133 75.600,245.654 76.230,246.400 77.000 M201.100 78.298 C 203.355 78.370,207.045 78.370,209.300 78.298 C 211.555 78.227,209.710 78.169,205.200 78.169 C 200.690 78.169,198.845 78.227,201.100 78.298 M288.534 82.000 C 288.534 83.650,288.605 84.325,288.691 83.500 C 288.778 82.675,288.778 81.325,288.691 80.500 C 288.605 79.675,288.534 80.350,288.534 82.000 M243.794 135.600 C 243.794 164.970,243.842 176.985,243.900 162.300 C 243.958 147.615,243.958 123.585,243.900 108.900 C 243.842 94.215,243.794 106.230,243.794 135.600 M136.093 90.000 C 136.093 90.770,136.175 91.085,136.276 90.700 C 136.376 90.315,136.376 89.685,136.276 89.300 C 136.175 88.915,136.093 89.230,136.093 90.000 M170.200 115.200 C 173.715 118.720,176.681 121.600,176.791 121.600 C 176.901 121.600,174.115 118.720,170.600 115.200 C 167.085 111.680,164.119 108.800,164.009 108.800 C 163.899 108.800,166.685 111.680,170.200 115.200 M178.800 123.800 C 179.546 124.570,180.247 125.200,180.357 125.200 C 180.467 125.200,179.946 124.570,179.200 123.800 C 178.454 123.030,177.753 122.400,177.643 122.400 C 177.533 122.400,178.054 123.030,178.800 123.800 M162.400 145.400 C 163.595 146.610,164.663 147.600,164.773 147.600 C 164.883 147.600,163.995 146.610,162.800 145.400 C 161.605 144.190,160.537 143.200,160.427 143.200 C 160.317 143.200,161.205 144.190,162.400 145.400 M181.600 148.600 C 184.343 151.350,186.678 153.600,186.788 153.600 C 186.898 153.600,184.743 151.350,182.000 148.600 C 179.257 145.850,176.922 143.600,176.812 143.600 C 176.702 143.600,178.857 145.850,181.600 148.600 M208.200 153.600 C 210.171 155.580,211.873 157.200,211.983 157.200 C 212.093 157.200,210.571 155.580,208.600 153.600 C 206.629 151.620,204.927 150.000,204.817 150.000 C 204.707 150.000,206.229 151.620,208.200 153.600 M177.000 160.400 C 178.750 162.160,180.271 163.600,180.381 163.600 C 180.491 163.600,179.150 162.160,177.400 160.400 C 175.650 158.640,174.129 157.200,174.019 157.200 C 173.909 157.200,175.250 158.640,177.000 160.400 M94.583 176.400 C 94.583 185.750,94.636 189.575,94.700 184.900 C 94.764 180.225,94.764 172.575,94.700 167.900 C 94.636 163.225,94.583 167.050,94.583 176.400 M288.573 172.200 C 288.573 177.480,288.630 179.585,288.699 176.877 C 288.768 174.169,288.768 169.849,288.699 167.277 C 288.629 164.705,288.572 166.920,288.573 172.200 M312.170 181.400 C 312.171 186.240,312.229 188.165,312.299 185.678 C 312.369 183.191,312.369 179.231,312.298 176.878 C 312.228 174.525,312.170 176.560,312.170 181.400 M168.594 225.600 C 168.594 253.430,168.642 264.815,168.700 250.900 C 168.758 236.985,168.758 214.215,168.700 200.300 C 168.642 186.385,168.594 197.770,168.594 225.600 M180.200 186.400 C 184.376 190.580,187.882 194.000,187.992 194.000 C 188.102 194.000,184.776 190.580,180.600 186.400 C 176.424 182.220,172.918 178.800,172.808 178.800 C 172.698 178.800,176.024 182.220,180.200 186.400 M204.400 188.200 C 208.906 192.710,212.683 196.400,212.793 196.400 C 212.903 196.400,209.306 192.710,204.800 188.200 C 200.294 183.690,196.517 180.000,196.407 180.000 C 196.297 180.000,199.894 183.690,204.400 188.200 M237.400 183.200 C 238.706 184.520,239.865 185.600,239.975 185.600 C 240.085 185.600,239.106 184.520,237.800 183.200 C 236.494 181.880,235.335 180.800,235.225 180.800 C 235.115 180.800,236.094 181.880,237.400 183.200 M277.519 182.698 C 279.344 182.772,282.224 182.772,283.919 182.697 C 285.614 182.622,284.120 182.561,280.600 182.562 C 277.080 182.562,275.694 182.624,277.519 182.698 M240.800 186.525 C 240.800 186.594,241.385 187.179,242.100 187.825 L 243.400 189.000 242.225 187.700 C 241.130 186.488,240.800 186.216,240.800 186.525 M99.911 194.293 C 100.851 194.378,102.291 194.377,103.111 194.291 C 103.930 194.205,103.160 194.136,101.400 194.137 C 99.640 194.139,98.970 194.209,99.911 194.293 M191.000 197.200 C 192.528 198.740,193.869 200.000,193.979 200.000 C 194.089 200.000,192.928 198.740,191.400 197.200 C 189.872 195.660,188.531 194.400,188.421 194.400 C 188.311 194.400,189.472 195.660,191.000 197.200 M199.800 206.000 C 201.328 207.540,202.669 208.800,202.779 208.800 C 202.889 208.800,201.728 207.540,200.200 206.000 C 198.672 204.460,197.331 203.200,197.221 203.200 C 197.111 203.200,198.272 204.460,199.800 206.000 M239.400 206.800 C 240.259 207.680,241.052 208.400,241.162 208.400 C 241.272 208.400,240.659 207.680,239.800 206.800 C 238.941 205.920,238.148 205.200,238.038 205.200 C 237.928 205.200,238.541 205.920,239.400 206.800 M253.800 221.200 C 255.550 222.960,257.071 224.400,257.181 224.400 C 257.291 224.400,255.950 222.960,254.200 221.200 C 252.450 219.440,250.929 218.000,250.819 218.000 C 250.709 218.000,252.050 219.440,253.800 221.200 M288.578 230.000 C 288.578 236.710,288.632 239.455,288.699 236.100 C 288.766 232.745,288.766 227.255,288.699 223.900 C 288.632 220.545,288.578 223.290,288.578 230.000 M240.800 246.600 C 244.645 250.450,247.881 253.600,247.991 253.600 C 248.101 253.600,245.045 250.450,241.200 246.600 C 237.355 242.750,234.119 239.600,234.009 239.600 C 233.899 239.600,236.955 242.750,240.800 246.600 M262.900 243.876 C 263.285 243.976,263.915 243.976,264.300 243.876 C 264.685 243.775,264.370 243.693,263.600 243.693 C 262.830 243.693,262.515 243.775,262.900 243.876 M280.378 250.700 L 279.000 252.200 280.500 250.822 C 281.896 249.538,282.184 249.200,281.878 249.200 C 281.812 249.200,281.137 249.875,280.378 250.700 M263.500 259.882 C 263.995 259.978,264.805 259.978,265.300 259.882 C 265.795 259.787,265.390 259.709,264.400 259.709 C 263.410 259.709,263.005 259.787,263.500 259.882 M216.128 270.400 C 216.128 271.830,216.201 272.415,216.289 271.700 C 216.378 270.985,216.378 269.815,216.289 269.100 C 216.201 268.385,216.128 268.970,216.128 270.400 M163.000 272.000 C 164.083 273.100,165.060 274.000,165.170 274.000 C 165.280 274.000,164.483 273.100,163.400 272.000 C 162.317 270.900,161.340 270.000,161.230 270.000 C 161.120 270.000,161.917 270.900,163.000 272.000 M212.300 275.082 C 212.795 275.178,213.605 275.178,214.100 275.082 C 214.595 274.987,214.190 274.909,213.200 274.909 C 212.210 274.909,211.805 274.987,212.300 275.082 M290.937 291.000 C 290.939 292.760,291.009 293.430,291.093 292.489 C 291.178 291.549,291.177 290.109,291.091 289.289 C 291.005 288.470,290.936 289.240,290.937 291.000 M270.980 302.400 C 270.980 310.210,271.034 313.405,271.099 309.500 C 271.165 305.595,271.165 299.205,271.099 295.300 C 271.034 291.395,270.980 294.590,270.980 302.400 M281.500 294.697 C 283.095 294.773,285.705 294.773,287.300 294.697 C 288.895 294.621,287.590 294.559,284.400 294.559 C 281.210 294.559,279.905 294.621,281.500 294.697 M240.101 302.200 C 240.105 303.080,240.187 303.393,240.283 302.895 C 240.379 302.398,240.375 301.678,240.275 301.295 C 240.175 300.913,240.096 301.320,240.101 302.200 M280.915 305.896 C 282.188 305.976,284.168 305.975,285.315 305.894 C 286.462 305.814,285.420 305.749,283.000 305.750 C 280.580 305.751,279.642 305.816,280.915 305.896 M147.600 309.725 C 147.600 309.794,148.185 310.379,148.900 311.025 L 150.200 312.200 149.025 310.900 C 147.930 309.688,147.600 309.416,147.600 309.725 M281.505 310.283 C 282.002 310.379,282.722 310.375,283.105 310.275 C 283.487 310.175,283.080 310.096,282.200 310.101 C 281.320 310.105,281.007 310.187,281.505 310.283 " stroke="none" fill="#82848c" fill-rule="evenodd"></path><path id="path6" d="M244.448 74.500 C 244.548 74.555,248.043 77.930,252.215 82.000 L 259.800 89.400 252.404 81.900 C 248.336 77.775,244.841 74.400,244.637 74.400 C 244.433 74.400,244.348 74.445,244.448 74.500 M280.596 83.445 C 276.957 86.880,273.804 90.018,273.590 90.419 C 272.901 91.707,273.173 91.790,274.111 90.578 C 275.317 89.020,285.924 78.705,287.189 77.860 C 287.733 77.497,287.961 77.200,287.696 77.200 C 287.430 77.200,284.236 80.010,280.596 83.445 M195.774 78.123 C 195.664 78.411,195.631 80.796,195.701 83.423 L 195.828 88.200 195.914 83.123 L 196.000 78.046 197.700 77.893 L 199.400 77.740 197.687 77.670 C 196.592 77.625,195.903 77.788,195.774 78.123 M208.200 77.987 L 216.200 78.200 216.419 83.200 L 216.638 88.200 216.719 83.380 C 216.824 77.135,217.506 77.581,208.020 77.687 L 200.200 77.774 208.200 77.987 M288.928 83.200 C 288.928 84.630,289.001 85.215,289.089 84.500 C 289.178 83.785,289.178 82.615,289.089 81.900 C 289.001 81.185,288.928 81.770,288.928 83.200 M243.299 134.370 L 243.200 187.739 242.100 186.781 L 241.000 185.823 242.088 186.990 C 242.686 187.632,243.272 188.061,243.389 187.944 C 243.507 187.827,243.557 163.716,243.500 134.365 L 243.397 81.000 243.299 134.370 M130.305 84.283 C 130.802 84.379,131.522 84.375,131.905 84.275 C 132.287 84.175,131.880 84.096,131.000 84.101 C 130.120 84.105,129.807 84.187,130.305 84.283 M127.692 85.021 C 127.205 85.362,126.609 86.037,126.368 86.521 C 126.003 87.252,126.086 87.223,126.864 86.343 C 127.379 85.761,128.160 85.092,128.600 84.855 C 129.040 84.618,129.215 84.419,128.989 84.412 C 128.763 84.405,128.179 84.679,127.692 85.021 M133.400 84.867 C 133.840 85.110,134.569 85.600,135.019 85.955 C 135.470 86.310,135.332 86.105,134.713 85.500 C 134.094 84.895,133.365 84.405,133.094 84.412 C 132.822 84.419,132.960 84.623,133.400 84.867 M136.520 90.000 C 136.520 91.210,136.595 91.705,136.687 91.100 C 136.778 90.495,136.778 89.505,136.687 88.900 C 136.595 88.295,136.520 88.790,136.520 90.000 M259.694 124.076 C 259.642 143.148,259.735 158.836,259.900 158.938 C 260.172 159.106,260.169 134.213,259.894 101.800 C 259.836 94.980,259.746 105.004,259.694 124.076 M147.900 99.889 C 148.615 99.978,149.785 99.978,150.500 99.889 C 151.215 99.801,150.630 99.728,149.200 99.728 C 147.770 99.728,147.185 99.801,147.900 99.889 M142.991 101.666 C 140.808 103.403,137.217 106.862,136.788 107.641 C 136.594 107.994,137.642 107.079,139.117 105.609 C 140.593 104.139,142.592 102.365,143.560 101.668 C 144.528 100.971,145.154 100.400,144.951 100.400 C 144.748 100.400,143.866 100.970,142.991 101.666 M159.201 103.630 C 159.311 103.723,164.351 108.657,170.401 114.593 L 181.400 125.386 171.400 115.267 C 165.900 109.701,160.860 104.767,160.200 104.303 C 159.540 103.839,159.090 103.536,159.201 103.630 M130.418 114.135 L 127.436 117.400 130.147 114.800 C 132.357 112.679,134.070 110.663,133.514 110.835 C 133.451 110.855,132.058 112.340,130.418 114.135 M147.329 119.500 C 146.020 120.765,145.680 121.164,146.574 120.386 C 147.468 119.609,148.613 118.629,149.117 118.209 L 150.035 117.445 156.117 123.422 L 162.200 129.400 156.205 123.300 C 149.208 116.181,150.286 116.642,147.329 119.500 M126.196 192.000 C 126.196 231.710,126.243 247.955,126.300 228.100 C 126.357 208.245,126.357 175.755,126.300 155.900 C 126.243 136.045,126.196 152.290,126.196 192.000 M288.854 121.569 C 288.825 122.101,288.492 122.911,288.115 123.369 C 287.447 124.179,287.453 124.178,288.350 123.354 C 288.972 122.782,289.211 122.199,289.089 121.554 L 288.909 120.600 288.854 121.569 M273.216 121.703 C 273.207 122.090,274.190 123.484,275.400 124.800 C 276.610 126.116,277.600 127.051,277.600 126.878 C 277.600 126.704,276.859 125.851,275.954 124.981 C 275.049 124.112,274.066 122.860,273.770 122.200 C 273.431 121.446,273.225 121.261,273.216 121.703 M285.978 125.900 L 284.600 127.400 286.100 126.022 C 287.496 124.738,287.784 124.400,287.478 124.400 C 287.412 124.400,286.737 125.075,285.978 125.900 M142.195 189.400 C 142.195 224.820,142.242 239.251,142.300 221.468 C 142.358 203.686,142.358 174.706,142.300 157.068 C 142.242 139.431,142.195 153.980,142.195 189.400 M194.200 138.800 C 201.457 146.060,207.485 152.000,207.595 152.000 C 207.705 152.000,201.857 146.060,194.600 138.800 C 187.343 131.540,181.315 125.600,181.205 125.600 C 181.095 125.600,186.943 131.540,194.200 138.800 M278.404 127.800 C 280.585 130.901,281.652 131.138,283.600 128.951 C 284.496 127.946,284.443 127.963,283.086 129.115 C 281.229 130.691,281.558 130.729,279.536 128.700 C 278.604 127.765,278.095 127.360,278.404 127.800 M163.643 131.300 C 163.740 131.355,164.985 132.480,166.410 133.800 L 169.000 136.200 166.613 133.700 C 165.299 132.325,164.054 131.200,163.846 131.200 C 163.637 131.200,163.546 131.245,163.643 131.300 M152.991 136.900 C 152.867 137.395,152.826 139.600,152.899 141.800 L 153.033 145.800 153.116 141.324 C 153.228 135.361,153.123 135.350,159.944 142.049 L 165.800 147.800 160.005 141.900 C 154.048 135.835,153.376 135.356,152.991 136.900 M198.000 165.800 C 209.988 177.790,219.887 187.600,219.997 187.600 C 220.107 187.600,210.388 177.790,198.400 165.800 C 186.412 153.810,176.513 144.000,176.403 144.000 C 176.293 144.000,186.012 153.810,198.000 165.800 M173.000 155.600 C 177.176 159.780,180.682 163.200,180.792 163.200 C 180.902 163.200,177.576 159.780,173.400 155.600 C 169.224 151.420,165.718 148.000,165.608 148.000 C 165.498 148.000,168.824 151.420,173.000 155.600 M210.000 154.600 C 211.195 155.810,212.263 156.800,212.373 156.800 C 212.483 156.800,211.595 155.810,210.400 154.600 C 209.205 153.390,208.137 152.400,208.027 152.400 C 207.917 152.400,208.805 153.390,210.000 154.600 M97.500 158.696 C 98.875 158.774,101.125 158.774,102.500 158.696 C 103.875 158.618,102.750 158.554,100.000 158.554 C 97.250 158.554,96.125 158.618,97.500 158.696 M106.183 176.600 C 106.183 186.060,106.236 189.873,106.300 185.073 C 106.364 180.273,106.363 172.533,106.299 167.873 C 106.236 163.213,106.183 167.140,106.183 176.600 M288.797 171.200 L 288.600 182.600 280.938 182.600 C 276.724 182.600,273.359 182.735,273.461 182.900 C 273.825 183.488,288.258 183.253,288.757 182.651 C 289.080 182.263,289.181 178.849,289.103 170.951 L 288.993 159.800 288.797 171.200 M94.093 177.620 C 94.023 189.808,94.119 193.959,94.480 194.320 C 95.016 194.856,105.415 195.022,105.739 194.500 C 105.841 194.335,103.377 194.200,100.262 194.200 L 94.600 194.200 94.393 177.800 L 94.187 161.400 94.093 177.620 M220.000 164.910 C 220.000 164.971,221.395 166.366,223.100 168.010 L 226.200 171.000 223.210 167.900 C 220.433 165.021,220.000 164.617,220.000 164.910 M198.200 181.200 C 204.357 187.360,209.485 192.400,209.595 192.400 C 209.705 192.400,204.757 187.360,198.600 181.200 C 192.443 175.040,187.315 170.000,187.205 170.000 C 187.095 170.000,192.043 175.040,198.200 181.200 M311.949 171.100 C 311.466 171.716,311.475 171.742,312.026 171.313 C 312.422 171.004,314.548 170.779,317.826 170.699 L 323.000 170.574 317.749 170.487 C 313.159 170.411,312.429 170.488,311.949 171.100 M233.400 178.400 C 237.135 182.140,240.281 185.200,240.391 185.200 C 240.501 185.200,237.535 182.140,233.800 178.400 C 230.065 174.660,226.919 171.600,226.809 171.600 C 226.699 171.600,229.665 174.660,233.400 178.400 M259.789 198.800 C 259.789 213.650,259.839 219.725,259.900 212.300 C 259.961 204.875,259.961 192.725,259.900 185.300 C 259.839 177.875,259.789 183.950,259.789 198.800 M272.707 175.499 C 272.897 181.713,273.059 182.324,273.130 177.100 C 273.169 174.295,273.065 172.000,272.900 171.999 C 272.735 171.999,272.648 173.574,272.707 175.499 M311.688 181.820 C 311.624 188.249,311.730 190.770,312.080 191.120 C 313.047 192.087,323.600 191.710,323.600 190.708 C 323.600 190.460,323.384 190.481,323.044 190.763 C 322.671 191.073,320.796 191.188,317.344 191.112 L 312.200 191.000 311.988 182.000 L 311.777 173.000 311.688 181.820 M168.800 226.120 C 168.800 265.650,168.694 276.358,168.300 276.801 C 167.875 277.278,167.904 277.282,168.500 276.832 C 169.160 276.332,169.200 273.453,169.200 226.308 C 169.200 181.290,169.262 176.338,169.821 176.553 C 170.177 176.689,170.337 176.622,170.197 176.395 C 168.812 174.154,168.800 174.568,168.800 226.120 M323.734 180.000 C 323.734 181.650,323.805 182.325,323.891 181.500 C 323.978 180.675,323.978 179.325,323.891 178.500 C 323.805 177.675,323.734 178.350,323.734 180.000 M172.800 179.710 C 172.800 179.771,174.195 181.166,175.900 182.810 L 179.000 185.800 176.010 182.700 C 173.233 179.821,172.800 179.417,172.800 179.710 M210.000 192.925 C 210.000 192.994,210.585 193.579,211.300 194.225 L 212.600 195.400 211.425 194.100 C 210.330 192.888,210.000 192.616,210.000 192.925 M238.600 222.000 C 249.158 232.560,257.887 241.200,257.997 241.200 C 258.107 241.200,249.558 232.560,239.000 222.000 C 228.442 211.440,219.713 202.800,219.603 202.800 C 219.493 202.800,228.042 211.440,238.600 222.000 M237.600 205.725 C 237.600 205.794,238.185 206.379,238.900 207.025 L 240.200 208.200 239.025 206.900 C 237.930 205.688,237.600 205.416,237.600 205.725 M278.189 211.300 L 275.400 214.200 278.210 211.500 C 281.610 208.233,281.200 208.246,284.389 211.300 L 287.000 213.800 284.412 211.100 C 281.242 207.794,281.572 207.783,278.189 211.300 M275.000 214.706 C 274.780 214.868,274.335 215.360,274.012 215.800 C 273.578 216.391,273.709 216.346,274.512 215.630 C 275.491 214.758,275.789 214.388,275.500 214.406 C 275.445 214.409,275.220 214.544,275.000 214.706 M288.048 215.400 C 288.404 215.840,288.795 216.470,288.916 216.800 C 289.103 217.309,289.142 217.304,289.168 216.762 C 289.186 216.411,288.795 215.781,288.300 215.362 C 287.408 214.606,287.406 214.607,288.048 215.400 M253.400 221.600 C 255.371 223.580,257.073 225.200,257.183 225.200 C 257.293 225.200,255.771 223.580,253.800 221.600 C 251.829 219.620,250.127 218.000,250.017 218.000 C 249.907 218.000,251.429 219.620,253.400 221.600 M288.978 230.200 C 288.978 237.020,289.032 239.866,289.099 236.525 C 289.166 233.184,289.166 227.604,289.099 224.125 C 289.033 220.646,288.978 223.380,288.978 230.200 M227.200 233.800 C 234.568 241.170,240.686 247.200,240.796 247.200 C 240.906 247.200,234.968 241.170,227.600 233.800 C 220.232 226.430,214.114 220.400,214.004 220.400 C 213.894 220.400,219.832 226.430,227.200 233.800 M271.178 239.100 L 269.800 240.600 271.300 239.222 C 272.696 237.938,272.984 237.600,272.678 237.600 C 272.612 237.600,271.937 238.275,271.178 239.100 M268.836 241.357 C 268.581 241.663,267.834 242.138,267.174 242.411 C 266.514 242.684,266.053 242.987,266.150 243.083 C 266.407 243.341,268.573 242.156,269.178 241.426 C 269.464 241.082,269.608 240.800,269.498 240.800 C 269.388 240.800,269.090 241.051,268.836 241.357 M263.105 243.483 C 263.602 243.579,264.322 243.575,264.705 243.475 C 265.087 243.375,264.680 243.296,263.800 243.301 C 262.920 243.305,262.607 243.387,263.105 243.483 M284.192 247.700 L 280.600 251.400 284.300 247.808 C 287.736 244.472,288.182 244.000,287.892 244.000 C 287.832 244.000,286.167 245.665,284.192 247.700 M241.200 247.710 C 241.200 247.771,242.595 249.166,244.300 250.810 L 247.400 253.800 244.410 250.700 C 241.633 247.821,241.200 247.417,241.200 247.710 M278.400 253.400 C 277.428 254.390,276.723 255.200,276.833 255.200 C 276.943 255.200,277.828 254.390,278.800 253.400 C 279.772 252.410,280.477 251.600,280.367 251.600 C 280.257 251.600,279.372 252.410,278.400 253.400 M136.793 259.900 L 132.200 264.600 136.900 260.007 C 139.485 257.480,141.600 255.365,141.600 255.307 C 141.600 255.018,141.060 255.534,136.793 259.900 M263.100 260.289 C 263.815 260.378,264.985 260.378,265.700 260.289 C 266.415 260.201,265.830 260.128,264.400 260.128 C 262.970 260.128,262.385 260.201,263.100 260.289 M153.200 262.639 C 153.200 262.843,155.765 265.528,158.900 268.605 L 164.600 274.200 159.000 268.414 C 155.920 265.232,153.355 262.547,153.300 262.447 C 153.245 262.348,153.200 262.434,153.200 262.639 M282.236 266.431 C 281.666 267.108,281.205 267.873,281.212 268.131 C 281.219 268.389,281.423 268.240,281.667 267.800 C 281.910 267.360,282.476 266.595,282.924 266.100 C 283.373 265.605,283.634 265.200,283.505 265.200 C 283.376 265.200,282.805 265.754,282.236 266.431 M195.680 270.020 C 195.575 276.080,194.671 275.600,206.200 275.600 C 217.639 275.600,216.826 275.985,216.722 270.620 L 216.643 266.600 216.422 270.800 L 216.200 275.000 206.200 275.000 L 196.200 275.000 195.980 270.200 L 195.761 265.400 195.680 270.020 M226.517 287.097 C 228.011 287.174,230.351 287.174,231.717 287.096 C 233.082 287.018,231.860 286.955,229.000 286.955 C 226.140 286.956,225.022 287.020,226.517 287.097 M276.300 287.099 C 278.995 287.168,283.405 287.168,286.100 287.099 C 288.795 287.030,286.590 286.973,281.200 286.973 C 275.810 286.973,273.605 287.030,276.300 287.099 M270.667 287.467 C 270.152 287.981,270.358 316.998,270.880 317.520 C 271.232 317.872,273.928 317.976,280.980 317.911 L 290.600 317.821 280.800 317.611 L 271.000 317.400 271.000 302.300 C 271.000 293.995,270.985 287.200,270.967 287.200 C 270.948 287.200,270.813 287.320,270.667 287.467 M131.900 288.229 C 130.349 289.070,130.525 289.361,132.100 288.559 C 133.608 287.793,133.875 287.594,133.367 287.616 C 133.165 287.625,132.505 287.901,131.900 288.229 M144.433 287.749 C 144.845 288.117,147.200 289.200,147.200 289.021 C 147.200 288.790,144.982 287.600,144.553 287.600 C 144.396 287.600,144.342 287.667,144.433 287.749 M171.300 288.396 C 169.494 289.497,169.663 289.766,171.500 288.714 C 173.348 287.656,173.423 287.600,172.967 287.601 C 172.765 287.602,172.015 287.960,171.300 288.396 M291.342 291.000 C 291.341 292.980,291.408 293.840,291.492 292.912 C 291.576 291.984,291.577 290.364,291.495 289.312 C 291.412 288.260,291.343 289.020,291.342 291.000 M222.093 302.420 C 222.023 313.363,222.121 317.161,222.480 317.520 C 222.813 317.853,224.555 317.975,228.180 317.918 L 233.400 317.836 228.000 317.618 L 222.600 317.400 222.393 302.600 L 222.185 287.800 222.093 302.420 M128.255 291.183 C 127.235 292.273,126.400 293.293,126.400 293.450 C 126.400 293.606,126.457 293.658,126.527 293.567 C 126.597 293.475,127.522 292.455,128.582 291.300 C 129.642 290.145,130.419 289.200,130.309 289.200 C 130.199 289.200,129.275 290.092,128.255 291.183 M167.978 291.100 L 166.600 292.600 168.100 291.222 C 169.496 289.938,169.784 289.600,169.478 289.600 C 169.412 289.600,168.737 290.275,167.978 291.100 M243.800 291.600 C 244.659 292.480,245.452 293.200,245.562 293.200 C 245.672 293.200,245.059 292.480,244.200 291.600 C 243.341 290.720,242.548 290.000,242.438 290.000 C 242.328 290.000,242.941 290.720,243.800 291.600 M279.061 295.100 C 278.958 295.265,280.702 295.352,282.937 295.294 C 290.290 295.103,291.091 294.949,285.124 294.874 C 281.892 294.833,279.163 294.935,279.061 295.100 M145.694 296.412 C 144.975 297.065,144.537 297.600,144.719 297.600 C 144.901 297.600,145.568 297.060,146.200 296.400 C 147.670 294.865,147.386 294.872,145.694 296.412 M280.900 298.696 C 282.165 298.775,284.235 298.775,285.500 298.696 C 286.765 298.616,285.730 298.551,283.200 298.551 C 280.670 298.551,279.635 298.616,280.900 298.696 M163.731 302.600 C 163.733 304.140,163.805 304.721,163.892 303.891 C 163.979 303.061,163.977 301.801,163.889 301.091 C 163.800 300.381,163.729 301.060,163.731 302.600 M288.524 303.000 C 288.526 304.320,288.601 304.812,288.690 304.093 C 288.779 303.374,288.777 302.294,288.686 301.693 C 288.595 301.092,288.522 301.680,288.524 303.000 M132.493 302.400 C 132.493 303.170,132.575 303.485,132.676 303.100 C 132.776 302.715,132.776 302.085,132.676 301.700 C 132.575 301.315,132.493 301.630,132.493 302.400 M184.501 302.600 C 184.505 303.480,184.587 303.793,184.683 303.295 C 184.779 302.798,184.775 302.078,184.675 301.695 C 184.575 301.313,184.496 301.720,184.501 302.600 M239.693 302.400 C 239.693 303.170,239.775 303.485,239.876 303.100 C 239.976 302.715,239.976 302.085,239.876 301.700 C 239.775 301.315,239.693 301.630,239.693 302.400 M193.293 302.800 C 193.293 303.570,193.375 303.885,193.476 303.500 C 193.576 303.115,193.576 302.485,193.476 302.100 C 193.375 301.715,193.293 302.030,193.293 302.800 M172.800 305.489 C 172.800 305.721,173.171 306.336,173.624 306.856 L 174.447 307.800 173.745 306.600 C 172.820 305.021,172.800 304.997,172.800 305.489 M283.604 305.980 C 279.591 306.172,279.001 306.290,278.945 306.908 C 278.900 307.404,278.938 307.434,279.070 307.008 C 279.224 306.513,280.066 306.400,283.606 306.400 C 286.072 306.400,288.060 306.227,288.200 306.000 C 288.336 305.780,288.392 305.636,288.324 305.680 C 288.256 305.724,286.132 305.859,283.604 305.980 M147.183 308.500 C 148.841 310.266,149.200 310.584,149.200 310.283 C 149.200 310.219,148.345 309.364,147.300 308.383 L 145.400 306.600 147.183 308.500 M230.893 308.400 C 230.893 309.170,230.975 309.485,231.076 309.100 C 231.176 308.715,231.176 308.085,231.076 307.700 C 230.975 307.315,230.893 307.630,230.893 308.400 M180.400 308.848 C 179.630 309.261,179.295 309.599,179.656 309.599 C 180.016 309.600,180.736 309.246,181.256 308.813 C 182.400 307.860,182.231 307.867,180.400 308.848 M279.153 309.715 C 279.327 309.888,281.344 309.977,283.635 309.912 L 287.800 309.796 283.318 309.598 C 280.853 309.489,278.979 309.542,279.153 309.715 M166.314 311.800 C 166.547 312.240,167.510 313.320,168.455 314.200 C 170.152 315.780,169.609 315.097,166.073 311.200 C 165.973 311.090,166.082 311.360,166.314 311.800 M243.781 313.300 L 242.200 315.000 243.900 313.419 C 245.481 311.948,245.784 311.600,245.481 311.600 C 245.416 311.600,244.651 312.365,243.781 313.300 M128.200 313.600 C 129.059 314.480,129.852 315.200,129.962 315.200 C 130.072 315.200,129.459 314.480,128.600 313.600 C 127.741 312.720,126.948 312.000,126.838 312.000 C 126.728 312.000,127.341 312.720,128.200 313.600 M148.975 314.100 L 147.800 315.400 149.100 314.225 C 150.312 313.130,150.584 312.800,150.275 312.800 C 150.206 312.800,149.621 313.385,148.975 314.100 M186.600 315.450 C 185.881 316.062,185.734 316.305,186.233 316.057 C 186.966 315.693,188.341 314.376,187.949 314.414 C 187.867 314.422,187.260 314.888,186.600 315.450 " stroke="none" fill="#333539" fill-rule="evenodd"></path><path id="path7" d="M246.800 77.000 C 247.546 77.770,248.247 78.400,248.357 78.400 C 248.467 78.400,247.946 77.770,247.200 77.000 C 246.454 76.230,245.753 75.600,245.643 75.600 C 245.533 75.600,246.054 76.230,246.800 77.000 M201.300 88.699 C 203.885 88.768,208.115 88.768,210.700 88.699 C 213.285 88.629,211.170 88.572,206.000 88.572 C 200.830 88.572,198.715 88.629,201.300 88.699 M273.378 105.000 C 273.379 112.040,273.433 114.864,273.499 111.275 C 273.566 107.686,273.566 101.926,273.499 98.475 C 273.433 95.024,273.378 97.960,273.378 105.000 M164.000 108.510 C 164.000 108.571,165.395 109.966,167.100 111.610 L 170.200 114.600 167.210 111.500 C 164.433 108.621,164.000 108.217,164.000 108.510 M171.600 116.200 C 172.346 116.970,173.047 117.600,173.157 117.600 C 173.267 117.600,172.746 116.970,172.000 116.200 C 171.254 115.430,170.553 114.800,170.443 114.800 C 170.333 114.800,170.854 115.430,171.600 116.200 M273.293 119.600 C 273.293 120.370,273.375 120.685,273.476 120.300 C 273.576 119.915,273.576 119.285,273.476 118.900 C 273.375 118.515,273.293 118.830,273.293 119.600 M160.600 143.200 C 161.683 144.300,162.660 145.200,162.770 145.200 C 162.880 145.200,162.083 144.300,161.000 143.200 C 159.917 142.100,158.940 141.200,158.830 141.200 C 158.720 141.200,159.517 142.100,160.600 143.200 M153.395 202.800 C 153.395 235.470,153.442 248.835,153.500 232.500 C 153.558 216.165,153.558 189.435,153.500 173.100 C 153.442 156.765,153.395 170.130,153.395 202.800 M204.800 149.725 C 204.800 149.794,205.385 150.379,206.100 151.025 L 207.400 152.200 206.225 150.900 C 205.130 149.688,204.800 149.416,204.800 149.725 M185.800 153.200 C 187.106 154.520,188.265 155.600,188.375 155.600 C 188.485 155.600,187.506 154.520,186.200 153.200 C 184.894 151.880,183.735 150.800,183.625 150.800 C 183.515 150.800,184.494 151.880,185.800 153.200 M175.600 158.600 C 176.795 159.810,177.863 160.800,177.973 160.800 C 178.083 160.800,177.195 159.810,176.000 158.600 C 174.805 157.390,173.737 156.400,173.627 156.400 C 173.517 156.400,174.405 157.390,175.600 158.600 M269.100 159.499 C 272.455 159.566,277.945 159.566,281.300 159.499 C 284.655 159.432,281.910 159.378,275.200 159.378 C 268.490 159.378,265.745 159.432,269.100 159.499 M265.507 171.890 C 266.226 171.979,267.306 171.977,267.907 171.886 C 268.508 171.795,267.920 171.722,266.600 171.724 C 265.280 171.726,264.788 171.801,265.507 171.890 M269.905 171.883 C 270.402 171.979,271.122 171.975,271.505 171.875 C 271.887 171.775,271.480 171.696,270.600 171.701 C 269.720 171.705,269.407 171.787,269.905 171.883 M235.193 180.500 C 237.499 182.865,239.434 184.800,239.493 184.800 C 239.782 184.800,239.294 184.287,235.300 180.393 L 231.000 176.200 235.193 180.500 M201.600 185.000 C 204.784 188.190,207.480 190.800,207.590 190.800 C 207.700 190.800,205.184 188.190,202.000 185.000 C 198.816 181.810,196.120 179.200,196.010 179.200 C 195.900 179.200,198.416 181.810,201.600 185.000 M254.400 222.200 C 255.595 223.410,256.663 224.400,256.773 224.400 C 256.883 224.400,255.995 223.410,254.800 222.200 C 253.605 220.990,252.537 220.000,252.427 220.000 C 252.317 220.000,253.205 220.990,254.400 222.200 M251.600 235.400 C 252.346 236.170,253.047 236.800,253.157 236.800 C 253.267 236.800,252.746 236.170,252.000 235.400 C 251.254 234.630,250.553 234.000,250.443 234.000 C 250.333 234.000,250.854 234.630,251.600 235.400 M235.200 241.400 C 237.060 243.270,238.672 244.800,238.782 244.800 C 238.892 244.800,237.460 243.270,235.600 241.400 C 233.740 239.530,232.128 238.000,232.018 238.000 C 231.908 238.000,233.340 239.530,235.200 241.400 M280.392 251.100 L 276.600 255.000 280.500 251.208 C 284.122 247.686,284.582 247.200,284.292 247.200 C 284.233 247.200,282.478 248.955,280.392 251.100 M128.100 264.687 C 128.705 264.778,129.695 264.778,130.300 264.687 C 130.905 264.595,130.410 264.520,129.200 264.520 C 127.990 264.520,127.495 264.595,128.100 264.687 M201.900 265.098 C 204.155 265.170,207.845 265.170,210.100 265.098 C 212.355 265.027,210.510 264.969,206.000 264.969 C 201.490 264.969,199.645 265.027,201.900 265.098 M161.800 271.200 C 162.659 272.080,163.452 272.800,163.562 272.800 C 163.672 272.800,163.059 272.080,162.200 271.200 C 161.341 270.320,160.548 269.600,160.438 269.600 C 160.328 269.600,160.941 270.320,161.800 271.200 M177.705 287.087 C 178.314 287.179,179.214 287.177,179.705 287.082 C 180.197 286.987,179.700 286.911,178.600 286.914 C 177.500 286.917,177.097 286.995,177.705 287.087 M230.559 301.200 C 230.559 304.390,230.621 305.695,230.697 304.100 C 230.773 302.505,230.773 299.895,230.697 298.300 C 230.621 296.705,230.559 298.010,230.559 301.200 M231.700 309.876 C 232.085 309.976,232.715 309.976,233.100 309.876 C 233.485 309.775,233.170 309.693,232.400 309.693 C 231.630 309.693,231.315 309.775,231.700 309.876 M291.337 313.400 C 291.339 315.160,291.409 315.830,291.493 314.889 C 291.578 313.949,291.577 312.509,291.491 311.689 C 291.405 310.870,291.336 311.640,291.337 313.400 " stroke="none" fill="#444c4c" fill-rule="evenodd"></path><path id="path8" d="M243.320 79.200 C 243.320 80.410,243.395 80.905,243.487 80.300 C 243.578 79.695,243.578 78.705,243.487 78.100 C 243.395 77.495,243.320 77.990,243.320 79.200 M288.901 79.400 C 288.905 80.280,288.987 80.593,289.083 80.095 C 289.179 79.598,289.175 78.878,289.075 78.495 C 288.975 78.113,288.896 78.520,288.901 79.400 M288.984 103.200 C 288.984 112.990,289.036 116.995,289.100 112.100 C 289.163 107.205,289.163 99.195,289.100 94.300 C 289.036 89.405,288.984 93.410,288.984 103.200 M138.985 105.700 L 137.000 107.800 139.100 105.815 C 140.255 104.723,141.200 103.778,141.200 103.715 C 141.200 103.417,140.829 103.749,138.985 105.700 M177.000 121.600 C 179.192 123.800,181.075 125.600,181.185 125.600 C 181.295 125.600,179.592 123.800,177.400 121.600 C 175.208 119.400,173.325 117.600,173.215 117.600 C 173.105 117.600,174.808 119.400,177.000 121.600 M283.375 128.500 L 282.200 129.800 283.500 128.625 C 284.215 127.979,284.800 127.394,284.800 127.325 C 284.800 127.016,284.470 127.288,283.375 128.500 M176.000 143.400 C 176.746 144.170,177.447 144.800,177.557 144.800 C 177.667 144.800,177.146 144.170,176.400 143.400 C 175.654 142.630,174.953 142.000,174.843 142.000 C 174.733 142.000,175.254 142.630,176.000 143.400 M164.000 146.600 C 164.746 147.370,165.447 148.000,165.557 148.000 C 165.667 148.000,165.146 147.370,164.400 146.600 C 163.654 145.830,162.953 145.200,162.843 145.200 C 162.733 145.200,163.254 145.830,164.000 146.600 M180.000 147.400 C 181.195 148.610,182.263 149.600,182.373 149.600 C 182.483 149.600,181.595 148.610,180.400 147.400 C 179.205 146.190,178.137 145.200,178.027 145.200 C 177.917 145.200,178.805 146.190,180.000 147.400 M213.600 158.600 C 215.017 160.030,216.267 161.200,216.377 161.200 C 216.487 161.200,215.417 160.030,214.000 158.600 C 212.583 157.170,211.333 156.000,211.223 156.000 C 211.113 156.000,212.183 157.170,213.600 158.600 M261.105 159.483 C 261.602 159.579,262.322 159.575,262.705 159.475 C 263.087 159.375,262.680 159.296,261.800 159.301 C 260.920 159.305,260.607 159.387,261.105 159.483 M218.200 163.200 C 219.059 164.080,219.852 164.800,219.962 164.800 C 220.072 164.800,219.459 164.080,218.600 163.200 C 217.741 162.320,216.948 161.600,216.838 161.600 C 216.728 161.600,217.341 162.320,218.200 163.200 M181.000 164.000 C 181.859 164.880,182.652 165.600,182.762 165.600 C 182.872 165.600,182.259 164.880,181.400 164.000 C 180.541 163.120,179.748 162.400,179.638 162.400 C 179.528 162.400,180.141 163.120,181.000 164.000 M171.600 178.200 C 172.346 178.970,173.047 179.600,173.157 179.600 C 173.267 179.600,172.746 178.970,172.000 178.200 C 171.254 177.430,170.553 176.800,170.443 176.800 C 170.333 176.800,170.854 177.430,171.600 178.200 M223.000 190.800 C 224.750 192.560,226.271 194.000,226.381 194.000 C 226.491 194.000,225.150 192.560,223.400 190.800 C 221.650 189.040,220.129 187.600,220.019 187.600 C 219.909 187.600,221.250 189.040,223.000 190.800 M208.400 191.725 C 208.400 191.794,208.985 192.379,209.700 193.025 L 211.000 194.200 209.825 192.900 C 208.730 191.688,208.400 191.416,208.400 191.725 M188.383 194.900 C 190.041 196.666,190.400 196.984,190.400 196.683 C 190.400 196.619,189.545 195.764,188.500 194.783 L 186.600 193.000 188.383 194.900 M215.193 198.500 C 217.499 200.865,219.434 202.800,219.493 202.800 C 219.782 202.800,219.294 202.287,215.300 198.393 L 211.000 194.200 215.193 198.500 M227.600 195.310 C 227.600 195.371,228.995 196.766,230.700 198.410 L 233.800 201.400 230.810 198.300 C 228.033 195.421,227.600 195.017,227.600 195.310 M192.600 199.200 C 193.459 200.080,194.252 200.800,194.362 200.800 C 194.472 200.800,193.859 200.080,193.000 199.200 C 192.141 198.320,191.348 197.600,191.238 197.600 C 191.128 197.600,191.741 198.320,192.600 199.200 M195.200 201.725 C 195.200 201.794,195.785 202.379,196.500 203.025 L 197.800 204.200 196.625 202.900 C 195.530 201.688,195.200 201.416,195.200 201.725 M237.000 204.800 C 238.083 205.900,239.060 206.800,239.170 206.800 C 239.280 206.800,238.483 205.900,237.400 204.800 C 236.317 203.700,235.340 202.800,235.230 202.800 C 235.120 202.800,235.917 203.700,237.000 204.800 M200.400 206.925 C 200.400 206.994,200.985 207.579,201.700 208.225 L 203.000 209.400 201.825 208.100 C 200.730 206.888,200.400 206.616,200.400 206.925 M240.000 207.725 C 240.000 207.794,240.585 208.379,241.300 209.025 L 242.600 210.200 241.425 208.900 C 240.330 207.688,240.000 207.416,240.000 207.725 M247.400 215.200 C 250.033 217.840,252.277 220.000,252.387 220.000 C 252.497 220.000,250.433 217.840,247.800 215.200 C 245.167 212.560,242.923 210.400,242.813 210.400 C 242.703 210.400,244.767 212.560,247.400 215.200 M208.000 214.525 C 208.000 214.594,208.585 215.179,209.300 215.825 L 210.600 217.000 209.425 215.700 C 208.330 214.488,208.000 214.216,208.000 214.525 M273.362 223.800 C 273.362 227.320,273.424 228.706,273.498 226.881 C 273.572 225.056,273.572 222.176,273.497 220.481 C 273.422 218.786,273.361 220.280,273.362 223.800 M273.309 233.200 C 273.309 234.190,273.387 234.595,273.482 234.100 C 273.578 233.605,273.578 232.795,273.482 232.300 C 273.387 231.805,273.309 232.210,273.309 233.200 M240.200 246.400 C 241.059 247.280,241.852 248.000,241.962 248.000 C 242.072 248.000,241.459 247.280,240.600 246.400 C 239.741 245.520,238.948 244.800,238.838 244.800 C 238.728 244.800,239.341 245.520,240.200 246.400 M246.200 252.400 C 247.283 253.500,248.260 254.400,248.370 254.400 C 248.480 254.400,247.683 253.500,246.600 252.400 C 245.517 251.300,244.540 250.400,244.430 250.400 C 244.320 250.400,245.117 251.300,246.200 252.400 M124.114 302.600 C 124.117 303.700,124.195 304.103,124.287 303.495 C 124.379 302.886,124.377 301.986,124.282 301.495 C 124.187 301.003,124.111 301.500,124.114 302.600 M288.305 309.883 C 288.802 309.979,289.522 309.975,289.905 309.875 C 290.287 309.775,289.880 309.696,289.000 309.701 C 288.120 309.705,287.807 309.787,288.305 309.883 " stroke="none" fill="#44444c" fill-rule="evenodd"></path></g></svg>