<svg id="splitsvg" version="1.1" xmlns="http://www.w3.org/2000/svg" xmlns:xlink="http://www.w3.org/1999/xlink" width="1380" height="860"><g id="svgg"><path id="path0" d="M244.000 132.400 C 244.000 163.860,243.926 189.600,243.836 189.600 C 243.574 189.600,240.856 186.872,213.800 159.450 C 163.795 108.770,159.657 104.679,156.600 102.884 C 152.252 100.331,148.605 99.874,144.899 101.418 C 143.647 101.939,130.196 115.148,128.045 117.967 L 127.000 119.338 126.883 190.369 C 126.819 229.436,126.872 261.985,127.001 262.700 C 127.234 263.989,127.256 264.000,129.539 264.000 L 131.841 264.000 136.720 259.064 L 141.600 254.129 141.600 189.292 L 141.600 124.456 145.572 120.428 C 147.757 118.213,149.718 116.400,149.929 116.400 C 150.141 116.400,152.718 118.854,155.657 121.854 C 158.596 124.853,171.980 138.377,185.400 151.906 C 234.662 201.569,258.634 225.600,258.913 225.600 C 259.071 225.600,259.200 213.360,259.200 198.400 L 259.200 171.200 266.176 171.200 C 274.396 171.200,273.694 170.649,273.754 177.149 L 273.800 182.200 281.000 182.200 L 288.200 182.200 288.200 171.200 L 288.200 160.200 273.800 160.000 L 259.400 159.800 259.298 124.777 L 259.196 89.754 251.856 82.477 C 247.819 78.475,244.400 75.200,244.258 75.200 C 244.116 75.200,244.000 100.940,244.000 132.400 M285.800 79.859 C 284.700 80.869,281.595 83.838,278.900 86.457 L 274.000 91.218 274.005 106.709 L 274.011 122.200 277.662 125.900 C 279.671 127.935,281.433 129.600,281.579 129.600 C 281.822 129.600,286.762 124.303,287.887 122.836 C 288.437 122.118,288.647 77.991,288.100 78.011 C 287.935 78.018,286.900 78.849,285.800 79.859 M196.400 83.161 L 196.400 87.936 197.500 88.169 C 199.266 88.541,215.214 88.146,215.641 87.719 C 215.858 87.502,215.978 85.417,215.914 82.966 L 215.800 78.600 206.100 78.493 L 196.400 78.386 196.400 83.161 M128.163 85.771 C 125.104 87.914,125.886 93.158,129.490 94.663 C 134.559 96.781,138.462 89.424,134.092 85.986 C 132.882 85.034,129.395 84.908,128.163 85.771 M154.000 200.167 C 154.000 239.114,154.143 263.184,154.376 263.267 C 154.583 263.340,157.717 266.325,161.340 269.900 C 164.963 273.475,168.034 276.400,168.164 276.400 C 168.294 276.400,168.400 253.540,168.400 225.600 C 168.400 197.660,168.535 174.803,168.700 174.806 C 168.865 174.809,186.992 192.692,208.982 214.546 C 251.365 256.667,249.603 255.058,256.110 257.579 C 266.378 261.557,270.614 260.201,281.474 249.459 L 288.408 242.600 288.404 229.663 C 288.399 214.867,288.867 216.789,284.071 211.848 L 281.400 209.095 277.724 212.986 L 274.049 216.876 273.924 227.226 L 273.800 237.576 271.400 240.033 C 267.286 244.244,263.413 245.147,259.381 242.835 C 257.440 241.721,202.363 186.552,167.599 150.900 C 160.252 143.365,154.187 137.200,154.120 137.200 C 154.054 137.200,154.000 165.535,154.000 200.167 M94.800 176.588 L 94.800 194.023 100.100 193.912 L 105.400 193.800 105.400 176.600 L 105.400 159.400 100.100 159.276 L 94.800 159.153 94.800 176.588 M315.693 171.494 L 312.386 171.633 312.493 181.116 L 312.600 190.600 317.700 190.712 L 322.800 190.824 322.880 185.712 C 322.950 181.215,322.799 171.884,322.653 171.751 C 322.412 171.530,318.380 171.381,315.693 171.494 M283.642 266.226 C 280.592 268.793,281.558 273.950,285.240 274.754 C 289.580 275.703,292.807 271.921,290.873 268.152 C 289.356 265.198,285.945 264.289,283.642 266.226 M196.400 270.207 L 196.400 274.814 206.100 274.707 L 215.800 274.600 215.914 270.743 C 216.076 265.272,216.736 265.600,205.571 265.600 L 196.400 265.600 196.400 270.207 M135.200 287.953 C 119.147 293.133,122.323 317.200,139.059 317.200 C 142.412 317.200,145.008 316.434,147.312 314.765 C 150.213 312.663,150.222 312.497,147.574 309.807 L 145.233 307.429 144.317 308.276 C 138.280 313.854,130.127 307.652,132.591 299.356 C 134.063 294.400,140.178 292.741,144.053 296.248 C 144.838 296.958,144.881 296.922,147.651 293.308 L 149.255 291.217 147.327 289.994 C 143.254 287.410,139.067 286.705,135.200 287.953 M175.300 287.799 C 167.686 289.919,163.337 297.098,164.697 305.303 C 167.341 321.263,189.487 321.263,192.381 305.304 C 194.261 294.938,184.732 285.172,175.300 287.799 M223.100 287.830 C 222.935 287.997,222.800 294.673,222.800 302.667 L 222.800 317.200 226.700 317.193 C 236.052 317.176,239.700 316.235,243.233 312.930 C 250.869 305.788,248.291 292.589,238.514 288.762 C 236.127 287.828,223.836 287.084,223.100 287.830 M271.200 302.400 L 271.200 317.200 280.367 317.200 C 291.637 317.200,290.800 317.492,290.800 313.557 L 290.800 310.400 284.600 310.400 L 278.400 310.400 278.400 308.000 L 278.400 305.600 283.200 305.600 L 288.000 305.600 287.997 304.500 C 287.995 303.895,287.877 302.436,287.736 301.259 L 287.479 299.118 282.939 299.262 L 278.400 299.406 278.400 296.903 L 278.400 294.400 284.600 294.400 L 290.800 294.400 290.800 291.000 L 290.800 287.600 281.000 287.600 L 271.200 287.600 271.200 302.400 M181.074 295.177 C 186.529 297.654,186.500 306.937,181.029 309.586 C 177.736 311.180,174.425 309.948,172.749 306.506 C 169.470 299.769,174.903 292.376,181.074 295.177 M234.997 294.841 C 243.631 297.015,241.191 310.375,232.156 310.396 L 230.511 310.400 230.259 308.300 C 229.923 305.503,229.929 295.004,230.267 294.667 C 230.673 294.261,233.039 294.348,234.997 294.841  M -25 0 L -5 0 L -5 20 L -25 20 Z M 405 0 L 425 0 L 425 20 L 405 20 Z" stroke="none" fill="#f9f9fa" fill-rule="evenodd" transform="translate(30,0)"></path><path id="path1" d="M184.200 0.250 C 177.507 0.757,169.088 1.719,167.200 2.194 C 165.990 2.498,163.020 3.049,160.600 3.419 C 158.180 3.788,156.110 4.212,156.000 4.361 C 155.890 4.511,154.090 4.954,152.000 5.347 C 149.910 5.739,147.660 6.303,147.000 6.600 C 146.340 6.897,144.453 7.435,142.808 7.795 C 141.162 8.156,139.722 8.586,139.608 8.750 C 139.493 8.915,138.140 9.379,136.600 9.783 C 135.060 10.186,133.170 10.822,132.400 11.195 C 131.630 11.569,130.145 12.106,129.100 12.389 C 128.055 12.672,127.200 13.021,127.200 13.165 C 127.200 13.308,126.345 13.673,125.300 13.976 C 124.255 14.278,122.103 15.128,120.518 15.863 C 118.934 16.598,117.359 17.200,117.018 17.200 C 116.678 17.200,116.400 17.358,116.400 17.551 C 116.400 17.744,115.320 18.306,114.000 18.800 C 112.680 19.294,111.600 19.831,111.600 19.994 C 111.600 20.158,110.745 20.614,109.700 21.009 C 108.655 21.404,107.710 21.849,107.600 21.997 C 107.490 22.146,106.410 22.754,105.200 23.348 C 101.338 25.244,99.806 26.086,99.586 26.432 C 99.468 26.617,98.721 27.041,97.926 27.373 C 97.130 27.706,96.233 28.208,95.933 28.489 C 95.632 28.770,94.759 29.346,93.993 29.770 C 93.227 30.193,92.510 30.664,92.400 30.816 C 92.290 30.968,91.435 31.480,90.500 31.954 C 89.565 32.428,88.798 32.948,88.795 33.108 C 88.793 33.269,88.073 33.744,87.195 34.164 C 86.318 34.585,85.600 35.076,85.600 35.256 C 85.600 35.436,84.902 35.940,84.049 36.375 C 83.196 36.810,82.392 37.444,82.262 37.783 C 82.132 38.122,81.760 38.400,81.435 38.400 C 81.111 38.400,80.610 38.727,80.323 39.126 C 80.035 39.526,79.530 39.983,79.200 40.142 C 78.038 40.702,76.976 41.408,76.104 42.200 C 75.620 42.640,74.669 43.450,73.991 44.000 C 73.313 44.550,72.324 45.390,71.794 45.867 C 71.264 46.344,70.493 46.974,70.082 47.267 C 66.235 50.009,50.009 66.235,47.267 70.082 C 46.974 70.493,46.344 71.264,45.867 71.794 C 45.390 72.324,44.550 73.313,44.000 73.991 C 43.450 74.669,42.640 75.620,42.200 76.104 C 41.408 76.976,40.702 78.038,40.142 79.200 C 39.983 79.530,39.526 80.035,39.126 80.323 C 38.727 80.610,38.400 81.111,38.400 81.435 C 38.400 81.760,38.122 82.132,37.783 82.262 C 37.444 82.392,36.810 83.196,36.375 84.049 C 35.940 84.902,35.436 85.600,35.256 85.600 C 35.076 85.600,34.585 86.318,34.164 87.195 C 33.744 88.073,33.269 88.793,33.108 88.795 C 32.948 88.798,32.428 89.565,31.954 90.500 C 31.480 91.435,30.968 92.290,30.816 92.400 C 30.664 92.510,30.193 93.227,29.770 93.993 C 29.346 94.759,28.770 95.632,28.489 95.933 C 28.208 96.233,27.706 97.130,27.373 97.926 C 27.041 98.721,26.617 99.468,26.432 99.586 C 26.086 99.806,25.244 101.338,23.348 105.200 C 22.754 106.410,22.146 107.490,21.997 107.600 C 21.849 107.710,21.404 108.655,21.009 109.700 C 20.614 110.745,20.158 111.600,19.994 111.600 C 19.831 111.600,19.294 112.680,18.800 114.000 C 18.306 115.320,17.744 116.400,17.551 116.400 C 17.358 116.400,17.200 116.678,17.200 117.018 C 17.200 117.359,16.598 118.934,15.863 120.518 C 15.128 122.103,14.278 124.255,13.976 125.300 C 13.673 126.345,13.308 127.200,13.165 127.200 C 13.021 127.200,12.672 128.055,12.389 129.100 C 12.106 130.145,11.569 131.630,11.195 132.400 C 10.822 133.170,10.186 135.060,9.783 136.600 C 9.379 138.140,8.915 139.493,8.750 139.608 C 8.586 139.722,8.156 141.162,7.795 142.808 C 7.435 144.453,6.897 146.340,6.600 147.000 C 6.303 147.660,5.739 149.910,5.347 152.000 C 4.954 154.090,4.511 155.890,4.361 156.000 C 4.212 156.110,3.788 158.180,3.419 160.600 C 3.049 163.020,2.498 165.990,2.194 167.200 C -0.595 178.294,-0.595 221.706,2.194 232.800 C 2.498 234.010,3.049 236.980,3.419 239.400 C 3.788 241.820,4.212 243.890,4.361 244.000 C 4.511 244.110,4.954 245.910,5.347 248.000 C 5.739 250.090,6.303 252.340,6.600 253.000 C 6.897 253.660,7.435 255.547,7.795 257.192 C 8.156 258.838,8.586 260.278,8.750 260.392 C 8.915 260.507,9.379 261.860,9.783 263.400 C 10.186 264.940,10.822 266.830,11.195 267.600 C 11.569 268.370,12.106 269.855,12.389 270.900 C 12.672 271.945,13.021 272.800,13.165 272.800 C 13.308 272.800,13.673 273.655,13.976 274.700 C 14.278 275.745,15.128 277.897,15.863 279.482 C 16.598 281.066,17.200 282.641,17.200 282.982 C 17.200 283.322,17.358 283.600,17.551 283.600 C 17.744 283.600,18.306 284.680,18.800 286.000 C 19.294 287.320,19.831 288.400,19.994 288.400 C 20.158 288.400,20.614 289.255,21.009 290.300 C 21.404 291.345,21.849 292.290,21.997 292.400 C 22.146 292.510,22.754 293.590,23.348 294.800 C 25.244 298.662,26.086 300.194,26.432 300.414 C 26.617 300.532,27.041 301.279,27.373 302.074 C 27.706 302.870,28.208 303.767,28.489 304.067 C 28.770 304.368,29.346 305.241,29.770 306.007 C 30.193 306.773,30.664 307.490,30.816 307.600 C 30.968 307.710,31.480 308.565,31.954 309.500 C 32.428 310.435,32.948 311.202,33.108 311.205 C 33.269 311.207,33.744 311.927,34.164 312.805 C 34.585 313.682,35.076 314.400,35.256 314.400 C 35.436 314.400,35.940 315.098,36.375 315.951 C 36.810 316.804,37.444 317.608,37.783 317.738 C 38.122 317.868,38.400 318.240,38.400 318.565 C 38.400 318.889,38.727 319.390,39.126 319.677 C 39.526 319.965,39.983 320.470,40.142 320.800 C 40.702 321.962,41.408 323.024,42.200 323.896 C 42.640 324.380,43.450 325.331,44.000 326.009 C 44.550 326.687,45.390 327.676,45.867 328.206 C 46.344 328.736,46.974 329.507,47.267 329.918 C 50.009 333.765,66.235 349.991,70.082 352.733 C 70.493 353.026,71.264 353.656,71.794 354.133 C 72.324 354.610,73.313 355.450,73.991 356.000 C 74.669 356.550,75.620 357.360,76.104 357.800 C 76.976 358.592,78.038 359.298,79.200 359.858 C 79.530 360.017,80.035 360.474,80.323 360.874 C 80.610 361.273,81.111 361.600,81.435 361.600 C 81.760 361.600,82.132 361.878,82.262 362.217 C 82.392 362.556,83.196 363.190,84.049 363.625 C 84.902 364.060,85.600 364.564,85.600 364.744 C 85.600 364.924,86.318 365.415,87.195 365.836 C 88.073 366.256,88.793 366.731,88.795 366.892 C 88.798 367.052,89.565 367.572,90.500 368.046 C 91.435 368.520,92.290 369.032,92.400 369.184 C 92.510 369.336,93.227 369.807,93.993 370.230 C 94.759 370.654,95.632 371.230,95.933 371.511 C 96.233 371.792,97.130 372.294,97.926 372.627 C 98.721 372.959,99.468 373.383,99.586 373.568 C 99.806 373.914,101.338 374.756,105.200 376.652 C 106.410 377.246,107.490 377.854,107.600 378.003 C 107.710 378.151,108.655 378.596,109.700 378.991 C 110.745 379.386,111.600 379.842,111.600 380.006 C 111.600 380.169,112.680 380.706,114.000 381.200 C 115.320 381.694,116.400 382.256,116.400 382.449 C 116.400 382.642,116.678 382.800,117.018 382.800 C 117.359 382.800,118.934 383.402,120.518 384.137 C 122.103 384.872,124.255 385.722,125.300 386.024 C 126.345 386.327,127.200 386.692,127.200 386.835 C 127.200 386.979,128.055 387.328,129.100 387.611 C 130.145 387.894,131.630 388.431,132.400 388.805 C 133.170 389.178,135.060 389.814,136.600 390.217 C 138.140 390.621,139.493 391.085,139.608 391.250 C 139.722 391.414,141.162 391.844,142.808 392.205 C 144.453 392.565,146.340 393.103,147.000 393.400 C 147.660 393.697,149.910 394.261,152.000 394.653 C 154.090 395.046,155.890 395.489,156.000 395.639 C 156.110 395.788,158.180 396.212,160.600 396.581 C 163.020 396.951,165.990 397.502,167.200 397.806 C 178.294 400.595,221.706 400.595,232.800 397.806 C 234.010 397.502,236.980 396.951,239.400 396.581 C 241.820 396.212,243.890 395.788,244.000 395.639 C 244.110 395.489,245.910 395.046,248.000 394.653 C 250.090 394.261,252.340 393.697,253.000 393.400 C 253.660 393.103,255.547 392.565,257.192 392.205 C 258.838 391.844,260.278 391.414,260.392 391.250 C 260.507 391.085,261.860 390.621,263.400 390.217 C 264.940 389.814,266.830 389.178,267.600 388.805 C 268.370 388.431,269.855 387.894,270.900 387.611 C 271.945 387.328,272.800 386.979,272.800 386.835 C 272.800 386.692,273.655 386.327,274.700 386.024 C 275.745 385.722,277.897 384.872,279.482 384.137 C 281.066 383.402,282.641 382.800,282.982 382.800 C 283.322 382.800,283.600 382.642,283.600 382.449 C 283.600 382.256,284.680 381.694,286.000 381.200 C 287.320 380.706,288.400 380.169,288.400 380.006 C 288.400 379.842,289.255 379.386,290.300 378.991 C 291.345 378.596,292.290 378.151,292.400 378.003 C 292.510 377.854,293.590 377.246,294.800 376.652 C 298.662 374.756,300.194 373.914,300.414 373.568 C 300.532 373.383,301.279 372.959,302.074 372.627 C 302.870 372.294,303.767 371.792,304.067 371.511 C 304.368 371.230,305.241 370.654,306.007 370.230 C 306.773 369.807,307.490 369.336,307.600 369.184 C 307.710 369.032,308.565 368.520,309.500 368.046 C 310.435 367.572,311.202 367.052,311.205 366.892 C 311.207 366.731,311.927 366.256,312.805 365.836 C 313.682 365.415,314.400 364.924,314.400 364.744 C 314.400 364.564,315.098 364.060,315.951 363.625 C 316.804 363.190,317.608 362.556,317.738 362.217 C 317.868 361.878,318.240 361.600,318.565 361.600 C 318.889 361.600,319.390 361.273,319.677 360.874 C 319.965 360.474,320.470 360.017,320.800 359.858 C 321.962 359.298,323.024 358.592,323.896 357.800 C 324.380 357.360,325.331 356.550,326.009 356.000 C 326.687 355.450,327.676 354.610,328.206 354.133 C 328.736 353.656,329.507 353.026,329.918 352.733 C 333.765 349.991,349.991 333.765,352.733 329.918 C 353.026 329.507,353.656 328.736,354.133 328.206 C 354.610 327.676,355.450 326.687,356.000 326.009 C 356.550 325.331,357.360 324.380,357.800 323.896 C 358.592 323.024,359.298 321.962,359.858 320.800 C 360.017 320.470,360.474 319.965,360.874 319.677 C 361.273 319.390,361.600 318.889,361.600 318.565 C 361.600 318.240,361.878 317.868,362.217 317.738 C 362.556 317.608,363.190 316.804,363.625 315.951 C 364.060 315.098,364.564 314.400,364.744 314.400 C 364.924 314.400,365.415 313.682,365.836 312.805 C 366.256 311.927,366.731 311.207,366.892 311.205 C 367.052 311.202,367.572 310.435,368.046 309.500 C 368.520 308.565,369.032 307.710,369.184 307.600 C 369.336 307.490,369.807 306.773,370.230 306.007 C 370.654 305.241,371.230 304.368,371.511 304.067 C 371.792 303.767,372.294 302.870,372.627 302.074 C 372.959 301.279,373.383 300.532,373.568 300.414 C 373.914 300.194,374.756 298.662,376.652 294.800 C 377.246 293.590,377.854 292.510,378.003 292.400 C 378.151 292.290,378.596 291.345,378.991 290.300 C 379.386 289.255,379.842 288.400,380.006 288.400 C 380.169 288.400,380.706 287.320,381.200 286.000 C 381.694 284.680,382.256 283.600,382.449 283.600 C 382.642 283.600,382.800 283.322,382.800 282.982 C 382.800 282.641,383.402 281.066,384.137 279.482 C 384.872 277.897,385.722 275.745,386.024 274.700 C 386.327 273.655,386.692 272.800,386.835 272.800 C 386.979 272.800,387.328 271.945,387.611 270.900 C 387.894 269.855,388.431 268.370,388.805 267.600 C 389.178 266.830,389.814 264.940,390.217 263.400 C 390.621 261.860,391.085 260.507,391.250 260.392 C 391.414 260.278,391.844 258.838,392.205 257.192 C 392.565 255.547,393.103 253.660,393.400 253.000 C 393.697 252.340,394.261 250.090,394.653 248.000 C 395.046 245.910,395.489 244.110,395.639 244.000 C 395.788 243.890,396.212 241.820,396.581 239.400 C 396.951 236.980,397.502 234.010,397.806 232.800 C 399.240 227.097,399.800 217.882,399.800 200.000 C 399.800 182.118,399.240 172.903,397.806 167.200 C 397.502 165.990,396.951 163.020,396.581 160.600 C 396.212 158.180,395.788 156.110,395.639 156.000 C 395.489 155.890,395.046 154.090,394.653 152.000 C 394.261 149.910,393.697 147.660,393.400 147.000 C 393.103 146.340,392.565 144.453,392.205 142.808 C 391.844 141.162,391.414 139.722,391.250 139.608 C 391.085 139.493,390.621 138.140,390.217 136.600 C 389.814 135.060,389.178 133.170,388.805 132.400 C 388.431 131.630,387.894 130.145,387.611 129.100 C 387.328 128.055,386.979 127.200,386.835 127.200 C 386.692 127.200,386.327 126.345,386.024 125.300 C 385.722 124.255,384.872 122.103,384.137 120.518 C 383.402 118.934,382.800 117.359,382.800 117.018 C 382.800 116.678,382.642 116.400,382.449 116.400 C 382.256 116.400,381.694 115.320,381.200 114.000 C 380.706 112.680,380.169 111.600,380.006 111.600 C 379.842 111.600,379.386 110.745,378.991 109.700 C 378.596 108.655,378.151 107.710,378.003 107.600 C 377.854 107.490,377.246 106.410,376.652 105.200 C 374.756 101.338,373.914 99.806,373.568 99.586 C 373.383 99.468,372.959 98.721,372.627 97.926 C 372.294 97.130,371.792 96.233,371.511 95.933 C 371.230 95.632,370.654 94.759,370.230 93.993 C 369.807 93.227,369.336 92.510,369.184 92.400 C 369.032 92.290,368.520 91.435,368.046 90.500 C 367.572 89.565,367.052 88.798,366.892 88.795 C 366.731 88.793,366.256 88.073,365.836 87.195 C 365.415 86.318,364.924 85.600,364.744 85.600 C 364.564 85.600,364.060 84.902,363.625 84.049 C 363.190 83.196,362.556 82.392,362.217 82.262 C 361.878 82.132,361.600 81.760,361.600 81.435 C 361.600 81.111,361.273 80.610,360.874 80.323 C 360.474 80.035,360.017 79.530,359.858 79.200 C 359.298 78.038,358.592 76.976,357.800 76.104 C 357.360 75.620,356.550 74.669,356.000 73.991 C 355.450 73.313,354.610 72.324,354.133 71.794 C 353.656 71.264,353.026 70.493,352.733 70.082 C 349.991 66.235,333.765 50.009,329.918 47.267 C 329.507 46.974,328.736 46.344,328.206 45.867 C 327.676 45.390,326.687 44.550,326.009 44.000 C 325.331 43.450,324.380 42.640,323.896 42.200 C 323.024 41.408,321.962 40.702,320.800 40.142 C 320.470 39.983,319.965 39.526,319.677 39.126 C 319.390 38.727,318.889 38.400,318.565 38.400 C 318.240 38.400,317.868 38.122,317.738 37.783 C 317.608 37.444,316.804 36.810,315.951 36.375 C 315.098 35.940,314.400 35.436,314.400 35.256 C 314.400 35.076,313.682 34.585,312.805 34.164 C 311.927 33.744,311.207 33.269,311.205 33.108 C 311.202 32.948,310.435 32.428,309.500 31.954 C 308.565 31.480,307.710 30.968,307.600 30.816 C 307.490 30.664,306.773 30.193,306.007 29.770 C 305.241 29.346,304.368 28.770,304.067 28.489 C 303.767 28.208,302.870 27.706,302.074 27.373 C 301.279 27.041,300.532 26.617,300.414 26.432 C 300.194 26.086,298.662 25.244,294.800 23.348 C 293.590 22.754,292.510 22.146,292.400 21.997 C 292.290 21.849,291.345 21.404,290.300 21.009 C 289.255 20.614,288.400 20.158,288.400 19.994 C 288.400 19.831,287.320 19.294,286.000 18.800 C 284.680 18.306,283.600 17.744,283.600 17.551 C 283.600 17.358,283.322 17.200,282.982 17.200 C 282.641 17.200,281.066 16.598,279.482 15.863 C 277.897 15.128,275.745 14.278,274.700 13.976 C 273.655 13.673,272.800 13.308,272.800 13.165 C 272.800 13.021,271.945 12.672,270.900 12.389 C 269.855 12.106,268.370 11.569,267.600 11.195 C 266.830 10.822,264.940 10.186,263.400 9.783 C 261.860 9.379,260.507 8.915,260.392 8.750 C 260.278 8.586,258.838 8.156,257.192 7.795 C 255.547 7.435,253.660 6.897,253.000 6.600 C 252.340 6.303,250.090 5.739,248.000 5.347 C 245.910 4.954,244.110 4.511,244.000 4.361 C 243.890 4.212,241.820 3.786,239.400 3.415 C 236.980 3.044,233.920 2.481,232.600 2.164 C 226.300 0.651,195.172 -0.580,184.200 0.250 M252.114 82.142 L 259.600 89.484 259.600 124.542 L 259.600 159.600 274.200 159.600 L 288.800 159.600 288.800 171.200 L 288.800 182.800 281.208 182.800 L 273.615 182.800 273.371 181.829 C 273.237 181.295,273.189 178.864,273.264 176.428 C 273.393 172.227,273.359 171.998,272.600 171.975 C 272.160 171.962,269.055 171.917,265.700 171.876 L 259.600 171.800 259.600 198.900 C 259.600 221.150,259.505 226.000,259.069 226.000 C 258.579 226.000,210.940 178.369,168.057 135.004 L 149.914 116.657 145.957 120.667 L 142.000 124.677 141.900 184.238 C 141.807 239.561,141.763 251.601,141.645 253.878 C 141.579 255.171,133.069 263.892,131.460 264.317 C 130.767 264.500,129.345 264.576,128.300 264.485 L 126.400 264.319 126.402 192.660 C 126.404 144.315,126.540 120.513,126.820 119.503 C 127.326 117.682,141.398 103.078,144.354 101.306 C 149.296 98.345,156.436 100.767,163.269 107.724 C 164.391 108.866,178.199 122.815,193.954 138.723 C 209.709 154.630,227.317 172.450,233.082 178.323 L 243.565 189.000 243.582 131.900 C 243.597 85.656,243.698 74.800,244.114 74.800 C 244.397 74.800,247.997 78.104,252.114 82.142 M288.797 100.100 L 288.794 122.600 285.134 126.525 L 281.473 130.450 279.092 128.125 C 277.783 126.846,276.011 124.929,275.156 123.864 L 273.600 121.928 273.602 106.464 L 273.605 91.000 277.702 86.980 C 284.448 80.361,287.533 77.600,288.184 77.600 C 288.731 77.600,288.800 80.108,288.797 100.100 M216.312 83.307 L 216.424 88.414 206.312 88.307 L 196.200 88.200 196.086 83.624 C 196.024 81.108,196.064 78.810,196.176 78.517 C 196.340 78.091,198.343 78.007,206.290 78.093 L 216.200 78.200 216.312 83.307 M134.899 86.360 C 138.041 89.728,136.257 94.662,131.741 95.096 C 127.884 95.467,125.710 93.160,126.099 89.107 C 126.544 84.483,131.659 82.886,134.899 86.360 M157.332 139.741 C 159.130 141.578,163.638 146.213,167.351 150.041 C 198.721 182.378,258.218 241.841,260.130 242.766 C 263.596 244.444,267.025 243.718,270.356 240.602 C 273.567 237.599,273.600 237.455,273.600 226.463 L 273.600 216.848 276.475 213.724 C 281.945 207.779,280.917 207.922,285.260 212.500 L 288.770 216.200 288.785 229.498 L 288.800 242.795 282.031 249.440 C 271.105 260.164,267.166 261.712,258.323 258.755 C 249.475 255.797,253.530 259.386,208.978 215.079 L 169.000 175.321 168.898 225.742 C 168.838 255.540,168.647 276.313,168.431 276.529 C 168.210 276.750,165.205 274.167,160.833 269.998 L 153.600 263.101 153.594 261.251 C 153.407 205.808,153.484 136.400,153.732 136.400 C 153.915 136.400,155.535 137.903,157.332 139.741 M105.904 176.700 L 105.800 194.200 100.200 194.200 L 94.600 194.200 94.496 176.700 L 94.392 159.200 100.200 159.200 L 106.008 159.200 105.904 176.700 M323.507 180.550 C 323.639 192.223,324.195 191.254,317.442 191.111 L 312.200 191.000 312.093 180.889 L 311.986 170.778 317.693 170.889 L 323.400 171.000 323.507 180.550 M288.546 265.352 C 292.905 267.173,292.665 273.726,288.186 275.205 C 283.403 276.783,279.472 271.219,282.310 266.889 C 283.586 264.940,286.087 264.324,288.546 265.352 M215.785 265.842 C 216.309 266.366,216.406 267.262,216.313 270.742 L 216.200 275.000 206.200 275.000 L 196.200 275.000 196.086 270.626 C 196.023 268.220,196.062 266.015,196.173 265.726 C 196.504 264.863,214.914 264.972,215.785 265.842 M145.635 288.502 C 146.850 289.096,148.257 290.022,148.761 290.558 L 149.677 291.533 147.380 294.267 C 146.117 295.770,145.040 297.054,144.988 297.120 C 144.936 297.186,144.231 296.790,143.422 296.240 C 138.496 292.898,132.859 295.731,132.476 301.741 C 132.006 309.126,139.174 312.561,144.622 307.562 C 145.437 306.814,145.465 306.832,147.971 309.630 L 150.499 312.453 149.405 313.594 C 146.514 316.612,141.245 318.216,136.435 317.544 C 121.844 315.503,120.107 292.345,134.200 287.733 C 137.005 286.815,143.013 287.219,145.635 288.502 M184.732 288.600 C 199.717 296.765,192.567 320.329,175.926 317.620 C 163.394 315.581,159.700 297.184,170.294 289.575 C 174.088 286.851,180.701 286.404,184.732 288.600 M235.318 287.609 C 250.288 289.773,252.827 310.505,238.826 316.252 C 236.344 317.270,235.826 317.332,229.400 317.365 L 222.600 317.400 222.495 302.528 L 222.390 287.657 223.295 287.483 C 225.065 287.143,232.643 287.222,235.318 287.609 M291.200 291.000 L 291.200 294.800 284.800 294.800 L 278.400 294.800 278.400 296.800 L 278.400 298.800 283.192 298.800 C 288.739 298.800,288.536 298.626,288.321 303.212 L 288.200 305.800 283.300 305.912 L 278.400 306.025 278.400 308.012 L 278.400 310.000 284.771 310.000 C 292.085 310.000,291.471 309.580,291.269 314.451 L 291.139 317.614 281.069 317.507 L 271.000 317.400 270.895 302.530 C 270.797 288.615,270.836 287.649,271.495 287.477 C 271.883 287.376,276.475 287.272,281.700 287.246 L 291.200 287.200 291.200 291.000 M177.400 295.085 C 169.794 296.607,170.703 309.800,178.414 309.800 C 181.544 309.800,184.322 307.160,184.698 303.829 C 185.301 298.476,181.745 294.215,177.400 295.085 M230.700 295.033 C 230.330 295.403,230.307 302.779,230.663 306.988 L 230.926 310.097 232.904 309.862 C 242.352 308.743,242.602 296.182,233.200 295.008 C 231.990 294.857,230.865 294.868,230.700 295.033  M -25 0 L -5 0 L -5 20 L -25 20 Z M 405 0 L 425 0 L 425 20 L 405 20 Z" stroke="none" fill="#0e0f16" fill-rule="evenodd" transform="translate(490,0)"></path><path id="path2" d="M211.888 78.291 L 215.976 78.428 216.107 83.414 L 216.237 88.401 216.219 83.301 L 216.200 78.200 212.000 78.177 L 207.800 78.154 211.888 78.291 M285.381 79.700 L 283.800 81.400 285.500 79.819 C 287.081 78.348,287.384 78.000,287.081 78.000 C 287.016 78.000,286.251 78.765,285.381 79.700 M196.154 83.200 C 196.154 85.950,196.218 87.075,196.296 85.700 C 196.374 84.325,196.374 82.075,196.296 80.700 C 196.218 79.325,196.154 80.450,196.154 83.200 M253.983 84.100 C 254.964 85.145,255.819 86.000,255.883 86.000 C 256.184 86.000,255.866 85.641,254.100 83.983 L 252.200 82.200 253.983 84.100 M130.500 84.676 C 130.885 84.776,131.515 84.776,131.900 84.676 C 132.285 84.575,131.970 84.493,131.200 84.493 C 130.430 84.493,130.115 84.575,130.500 84.676 M277.200 87.400 C 275.561 89.050,274.310 90.400,274.420 90.400 C 274.530 90.400,275.961 89.050,277.600 87.400 C 279.239 85.750,280.490 84.400,280.380 84.400 C 280.270 84.400,278.839 85.750,277.200 87.400 M259.391 124.200 C 259.391 143.340,259.440 151.229,259.500 141.730 C 259.560 132.232,259.560 116.572,259.500 106.930 C 259.440 97.289,259.391 105.060,259.391 124.200 M138.793 106.300 L 134.600 110.600 138.900 106.407 C 141.265 104.101,143.200 102.166,143.200 102.107 C 143.200 101.818,142.687 102.306,138.793 106.300 M177.400 122.400 C 180.474 125.480,183.079 128.000,183.189 128.000 C 183.299 128.000,180.874 125.480,177.800 122.400 C 174.726 119.320,172.121 116.800,172.011 116.800 C 171.901 116.800,174.326 119.320,177.400 122.400 M145.600 120.600 C 143.961 122.250,142.710 123.600,142.820 123.600 C 142.930 123.600,144.361 122.250,146.000 120.600 C 147.639 118.950,148.890 117.600,148.780 117.600 C 148.670 117.600,147.239 118.950,145.600 120.600 M126.596 192.400 C 126.596 232.110,126.643 248.355,126.700 228.500 C 126.757 208.645,126.757 176.155,126.700 156.300 C 126.643 136.445,126.596 152.690,126.596 192.400 M287.634 123.353 L 286.669 124.600 287.813 123.512 C 288.443 122.914,288.877 122.353,288.779 122.265 C 288.680 122.177,288.165 122.667,287.634 123.353 M277.800 126.800 C 279.328 128.340,280.669 129.600,280.779 129.600 C 280.889 129.600,279.728 128.340,278.200 126.800 C 276.672 125.260,275.331 124.000,275.221 124.000 C 275.111 124.000,276.272 125.260,277.800 126.800 M141.795 184.400 C 141.795 217.070,141.842 230.435,141.900 214.100 C 141.958 197.765,141.958 171.035,141.900 154.700 C 141.842 138.365,141.795 151.730,141.795 184.400 M283.578 127.900 L 282.200 129.400 283.700 128.022 C 285.096 126.738,285.384 126.400,285.078 126.400 C 285.012 126.400,284.337 127.075,283.578 127.900 M169.400 136.400 C 173.796 140.800,177.482 144.400,177.592 144.400 C 177.702 144.400,174.196 140.800,169.800 136.400 C 165.404 132.000,161.718 128.400,161.608 128.400 C 161.498 128.400,165.004 132.000,169.400 136.400 M153.285 141.100 L 153.370 145.800 153.499 141.415 C 153.584 138.539,153.796 136.923,154.114 136.721 C 154.449 136.508,154.382 136.410,153.900 136.406 C 153.268 136.401,153.208 136.856,153.285 141.100 M179.583 146.500 C 180.564 147.545,181.419 148.400,181.483 148.400 C 181.784 148.400,181.466 148.041,179.700 146.383 L 177.800 144.600 179.583 146.500 M166.400 149.400 C 167.817 150.830,169.067 152.000,169.177 152.000 C 169.287 152.000,168.217 150.830,166.800 149.400 C 165.383 147.970,164.133 146.800,164.023 146.800 C 163.913 146.800,164.983 147.970,166.400 149.400 M216.200 161.600 C 219.715 165.120,222.681 168.000,222.791 168.000 C 222.901 168.000,220.115 165.120,216.600 161.600 C 213.085 158.080,210.119 155.200,210.009 155.200 C 209.899 155.200,212.685 158.080,216.200 161.600 M105.696 176.471 C 105.607 192.727,105.551 193.954,104.900 194.124 C 104.244 194.296,104.245 194.310,104.913 194.354 C 106.016 194.425,106.015 194.436,105.900 176.200 L 105.791 159.000 105.696 176.471 M288.531 162.200 C 288.533 163.740,288.605 164.321,288.692 163.491 C 288.779 162.661,288.777 161.401,288.689 160.691 C 288.600 159.981,288.529 160.660,288.531 162.200 M94.593 177.300 L 94.600 194.200 97.000 194.229 L 99.400 194.257 97.104 194.110 L 94.809 193.962 94.698 177.181 L 94.587 160.400 94.593 177.300 M185.400 168.800 C 188.915 172.320,191.881 175.200,191.991 175.200 C 192.101 175.200,189.315 172.320,185.800 168.800 C 182.285 165.280,179.319 162.400,179.209 162.400 C 179.099 162.400,181.885 165.280,185.400 168.800 M223.200 168.510 C 223.200 168.571,224.595 169.966,226.300 171.610 L 229.400 174.600 226.410 171.500 C 223.633 168.621,223.200 168.217,223.200 168.510 M317.507 171.093 L 323.214 171.222 323.107 180.911 L 323.000 190.600 317.538 190.600 C 314.533 190.600,312.159 190.735,312.261 190.900 C 312.621 191.480,322.661 191.250,323.158 190.650 C 323.479 190.264,323.583 187.259,323.507 180.550 L 323.400 171.000 317.600 170.982 L 311.800 170.965 317.507 171.093 M259.389 198.800 C 259.389 213.870,259.439 220.035,259.500 212.500 C 259.561 204.965,259.561 192.635,259.500 185.100 C 259.439 177.565,259.389 183.730,259.389 198.800 M262.900 171.897 C 264.385 171.974,266.815 171.974,268.300 171.897 C 269.785 171.820,268.570 171.757,265.600 171.757 C 262.630 171.757,261.415 171.820,262.900 171.897 M273.353 177.400 C 273.353 180.040,273.418 181.068,273.497 179.684 C 273.575 178.301,273.574 176.141,273.495 174.884 C 273.416 173.628,273.352 174.760,273.353 177.400 M168.498 208.500 L 168.595 242.200 168.700 208.640 L 168.805 175.080 169.702 175.840 L 170.600 176.600 169.838 175.700 C 169.419 175.205,168.924 174.800,168.738 174.800 C 168.552 174.800,168.444 189.965,168.498 208.500 M216.200 183.600 C 217.283 184.700,218.260 185.600,218.370 185.600 C 218.480 185.600,217.683 184.700,216.600 183.600 C 215.517 182.500,214.540 181.600,214.430 181.600 C 214.320 181.600,215.117 182.500,216.200 183.600 M287.600 182.400 L 286.600 182.720 287.700 182.760 C 288.305 182.782,288.800 182.620,288.800 182.400 C 288.800 182.180,288.755 182.018,288.700 182.040 C 288.645 182.062,288.150 182.224,287.600 182.400 M240.383 186.100 C 241.364 187.145,242.219 188.000,242.283 188.000 C 242.584 188.000,242.266 187.641,240.500 185.983 L 238.600 184.200 240.383 186.100 M236.400 203.800 C 246.188 213.590,254.287 221.600,254.397 221.600 C 254.507 221.600,246.588 213.590,236.800 203.800 C 227.012 194.010,218.913 186.000,218.803 186.000 C 218.693 186.000,226.612 194.010,236.400 203.800 M153.301 188.200 C 153.305 189.080,153.387 189.393,153.483 188.895 C 153.579 188.398,153.575 187.678,153.475 187.295 C 153.375 186.913,153.296 187.320,153.301 188.200 M188.000 194.200 C 188.746 194.970,189.447 195.600,189.557 195.600 C 189.667 195.600,189.146 194.970,188.400 194.200 C 187.654 193.430,186.953 192.800,186.843 192.800 C 186.733 192.800,187.254 193.430,188.000 194.200 M213.583 197.300 C 215.241 199.066,215.600 199.384,215.600 199.083 C 215.600 199.019,214.745 198.164,213.700 197.183 L 211.800 195.400 213.583 197.300 M194.800 201.000 C 195.995 202.210,197.063 203.200,197.173 203.200 C 197.283 203.200,196.395 202.210,195.200 201.000 C 194.005 199.790,192.937 198.800,192.827 198.800 C 192.717 198.800,193.605 199.790,194.800 201.000 M227.600 211.400 C 234.087 217.890,239.485 223.200,239.595 223.200 C 239.705 223.200,234.487 217.890,228.000 211.400 C 221.513 204.910,216.115 199.600,216.005 199.600 C 215.895 199.600,221.113 204.910,227.600 211.400 M205.800 212.000 C 207.992 214.200,209.875 216.000,209.985 216.000 C 210.095 216.000,208.392 214.200,206.200 212.000 C 204.008 209.800,202.125 208.000,202.015 208.000 C 201.905 208.000,203.608 209.800,205.800 212.000 M275.578 214.700 L 274.200 216.200 275.700 214.822 C 277.096 213.538,277.384 213.200,277.078 213.200 C 277.012 213.200,276.337 213.875,275.578 214.700 M153.353 220.200 C 153.353 222.840,153.418 223.868,153.497 222.484 C 153.575 221.101,153.574 218.941,153.495 217.684 C 153.416 216.428,153.352 217.560,153.353 220.200 M216.600 222.800 C 220.115 226.320,223.081 229.200,223.191 229.200 C 223.301 229.200,220.515 226.320,217.000 222.800 C 213.485 219.280,210.519 216.400,210.409 216.400 C 210.299 216.400,213.085 219.280,216.600 222.800 M257.200 224.600 C 257.946 225.370,258.647 226.000,258.757 226.000 C 258.867 226.000,258.346 225.370,257.600 224.600 C 256.854 223.830,256.153 223.200,256.043 223.200 C 255.933 223.200,256.454 223.830,257.200 224.600 M241.583 225.300 C 243.241 227.066,243.600 227.384,243.600 227.083 C 243.600 227.019,242.745 226.164,241.700 225.183 L 239.800 223.400 241.583 225.300 M225.400 231.600 C 226.483 232.700,227.460 233.600,227.570 233.600 C 227.680 233.600,226.883 232.700,225.800 231.600 C 224.717 230.500,223.740 229.600,223.630 229.600 C 223.520 229.600,224.317 230.500,225.400 231.600 M256.200 240.000 C 257.283 241.100,258.260 242.000,258.370 242.000 C 258.480 242.000,257.683 241.100,256.600 240.000 C 255.517 238.900,254.540 238.000,254.430 238.000 C 254.320 238.000,255.117 238.900,256.200 240.000 M168.400 260.080 C 168.290 269.254,168.337 276.623,168.505 276.456 C 168.672 276.288,168.762 268.782,168.704 259.775 L 168.600 243.400 168.400 260.080 M135.792 260.500 L 132.200 264.200 135.900 260.608 C 139.336 257.272,139.782 256.800,139.492 256.800 C 139.432 256.800,137.767 258.465,135.792 260.500 M156.600 266.000 C 158.350 267.760,159.871 269.200,159.981 269.200 C 160.091 269.200,158.750 267.760,157.000 266.000 C 155.250 264.240,153.729 262.800,153.619 262.800 C 153.509 262.800,154.850 264.240,156.600 266.000 M196.180 270.299 L 196.200 275.000 206.200 275.000 L 216.200 275.000 216.239 274.000 C 216.272 273.130,216.256 273.117,216.112 273.900 L 215.947 274.800 206.186 274.800 L 196.425 274.800 196.293 270.199 L 196.160 265.599 196.180 270.299 M165.200 274.200 C 166.395 275.410,167.463 276.400,167.573 276.400 C 167.683 276.400,166.795 275.410,165.600 274.200 C 164.405 272.990,163.337 272.000,163.227 272.000 C 163.117 272.000,164.005 272.990,165.200 274.200 M226.300 287.496 C 227.675 287.574,229.925 287.574,231.300 287.496 C 232.675 287.418,231.550 287.354,228.800 287.354 C 226.050 287.354,224.925 287.418,226.300 287.496 M276.700 287.499 C 279.395 287.568,283.805 287.568,286.500 287.499 C 289.195 287.430,286.990 287.373,281.600 287.373 C 276.210 287.373,274.005 287.430,276.700 287.499 M222.581 302.400 C 222.581 310.650,222.634 314.025,222.699 309.900 C 222.764 305.775,222.764 299.025,222.699 294.900 C 222.634 290.775,222.581 294.150,222.581 302.400 M270.981 302.400 C 270.981 310.650,271.034 314.025,271.099 309.900 C 271.164 305.775,271.164 299.025,271.099 294.900 C 271.034 290.775,270.981 294.150,270.981 302.400 M281.500 294.698 C 283.315 294.772,286.285 294.772,288.100 294.698 C 289.915 294.623,288.430 294.563,284.800 294.563 C 281.170 294.563,279.685 294.623,281.500 294.698 M280.700 299.096 C 282.075 299.174,284.325 299.174,285.700 299.096 C 287.075 299.018,285.950 298.954,283.200 298.954 C 280.450 298.954,279.325 299.018,280.700 299.096 M184.693 301.800 C 184.813 303.120,184.976 304.275,185.055 304.367 C 185.351 304.707,185.131 300.970,184.810 300.200 C 184.608 299.717,184.562 300.351,184.693 301.800 M288.078 302.488 L 288.000 305.575 283.100 305.701 L 278.200 305.827 283.113 305.914 C 288.768 306.013,288.505 306.204,288.298 302.160 L 288.157 299.400 288.078 302.488 M192.914 302.600 C 192.917 303.700,192.995 304.103,193.087 303.495 C 193.179 302.886,193.177 301.986,193.082 301.495 C 192.987 301.003,192.911 301.500,192.914 302.600 M240.093 302.400 C 240.093 303.170,240.175 303.485,240.276 303.100 C 240.376 302.715,240.376 302.085,240.276 301.700 C 240.175 301.315,240.093 301.630,240.093 302.400 M230.520 308.000 C 230.520 309.210,230.595 309.705,230.687 309.100 C 230.778 308.495,230.778 307.505,230.687 306.900 C 230.595 306.295,230.520 306.790,230.520 308.000 M144.768 307.500 C 144.319 308.094,144.323 308.125,144.796 307.703 C 145.248 307.300,145.549 307.376,146.377 308.103 L 147.400 309.000 146.430 307.900 C 145.282 306.597,145.425 306.632,144.768 307.500 M149.029 313.562 L 147.858 315.000 149.209 313.713 C 149.951 313.005,150.478 312.358,150.379 312.275 C 150.281 312.192,149.673 312.771,149.029 313.562 M188.000 313.800 C 187.028 314.790,186.323 315.600,186.433 315.600 C 186.543 315.600,187.428 314.790,188.400 313.800 C 189.372 312.810,190.077 312.000,189.967 312.000 C 189.857 312.000,188.972 312.810,188.000 313.800 M227.116 317.497 C 228.499 317.575,230.659 317.574,231.916 317.495 C 233.172 317.416,232.040 317.352,229.400 317.353 C 226.760 317.353,225.732 317.418,227.116 317.497 M277.900 317.499 C 280.375 317.569,284.425 317.569,286.900 317.499 C 289.375 317.428,287.350 317.371,282.400 317.371 C 277.450 317.371,275.425 317.428,277.900 317.499  M -25 0 L -5 0 L -5 20 L -25 20 Z M 405 0 L 425 0 L 425 20 L 405 20 Z" stroke="none" fill="#5f6265" fill-rule="evenodd" transform="translate(950,0)"></path><path id="path3" d="M196.900 78.276 C 197.285 78.376,197.915 78.376,198.300 78.276 C 198.685 78.175,198.370 78.093,197.600 78.093 C 196.830 78.093,196.515 78.175,196.900 78.276 M202.912 78.295 C 203.964 78.377,205.584 78.376,206.512 78.292 C 207.440 78.208,206.580 78.141,204.600 78.142 C 202.620 78.143,201.860 78.212,202.912 78.295 M165.400 110.400 C 166.483 111.500,167.460 112.400,167.570 112.400 C 167.680 112.400,166.883 111.500,165.800 110.400 C 164.717 109.300,163.740 108.400,163.630 108.400 C 163.520 108.400,164.317 109.300,165.400 110.400 M243.740 117.600 C 243.740 119.470,243.809 120.235,243.893 119.300 C 243.977 118.365,243.977 116.835,243.893 115.900 C 243.809 114.965,243.740 115.730,243.740 117.600 M243.734 154.400 C 243.734 156.050,243.805 156.725,243.891 155.900 C 243.978 155.075,243.978 153.725,243.891 152.900 C 243.805 152.075,243.734 152.750,243.734 154.400 M288.570 173.400 C 288.571 178.240,288.629 180.165,288.699 177.678 C 288.769 175.191,288.769 171.231,288.698 168.878 C 288.628 166.525,288.570 168.560,288.570 173.400 M196.800 180.525 C 196.800 180.594,197.385 181.179,198.100 181.825 L 199.400 183.000 198.225 181.700 C 197.130 180.488,196.800 180.216,196.800 180.525 M243.714 182.600 C 243.717 183.700,243.795 184.103,243.887 183.495 C 243.979 182.886,243.977 181.986,243.882 181.495 C 243.787 181.003,243.711 181.500,243.714 182.600 M277.519 182.698 C 279.344 182.772,282.224 182.772,283.919 182.697 C 285.614 182.622,284.120 182.561,280.600 182.562 C 277.080 182.562,275.694 182.624,277.519 182.698 M100.700 194.289 C 101.415 194.378,102.585 194.378,103.300 194.289 C 104.015 194.201,103.430 194.128,102.000 194.128 C 100.570 194.128,99.985 194.201,100.700 194.289 M288.577 230.200 C 288.577 236.800,288.632 239.556,288.699 236.325 C 288.766 233.093,288.766 227.693,288.699 224.325 C 288.632 220.956,288.577 223.600,288.577 230.200 M273.748 223.600 C 273.748 225.910,273.814 226.855,273.895 225.700 C 273.976 224.545,273.976 222.655,273.895 221.500 C 273.814 220.345,273.748 221.290,273.748 223.600 M279.781 251.300 L 278.200 253.000 279.900 251.419 C 281.481 249.948,281.784 249.600,281.481 249.600 C 281.416 249.600,280.651 250.365,279.781 251.300 M216.128 270.400 C 216.128 271.830,216.201 272.415,216.289 271.700 C 216.378 270.985,216.378 269.815,216.289 269.100 C 216.201 268.385,216.128 268.970,216.128 270.400 M188.000 291.400 C 188.746 292.170,189.447 292.800,189.557 292.800 C 189.667 292.800,189.146 292.170,188.400 291.400 C 187.654 290.630,186.953 290.000,186.843 290.000 C 186.733 290.000,187.254 290.630,188.000 291.400 M271.700 317.476 C 272.085 317.576,272.715 317.576,273.100 317.476 C 273.485 317.375,273.170 317.293,272.400 317.293 C 271.630 317.293,271.315 317.375,271.700 317.476  M -25 0 L -5 0 L -5 20 L -25 20 Z M 405 0 L 425 0 L 425 20 L 405 20 Z" stroke="none" fill="#828c8d" fill-rule="evenodd" transform="translate(30,460)"></path><path id="path4" d="M243.682 84.500 C 243.764 94.171,243.901 93.049,244.097 81.099 C 244.154 77.634,244.065 74.799,243.900 74.799 C 243.735 74.800,243.637 79.165,243.682 84.500 M288.400 99.920 L 288.600 122.200 288.703 100.223 C 288.760 88.136,288.670 78.110,288.503 77.943 C 288.337 77.776,288.290 87.666,288.400 99.920 M199.300 78.276 C 199.685 78.376,200.315 78.376,200.700 78.276 C 201.085 78.175,200.770 78.093,200.000 78.093 C 199.230 78.093,198.915 78.175,199.300 78.276 M253.800 84.400 C 256.654 87.260,259.078 89.600,259.188 89.600 C 259.298 89.600,257.054 87.260,254.200 84.400 C 251.346 81.540,248.922 79.200,248.812 79.200 C 248.702 79.200,250.946 81.540,253.800 84.400 M281.186 83.900 L 279.000 86.200 281.300 84.014 C 283.437 81.982,283.783 81.600,283.486 81.600 C 283.424 81.600,282.389 82.635,281.186 83.900 M130.105 85.087 C 130.714 85.179,131.614 85.177,132.105 85.082 C 132.597 84.987,132.100 84.911,131.000 84.914 C 129.900 84.917,129.497 84.995,130.105 85.087 M206.691 88.289 C 207.401 88.377,208.661 88.379,209.491 88.292 C 210.321 88.205,209.740 88.133,208.200 88.131 C 206.660 88.129,205.981 88.200,206.691 88.289 M273.781 106.600 C 273.780 114.520,273.834 117.817,273.899 113.926 C 273.965 110.035,273.965 103.555,273.900 99.526 C 273.834 95.497,273.781 98.680,273.781 106.600 M243.774 104.400 C 243.774 110.010,243.830 112.305,243.899 109.500 C 243.968 106.695,243.968 102.105,243.899 99.300 C 243.830 96.495,243.774 98.790,243.774 104.400 M145.785 120.100 L 143.800 122.200 145.900 120.215 C 147.055 119.123,148.000 118.178,148.000 118.115 C 148.000 117.817,147.629 118.149,145.785 120.100 M153.983 120.500 C 155.641 122.266,156.000 122.584,156.000 122.283 C 156.000 122.219,155.145 121.364,154.100 120.383 L 152.200 118.600 153.983 120.500 M126.901 120.600 C 126.905 121.480,126.987 121.793,127.083 121.295 C 127.179 120.798,127.175 120.078,127.075 119.695 C 126.975 119.313,126.896 119.720,126.901 120.600 M243.782 136.200 C 243.782 144.780,243.835 148.233,243.900 143.874 C 243.964 139.514,243.964 132.494,243.899 128.274 C 243.835 124.053,243.782 127.620,243.782 136.200 M158.600 125.200 C 159.906 126.520,161.065 127.600,161.175 127.600 C 161.285 127.600,160.306 126.520,159.000 125.200 C 157.694 123.880,156.535 122.800,156.425 122.800 C 156.315 122.800,157.294 123.880,158.600 125.200 M278.000 126.600 C 279.417 128.030,280.667 129.200,280.777 129.200 C 280.887 129.200,279.817 128.030,278.400 126.600 C 276.983 125.170,275.733 124.000,275.623 124.000 C 275.513 124.000,276.583 125.170,278.000 126.600 M196.400 141.800 C 201.126 146.530,205.083 150.400,205.193 150.400 C 205.303 150.400,201.526 146.530,196.800 141.800 C 192.074 137.070,188.117 133.200,188.007 133.200 C 187.897 133.200,191.674 137.070,196.400 141.800 M153.699 199.700 L 153.797 262.600 153.900 199.812 L 154.003 137.024 156.901 139.812 L 159.800 142.600 157.011 139.700 C 155.477 138.105,154.082 136.800,153.911 136.800 C 153.740 136.800,153.644 165.105,153.699 199.700 M169.194 152.500 C 172.161 155.525,174.636 158.000,174.694 158.000 C 174.981 158.000,174.409 157.406,169.300 152.394 L 163.800 147.000 169.194 152.500 M188.400 155.303 C 188.400 155.359,193.305 160.264,199.300 166.203 L 210.200 177.000 199.403 166.100 C 189.369 155.971,188.400 155.020,188.400 155.303 M243.777 169.000 C 243.777 175.600,243.832 178.356,243.899 175.125 C 243.966 171.893,243.966 166.493,243.899 163.125 C 243.832 159.756,243.777 162.400,243.777 169.000 M264.400 159.885 C 277.011 160.166,288.308 160.173,288.139 159.900 C 288.036 159.735,281.528 159.639,273.676 159.687 C 265.824 159.735,261.650 159.824,264.400 159.885 M186.400 170.200 C 189.805 173.610,192.680 176.400,192.790 176.400 C 192.900 176.400,190.205 173.610,186.800 170.200 C 183.395 166.790,180.520 164.000,180.410 164.000 C 180.300 164.000,182.995 166.790,186.400 170.200 M224.200 170.000 C 227.494 173.300,230.280 176.000,230.390 176.000 C 230.500 176.000,227.894 173.300,224.600 170.000 C 221.306 166.700,218.520 164.000,218.410 164.000 C 218.300 164.000,220.906 166.700,224.200 170.000 M262.480 171.498 C 264.394 171.571,267.634 171.571,269.680 171.498 C 271.726 171.426,270.160 171.366,266.200 171.365 C 262.240 171.365,260.566 171.424,262.480 171.498 M312.179 171.709 C 312.072 171.990,312.036 176.175,312.100 181.009 L 312.216 189.800 312.308 180.716 L 312.400 171.632 315.700 171.498 L 319.000 171.363 315.687 171.281 C 313.312 171.223,312.320 171.344,312.179 171.709 M321.584 171.424 C 322.759 171.647,322.770 171.673,322.908 174.724 L 323.048 177.800 323.024 174.600 L 323.000 171.400 321.700 171.300 C 320.448 171.204,320.443 171.208,321.584 171.424 M322.954 185.600 C 322.954 188.350,323.018 189.475,323.096 188.100 C 323.174 186.725,323.174 184.475,323.096 183.100 C 323.018 181.725,322.954 182.850,322.954 185.600 M231.200 215.400 C 237.687 221.890,243.085 227.200,243.195 227.200 C 243.305 227.200,238.087 221.890,231.600 215.400 C 225.113 208.910,219.715 203.600,219.605 203.600 C 219.495 203.600,224.713 208.910,231.200 215.400 M282.800 210.525 C 282.800 210.594,283.385 211.179,284.100 211.825 L 285.400 213.000 284.225 211.700 C 283.130 210.488,282.800 210.216,282.800 210.525 M221.800 227.600 C 227.957 233.760,233.085 238.800,233.195 238.800 C 233.305 238.800,228.357 233.760,222.200 227.600 C 216.043 221.440,210.915 216.400,210.805 216.400 C 210.695 216.400,215.643 221.440,221.800 227.600 M246.600 230.800 C 248.350 232.560,249.871 234.000,249.981 234.000 C 250.091 234.000,248.750 232.560,247.000 230.800 C 245.250 229.040,243.729 227.600,243.619 227.600 C 243.509 227.600,244.850 229.040,246.600 230.800 M273.751 232.000 C 273.751 234.530,273.816 235.565,273.896 234.300 C 273.975 233.035,273.975 230.965,273.896 229.700 C 273.816 228.435,273.751 229.470,273.751 232.000 M252.000 236.110 C 252.000 236.171,253.395 237.566,255.100 239.210 L 258.200 242.200 255.210 239.100 C 252.433 236.221,252.000 235.817,252.000 236.110 M285.381 245.700 L 283.800 247.400 285.500 245.819 C 286.435 244.949,287.200 244.184,287.200 244.119 C 287.200 243.816,286.852 244.119,285.381 245.700 M136.193 259.700 L 131.800 264.200 136.300 259.807 C 138.775 257.391,140.800 255.366,140.800 255.307 C 140.800 255.018,140.274 255.520,136.193 259.700 M126.927 263.400 C 126.997 264.097,127.315 264.205,129.404 264.236 L 131.800 264.272 129.526 264.117 C 127.818 264.000,127.201 263.792,127.049 263.281 C 126.900 262.782,126.868 262.814,126.927 263.400 M157.600 266.600 C 159.460 268.470,161.072 270.000,161.182 270.000 C 161.292 270.000,159.860 268.470,158.000 266.600 C 156.140 264.730,154.528 263.200,154.418 263.200 C 154.308 263.200,155.740 264.730,157.600 266.600 M200.923 265.499 C 203.520 265.569,207.660 265.568,210.123 265.498 C 212.585 265.428,210.460 265.371,205.400 265.372 C 200.340 265.372,198.325 265.429,200.923 265.499 M290.937 291.000 C 290.939 292.760,291.009 293.430,291.093 292.489 C 291.178 291.549,291.177 290.109,291.091 289.289 C 291.005 288.470,290.936 289.240,290.937 291.000 M168.575 291.300 L 167.400 292.600 168.700 291.425 C 169.912 290.330,170.184 290.000,169.875 290.000 C 169.806 290.000,169.221 290.585,168.575 291.300 M177.700 294.676 C 178.085 294.776,178.715 294.776,179.100 294.676 C 179.485 294.575,179.170 294.493,178.400 294.493 C 177.630 294.493,177.315 294.575,177.700 294.676 M230.177 294.917 C 230.068 295.201,230.033 298.216,230.100 301.617 L 230.222 307.800 230.311 301.322 L 230.400 294.844 232.300 294.694 L 234.200 294.544 232.287 294.472 C 231.037 294.425,230.306 294.579,230.177 294.917 M287.701 300.600 C 287.705 301.480,287.787 301.793,287.883 301.295 C 287.979 300.798,287.975 300.078,287.875 299.695 C 287.775 299.313,287.696 299.720,287.701 300.600 M124.531 302.600 C 124.533 304.140,124.605 304.721,124.692 303.891 C 124.779 303.061,124.777 301.801,124.689 301.091 C 124.600 300.381,124.529 301.060,124.531 302.600 M132.109 302.400 C 132.109 303.390,132.187 303.795,132.282 303.300 C 132.378 302.805,132.378 301.995,132.282 301.500 C 132.187 301.005,132.109 301.410,132.109 302.400 M164.101 302.600 C 164.105 303.480,164.187 303.793,164.283 303.295 C 164.379 302.798,164.375 302.078,164.275 301.695 C 164.175 301.313,164.096 301.720,164.101 302.600 M171.693 302.400 C 171.693 303.170,171.775 303.485,171.876 303.100 C 171.976 302.715,171.976 302.085,171.876 301.700 C 171.775 301.315,171.693 301.630,171.693 302.400 M247.701 302.600 C 247.705 303.480,247.787 303.793,247.883 303.295 C 247.979 302.798,247.975 302.078,247.875 301.695 C 247.775 301.313,247.696 301.720,247.701 302.600 M146.400 308.600 C 147.146 309.370,147.847 310.000,147.957 310.000 C 148.067 310.000,147.546 309.370,146.800 308.600 C 146.054 307.830,145.353 307.200,145.243 307.200 C 145.133 307.200,145.654 307.830,146.400 308.600 M176.421 310.021 C 176.955 310.360,179.942 310.581,179.567 310.255 C 179.475 310.175,178.599 310.008,177.621 309.882 C 176.470 309.735,176.046 309.784,176.421 310.021 M138.105 310.287 C 138.714 310.379,139.614 310.377,140.105 310.282 C 140.597 310.187,140.100 310.111,139.000 310.114 C 137.900 310.117,137.497 310.195,138.105 310.287 M231.305 310.287 C 231.914 310.379,232.814 310.377,233.305 310.282 C 233.797 310.187,233.300 310.111,232.200 310.114 C 231.100 310.117,230.697 310.195,231.305 310.287 M284.900 310.294 L 290.800 310.421 290.800 313.577 C 290.800 315.334,290.618 316.824,290.390 316.937 C 290.165 317.049,290.210 317.094,290.490 317.037 C 290.855 316.963,291.000 315.975,291.000 313.567 L 291.000 310.200 285.000 310.183 L 279.000 310.166 284.900 310.294 M243.578 312.700 L 242.200 314.200 243.700 312.822 C 244.525 312.063,245.200 311.388,245.200 311.322 C 245.200 311.016,244.862 311.304,243.578 312.700 M127.600 312.125 C 127.600 312.194,128.185 312.779,128.900 313.425 L 130.200 314.600 129.025 313.300 C 127.930 312.088,127.600 311.816,127.600 312.125 M232.705 317.083 C 233.202 317.179,233.922 317.175,234.305 317.075 C 234.687 316.975,234.280 316.896,233.400 316.901 C 232.520 316.905,232.207 316.987,232.705 317.083 M137.700 317.491 C 138.525 317.578,139.875 317.578,140.700 317.491 C 141.525 317.405,140.850 317.334,139.200 317.334 C 137.550 317.334,136.875 317.405,137.700 317.491 M176.900 317.491 C 177.725 317.578,179.075 317.578,179.900 317.491 C 180.725 317.405,180.050 317.334,178.400 317.334 C 176.750 317.334,176.075 317.405,176.900 317.491  M -25 0 L -5 0 L -5 20 L -25 20 Z M 405 0 L 425 0 L 425 20 L 405 20 Z" stroke="none" fill="#8c8c8e" fill-rule="evenodd" transform="translate(490,460)"></path></g></svg>